RobotoMono-BoldItalic.ufo
<glyph name="quotedbl" format="2">
  <advance width="1202"/>
  <unicode hex="0022"/>
  <outline>
    <contour>
      <point x="601" y="1416" type="line"/>
      <point x="510" y="1008" type="line"/>
      <point x="335" y="1008" type="line"/>
      <point x="401" y="1425" type="line"/>
      <point x="418" y="1536" type="line"/>
      <point x="620" y="1536" type="line"/>
    </contour>
    <contour>
      <point x="999" y="1416" type="line"/>
      <point x="909" y="1008" type="line"/>
      <point x="735" y="1008" type="line"/>
      <point x="801" y="1429" type="line"/>
      <point x="818" y="1536" type="line"/>
      <point x="1018" y="1536" type="line"/>
    </contour>
  </outline>
</glyph>
<glyph name="numbersign" format="2">
  <advance width="1202"/>
  <unicode hex="0023"/>
  <outline>
    <contour>
      <point x="594" y="410" type="line"/>
      <point x="406" y="410" type="line"/>
      <point x="263" y="0" type="line"/>
      <point x="83" y="0" type="line"/>
      <point x="225" y="410" type="line"/>
      <point x="6" y="410" type="line"/>
      <point x="36" y="579" type="line"/>
      <point x="283" y="579" type="line"/>
      <point x="384" y="869" type="line"/>
      <point x="158" y="869" type="line"/>
      <point x="188" y="1040" type="line"/>
      <point x="442" y="1040" type="line"/>
      <point x="588" y="1456" type="line"/>
      <point x="767" y="1456" type="line"/>
      <point x="623" y="1040" type="line"/>
      <point x="811" y="1040" type="line"/>
      <point x="956" y="1456" type="line"/>
      <point x="1137" y="1456" type="line"/>
      <point x="991" y="1040" type="line"/>
      <point x="1200" y="1040" type="line"/>
      <point x="1170" y="869" type="line"/>
      <point x="933" y="869" type="line"/>
      <point x="832" y="579" type="line"/>
      <point x="1046" y="579" type="line"/>
      <point x="1016" y="410" type="line"/>
      <point x="774" y="410" type="line"/>
      <point x="632" y="0" type="line"/>
      <point x="451" y="0" type="line"/>
    </contour>
    <contour>
      <point x="463" y="579" type="line"/>
      <point x="652" y="579" type="line"/>
      <point x="752" y="869" type="line"/>
      <point x="564" y="869" type="line"/>
    </contour>
  </outline>
</glyph>
<glyph name="dollar" format="2">
  <advance width="1202"/>
  <unicode hex="0024"/>
  <outline>
    <contour>
      <point x="804" y="389" type="qcurve" smooth="yes"/>
      <point x="810" y="436"/>
      <point x="785" y="505"/>
      <point x="759.5" y="530.5" type="qcurve" smooth="yes" name="inserted"/>
      <point x="734" y="556"/>
      <point x="665" y="594"/>
      <point x="626" y="610" type="qcurve" smooth="yes"/>
      <point x="548" y="642"/>
      <point x="407" y="721"/>
      <point x="354.5" y="774.5" type="qcurve" smooth="yes" name="inserted"/>
      <point x="302" y="828"/>
      <point x="245" y="969"/>
      <point x="251" y="1063" type="qcurve" smooth="yes"/>
      <point x="262.8944807000902" y="1249.3468643014126"/>
      <point x="523.4246791423163" y="1454.8388876395552"/>
      <point x="701" y="1473" type="qcurve"/>
      <point x="741" y="1688" type="line"/>
      <point x="898" y="1688" type="line"/>
      <point x="858" y="1469" type="line"/>
      <point x="1034.4079604638546" y="1434.9211894558462"/>
      <point x="1179.981541912664" y="1172.612380165949"/>
      <point x="1172" y="1005" type="qcurve"/>
      <point x="901" y="1005" type="line"/>
      <point x="905.0229854862087" y="1091.4941879534856"/>
      <point x="842.4091676430712" y="1248.0113621607104"/>
      <point x="739" y="1250" type="qcurve" smooth="yes"/>
      <point x="650.2457033204928" y="1252.0171431063523"/>
      <point x="530.8988749592145" y="1150.2584163675729"/>
      <point x="519" y="1063" type="qcurve" smooth="yes"/>
      <point x="513" y="1016"/>
      <point x="541" y="949"/>
      <point x="567.0" y="924.5" type="qcurve" smooth="yes" name="inserted"/>
      <point x="593" y="900"/>
      <point x="663" y="863"/>
      <point x="701" y="847" type="qcurve" smooth="yes"/>
      <point x="778" y="814"/>
      <point x="918" y="733"/>
      <point x="970.0" y="679.5" type="qcurve" smooth="yes" name="inserted"/>
      <point x="1022" y="626"/>
      <point x="1078" y="485"/>
      <point x="1072" y="391" type="qcurve" smooth="yes"/>
      <point x="1059.892934041502" y="197.28694466403414"/>
      <point x="792.4396974961354" y="0.8422166007327974"/>
      <point x="616" y="-17" type="qcurve"/>
      <point x="580" y="-213" type="line"/>
      <point x="424" y="-213" type="line"/>
      <point x="461" y="-15" type="line"/>
      <point x="271.2593418931574" y="10.964511109357403"/>
      <point x="88.98905045000363" y="267.7454229625844"/>
      <point x="97" y="454" type="qcurve"/>
      <point x="369" y="453" type="line"/>
      <point x="363.0403304378844" y="351.68561744403365"/>
      <point x="449.2369065282044" y="205.01362666913923"/>
      <point x="562" y="203" type="qcurve" smooth="yes"/>
      <point x="649.3745334286162" y="201.01421514934964"/>
      <point x="791.9134791977768" y="296.3366738496219"/>
    </contour>
  </outline>
</glyph>
<glyph name="ampersand" format="2">
  <advance width="1202"/>
  <unicode hex="0026"/>
  <outline>
    <contour>
      <point x="37" y="364" type="qcurve" smooth="yes"/>
      <point x="42" y="437"/>
      <point x="97" y="555"/>
      <point x="140" y="605" type="qcurve" smooth="yes" name="inserted"/>
      <point x="175" y="645"/>
      <point x="261" y="713"/>
      <point x="307" y="743" type="qcurve"/>
      <point x="350" y="770" type="line"/>
      <point x="334" y="809"/>
      <point x="306" y="888"/>
      <point x="296" y="928" type="qcurve" smooth="yes" name="inserted"/>
      <point x="286" y="968"/>
      <point x="277" y="1050"/>
      <point x="281" y="1093" type="qcurve" smooth="yes"/>
      <point x="295" y="1263"/>
      <point x="525" y="1481"/>
      <point x="699" y="1477" type="qcurve" smooth="yes"/>
      <point x="833" y="1473"/>
      <point x="998" y="1280"/>
      <point x="990" y="1148" type="qcurve" smooth="yes"/>
      <point x="984.0" y="1033.9999999999998"/>
      <point x="837.0" y="878.0000000000001"/>
      <point x="751" y="818" type="qcurve" smooth="yes"/>
      <point x="650" y="745" type="line"/>
      <point x="833" y="436" type="line"/>
      <point x="878" y="499"/>
      <point x="933" y="632"/>
      <point x="943" y="708" type="qcurve"/>
      <point x="1174" y="708" type="line"/>
      <point x="1162" y="572"/>
      <point x="1058" y="334"/>
      <point x="960" y="238" type="qcurve"/>
      <point x="1098" y="0" type="line"/>
      <point x="805" y="0" type="line"/>
      <point x="758" y="81" type="line"/>
      <point x="678" y="33"/>
      <point x="509" y="-22"/>
      <point x="414" y="-20" type="qcurve" smooth="yes"/>
      <point x="245" y="-18"/>
      <point x="25" y="191"/>
    </contour>
    <contour>
      <point x="440" y="203" type="qcurve" smooth="yes"/>
      <point x="495" y="201"/>
      <point x="597" y="234"/>
      <point x="646" y="257" type="qcurve"/>
      <point x="454" y="598" type="line"/>
      <point x="443" y="591" type="line"/>
      <point x="419" y="572"/>
      <point x="376" y="524"/>
      <point x="359.0" y="497.0" type="qcurve" smooth="yes" name="inserted"/>
      <point x="342" y="470"/>
      <point x="319" y="410"/>
      <point x="315" y="379" type="qcurve" smooth="yes"/>
      <point x="307.0752266111473" y="313.6206195419653"/>
      <point x="365.29081647863893" y="205.01916712219895"/>
    </contour>
    <contour>
      <point x="518" y="1094" type="qcurve" smooth="yes"/>
      <point x="514" y="1066"/>
      <point x="520" y="1012"/>
      <point x="528" y="986" type="qcurve" smooth="yes"/>
      <point x="533" y="968"/>
      <point x="546" y="932"/>
      <point x="553" y="914" type="qcurve"/>
      <point x="655" y="983" type="line" smooth="yes"/>
      <point x="694" y="1012"/>
      <point x="748" y="1081"/>
      <point x="752" y="1132" type="qcurve" smooth="yes"/>
      <point x="754" y="1170"/>
      <point x="727" y="1251"/>
      <point x="678" y="1253" type="qcurve" smooth="yes"/>
      <point x="609" y="1255"/>
      <point x="526" y="1153"/>
    </contour>
  </outline>
</glyph>
<glyph name="parenright" format="2">
  <advance width="1202"/>
  <unicode hex="0029"/>
  <outline>
    <contour>
      <point x="851" y="574" type="line" smooth="yes"/>
      <point x="830.7538826567264" y="433.7233298358899"/>
      <point x="738.5520254109153" y="131.13848118514952"/>
      <point x="664" y="-5" type="qcurve" smooth="yes"/>
      <point x="585.1078389960701" y="-154.33159047172452"/>
      <point x="352.3677475356228" y="-395.4424984643244"/>
      <point x="202" y="-459" type="qcurve"/>
      <point x="163" y="-306" type="line"/>
      <point x="266" y="-228"/>
      <point x="416" y="-28"/>
      <point x="469" y="86" type="qcurve" smooth="yes" name="inserted"/>
      <point x="521" y="200"/>
      <point x="586" y="446"/>
      <point x="604" y="570" type="qcurve" smooth="yes"/>
      <point x="608" y="595" type="line" smooth="yes"/>
      <point x="617" y="661"/>
      <point x="631" y="814"/>
      <point x="632" y="895" type="qcurve" smooth="yes" name="inserted"/>
      <point x="632" y="976"/>
      <point x="616" y="1140"/>
      <point x="595" y="1216" type="qcurve" smooth="yes" name="inserted"/>
      <point x="573" y="1291"/>
      <point x="499" y="1422"/>
      <point x="442" y="1471" type="qcurve"/>
      <point x="506" y="1619" type="line"/>
      <point x="590" y="1572"/>
      <point x="713" y="1431"/>
      <point x="756" y="1346" type="qcurve" smooth="yes" name="inserted"/>
      <point x="798" y="1260"/>
      <point x="847" y="1069"/>
      <point x="858" y="971" type="qcurve" smooth="yes" name="inserted"/>
      <point x="869" y="873"/>
      <point x="865" y="682"/>
      <point x="854" y="597" type="qcurve" smooth="yes"/>
    </contour>
  </outline>
</glyph>
<glyph name="asterisk" format="2">
  <advance width="1202"/>
  <unicode hex="002A"/>
  <outline>
    <contour>
      <point x="522" y="894" type="line"/>
      <point x="158" y="990" type="line"/>
      <point x="252" y="1188" type="line"/>
      <point x="595" y="1020" type="line"/>
      <point x="628" y="1456" type="line"/>
      <point x="842" y="1456" type="line"/>
      <point x="737" y="1025" type="line"/>
      <point x="1117" y="1184" type="line"/>
      <point x="1149" y="968" type="line"/>
      <point x="746" y="877" type="line"/>
      <point x="959" y="549" type="line"/>
      <point x="774" y="427" type="line"/>
      <point x="628" y="799" type="line"/>
      <point x="368" y="442" type="line"/>
      <point x="205" y="572" type="line"/>
    </contour>
  </outline>
</glyph>
<glyph name="plus" format="2">
  <advance width="1202"/>
  <unicode hex="002B"/>
  <outline>
    <contour>
      <point x="747" y="812" type="line"/>
      <point x="1102" y="812" type="line"/>
      <point x="1058" y="558" type="line"/>
      <point x="703" y="558" type="line"/>
      <point x="631" y="146" type="line"/>
      <point x="373" y="146" type="line"/>
      <point x="444" y="558" type="line"/>
      <point x="88" y="558" type="line"/>
      <point x="132" y="812" type="line"/>
      <point x="488" y="812" type="line"/>
      <point x="557" y="1206" type="line"/>
      <point x="815" y="1206" type="line"/>
    </contour>
  </outline>
</glyph>
<glyph name="hyphen" format="2">
  <advance width="1202"/>
  <unicode hex="002D"/>
  <outline>
    <contour>
      <point x="1070" y="530" type="line"/>
      <point x="261" y="530" type="line"/>
      <point x="300" y="755" type="line"/>
      <point x="1110" y="755" type="line"/>
    </contour>
  </outline>
</glyph>
<glyph name="period" format="2">
  <advance width="1202"/>
  <unicode hex="002E"/>
  <outline>
    <contour>
      <point x="334" y="154" type="qcurve" smooth="yes"/>
      <point x="334.0" y="236.38461538461533"/>
      <point x="442.35999999999996" y="346.0"/>
      <point x="526" y="346" type="qcurve" smooth="yes"/>
      <point x="604.820774950358" y="346.0"/>
      <point x="708.0" y="245.19614263901522"/>
      <point x="708" y="168" type="qcurve" smooth="yes"/>
      <point x="708.0" y="85.17196155686953"/>
      <point x="595.2081498688912" y="-21.0"/>
      <point x="516" y="-21" type="qcurve" smooth="yes"/>
      <point x="437.1446733945947" y="-21.0"/>
      <point x="334.0" y="76.83697062480685"/>
    </contour>
  </outline>
</glyph>
<glyph name="zero" format="2">
  <advance width="1202"/>
  <unicode hex="0030"/>
  <outline>
    <contour>
      <point x="1052" y="555" type="line" smooth="yes"/>
      <point x="1040" y="476"/>
      <point x="995" y="325"/>
      <point x="961" y="259" type="qcurve" smooth="yes"/>
      <point x="928" y="195"/>
      <point x="838" y="89"/>
      <point x="781" y="52" type="qcurve" smooth="yes"/>
      <point x="726" y="16"/>
      <point x="590" y="-23"/>
      <point x="509" y="-21" type="qcurve" smooth="yes"/>
      <point x="388" y="-18"/>
      <point x="230" y="84"/>
      <point x="187" y="165" type="qcurve" smooth="yes" name="inserted"/>
      <point x="163" y="209"/>
      <point x="134" y="311"/>
      <point x="129" y="365" type="qcurve" smooth="yes"/>
      <point x="124" y="410"/>
      <point x="126" y="506"/>
      <point x="132" y="554" type="qcurve" smooth="yes"/>
      <point x="186" y="902" type="line" smooth="yes"/>
      <point x="202" y="1014"/>
      <point x="281" y="1224"/>
      <point x="347" y="1305" type="qcurve" smooth="yes" name="inserted"/>
      <point x="373" y="1336"/>
      <point x="434" y="1390"/>
      <point x="468" y="1412" type="qcurve" smooth="yes"/>
      <point x="522" y="1444"/>
      <point x="652" y="1479"/>
      <point x="729" y="1477" type="qcurve" smooth="yes"/>
      <point x="810" y="1475"/>
      <point x="933" y="1427"/>
      <point x="978" y="1387" type="qcurve" smooth="yes" name="inserted"/>
      <point x="1023" y="1346"/>
      <point x="1081" y="1237"/>
      <point x="1096" y="1174" type="qcurve" smooth="yes" name="inserted"/>
      <point x="1111" y="1111"/>
      <point x="1116" y="972"/>
      <point x="1107" y="902" type="qcurve" smooth="yes"/>
    </contour>
    <contour>
      <point x="706" y="1253" type="qcurve" smooth="yes"/>
      <point x="666" y="1255"/>
      <point x="603" y="1232"/>
      <point x="578" y="1212" type="qcurve" smooth="yes"/>
      <point x="564" y="1200"/>
      <point x="540" y="1170"/>
      <point x="530" y="1154" type="qcurve" smooth="yes" name="inserted"/>
      <point x="502" y="1108"/>
      <point x="473" y="998"/>
      <point x="466" y="947" type="qcurve" smooth="yes"/>
      <point x="433" y="740" type="line" smooth="yes"/>
      <point x="427" y="703"/>
      <point x="425" y="689"/>
      <point x="424" y="684" type="qcurve"/>
      <point x="842" y="966" type="line"/>
      <point x="847" y="1009"/>
      <point x="848" y="1107"/>
      <point x="836" y="1150" type="qcurve" smooth="yes" name="inserted"/>
      <point x="823" y="1193"/>
      <point x="763" y="1251"/>
    </contour>
    <contour>
      <point x="531" y="202" type="qcurve" smooth="yes"/>
      <point x="568" y="200"/>
      <point x="626" y="216"/>
      <point x="651" y="236" type="qcurve" smooth="yes"/>
      <point x="679" y="259"/>
      <point x="722" y="323"/>
      <point x="735" y="358" type="qcurve" smooth="yes"/>
      <point x="749" y="395"/>
      <point x="767" y="474"/>
      <point x="773" y="511" type="qcurve" smooth="yes"/>
      <point x="803" y="701" type="line" smooth="yes"/>
      <point x="806" y="720"/>
      <point x="809" y="744"/>
      <point x="813" y="764" type="qcurve"/>
      <point x="392" y="481" type="line"/>
      <point x="388" y="439"/>
      <point x="389" y="343"/>
      <point x="402" y="302" type="qcurve" smooth="yes" name="inserted"/>
      <point x="415" y="260"/>
      <point x="475" y="204"/>
    </contour>
  </outline>
</glyph>
<glyph name="two" format="2">
  <advance width="1202"/>
  <unicode hex="0032"/>
  <outline>
    <contour>
      <point x="967" y="0" type="line"/>
      <point x="3" y="0" type="line"/>
      <point x="34" y="200" type="line"/>
      <point x="560" y="697" type="line" smooth="yes"/>
      <point x="595" y="731"/>
      <point x="677" y="809"/>
      <point x="713.5" y="853.5" type="qcurve" smooth="yes" name="inserted"/>
      <point x="750" y="898"/>
      <point x="803" y="994"/>
      <point x="810" y="1046" type="qcurve" smooth="yes"/>
      <point x="815" y="1086"/>
      <point x="802" y="1157"/>
      <point x="783.5" y="1184.0" type="qcurve" smooth="yes" name="inserted"/>
      <point x="765" y="1211"/>
      <point x="704" y="1244"/>
      <point x="661" y="1246" type="qcurve" smooth="yes"/>
      <point x="604" y="1247"/>
      <point x="515" y="1211"/>
      <point x="483.5" y="1178.0" type="qcurve" smooth="yes" name="inserted"/>
      <point x="452" y="1145"/>
      <point x="414" y="1055"/>
      <point x="407" y="1002" type="qcurve"/>
      <point x="136" y="1001" type="line"/>
      <point x="144" y="1108"/>
      <point x="241" y="1284"/>
      <point x="316.5" y="1347.0" type="qcurve" smooth="yes" name="inserted"/>
      <point x="392" y="1410"/>
      <point x="584" y="1478"/>
      <point x="689" y="1476" type="qcurve" smooth="yes"/>
      <point x="782" y="1474"/>
      <point x="934" y="1414"/>
      <point x="986.5" y="1359.5" type="qcurve" smooth="yes" name="inserted"/>
      <point x="1039" y="1305"/>
      <point x="1090" y="1152"/>
      <point x="1082" y="1057" type="qcurve" smooth="yes"/>
      <point x="1075" y="971"/>
      <point x="999" y="820"/>
      <point x="944.0" y="753.5" type="qcurve" smooth="yes" name="inserted"/>
      <point x="889" y="687"/>
      <point x="761" y="568"/>
      <point x="702" y="513" type="qcurve" smooth="yes"/>
      <point x="391" y="223" type="line"/>
      <point x="1003" y="223" type="line"/>
    </contour>
  </outline>
</glyph>
<glyph name="three" format="2">
  <advance width="1202"/>
  <unicode hex="0033"/>
  <outline>
    <contour>
      <point x="451" y="850" type="line"/>
      <point x="586" y="849" type="line" smooth="yes"/>
      <point x="637" y="849"/>
      <point x="727" y="878"/>
      <point x="762" y="905" type="qcurve" smooth="yes" name="inserted"/>
      <point x="797" y="932"/>
      <point x="842" y="1013"/>
      <point x="849" y="1066" type="qcurve" smooth="yes"/>
      <point x="855" y="1113"/>
      <point x="833" y="1187"/>
      <point x="808" y="1211" type="qcurve" smooth="yes"/>
      <point x="788" y="1231"/>
      <point x="729" y="1252"/>
      <point x="691" y="1253" type="qcurve" smooth="yes"/>
      <point x="649" y="1254"/>
      <point x="575" y="1230"/>
      <point x="546" y="1208" type="qcurve" smooth="yes" name="inserted"/>
      <point x="517" y="1185"/>
      <point x="477" y="1120"/>
      <point x="469" y="1079" type="qcurve"/>
      <point x="199" y="1077" type="line"/>
      <point x="206" y="1174"/>
      <point x="297" y="1324"/>
      <point x="367" y="1375" type="qcurve" smooth="yes" name="inserted"/>
      <point x="437" y="1426"/>
      <point x="611" y="1478"/>
      <point x="703" y="1476" type="qcurve" smooth="yes"/>
      <point x="795" y="1474"/>
      <point x="955" y="1421"/>
      <point x="1013" y="1370" type="qcurve" smooth="yes" name="inserted"/>
      <point x="1071" y="1318"/>
      <point x="1131" y="1168"/>
      <point x="1123" y="1069" type="qcurve" smooth="yes"/>
      <point x="1118" y="1009"/>
      <point x="1073" y="910"/>
      <point x="1038" y="870" type="qcurve" smooth="yes" name="inserted"/>
      <point x="1002" y="829"/>
      <point x="911" y="765"/>
      <point x="860" y="741" type="qcurve"/>
      <point x="908" y="718"/>
      <point x="975" y="650"/>
      <point x="996" y="608" type="qcurve" smooth="yes" name="inserted"/>
      <point x="1017" y="565"/>
      <point x="1033" y="468"/>
      <point x="1029" y="416" type="qcurve" smooth="yes"/>
      <point x="1021" y="308"/>
      <point x="924" y="144"/>
      <point x="848" y="89" type="qcurve" smooth="yes" name="inserted"/>
      <point x="772" y="33"/>
      <point x="581" y="-22"/>
      <point x="480" y="-20" type="qcurve" smooth="yes"/>
      <point x="387" y="-18"/>
      <point x="228" y="40"/>
      <point x="171" y="94" type="qcurve" smooth="yes" name="inserted"/>
      <point x="114" y="147"/>
      <point x="52" y="300"/>
      <point x="55" y="397" type="qcurve"/>
      <point x="324" y="396" type="line"/>
      <point x="323" y="355"/>
      <point x="345" y="286"/>
      <point x="366" y="261" type="qcurve" smooth="yes"/>
      <point x="389" y="235"/>
      <point x="459" y="205"/>
      <point x="504" y="203" type="qcurve" smooth="yes"/>
      <point x="554" y="202"/>
      <point x="642" y="232"/>
      <point x="677" y="260" type="qcurve" smooth="yes" name="inserted"/>
      <point x="711" y="288"/>
      <point x="756" y="369"/>
      <point x="762" y="419" type="qcurve" smooth="yes"/>
      <point x="768" y="467"/>
      <point x="752" y="543"/>
      <point x="730" y="570" type="qcurve" smooth="yes"/>
      <point x="707" y="599"/>
      <point x="628" y="631"/>
      <point x="575" y="633" type="qcurve" smooth="yes"/>
      <point x="413" y="634" type="line"/>
    </contour>
  </outline>
</glyph>
<glyph name="four" format="2">
  <advance width="1202"/>
  <unicode hex="0034"/>
  <outline>
    <contour>
      <point x="915" y="541" type="line"/>
      <point x="1079" y="541" type="line"/>
      <point x="1040" y="316" type="line"/>
      <point x="876" y="316" type="line"/>
      <point x="821" y="0" type="line"/>
      <point x="550" y="0" type="line"/>
      <point x="605" y="316" type="line"/>
      <point x="19" y="316" type="line"/>
      <point x="40" y="502" type="line"/>
      <point x="791" y="1456" type="line"/>
      <point x="1074" y="1456" type="line"/>
    </contour>
    <contour>
      <point x="320" y="541" type="line"/>
      <point x="644" y="541" type="line"/>
      <point x="746" y="1085" type="line"/>
      <point x="711" y="1034" type="line"/>
    </contour>
  </outline>
</glyph>
<glyph name="five" format="2">
  <advance width="1202"/>
  <unicode hex="0035"/>
  <outline>
    <contour>
      <point x="169" y="721" type="line"/>
      <point x="377" y="1456" type="line"/>
      <point x="1164" y="1456" type="line"/>
      <point x="1123" y="1220" type="line"/>
      <point x="564" y="1220" type="line"/>
      <point x="464" y="898" type="line"/>
      <point x="512" y="928"/>
      <point x="621" y="956"/>
      <point x="677" y="955" type="qcurve" smooth="yes"/>
      <point x="781" y="954"/>
      <point x="927" y="873"/>
      <point x="971.5" y="806.5" type="qcurve" smooth="yes" name="inserted"/>
      <point x="1016" y="740"/>
      <point x="1049" y="566"/>
      <point x="1040" y="472" type="qcurve" smooth="yes"/>
      <point x="1029" y="364"/>
      <point x="941" y="181"/>
      <point x="870.5" y="115.0" type="qcurve" smooth="yes" name="inserted"/>
      <point x="800" y="49"/>
      <point x="612" y="-23"/>
      <point x="502" y="-20" type="qcurve" smooth="yes"/>
      <point x="409" y="-18"/>
      <point x="253" y="44"/>
      <point x="196.0" y="99.5" type="qcurve" smooth="yes" name="inserted"/>
      <point x="139" y="155"/>
      <point x="76" y="309"/>
      <point x="76" y="403" type="qcurve"/>
      <point x="341" y="403" type="line"/>
      <point x="343" y="361"/>
      <point x="367" y="289"/>
      <point x="389.0" y="262.0" type="qcurve" smooth="yes" name="inserted"/>
      <point x="411" y="235"/>
      <point x="477" y="203"/>
      <point x="522" y="202" type="qcurve" smooth="yes"/>
      <point x="583" y="200"/>
      <point x="671" y="250"/>
      <point x="700.5" y="291.0" type="qcurve" smooth="yes" name="inserted"/>
      <point x="730" y="332"/>
      <point x="763" y="435"/>
      <point x="769" y="488" type="qcurve" smooth="yes"/>
      <point x="774" y="537"/>
      <point x="762" y="628"/>
      <point x="741.0" y="663.0" type="qcurve" smooth="yes" name="inserted"/>
      <point x="720" y="698"/>
      <point x="646" y="741"/>
      <point x="590" y="742" type="qcurve" smooth="yes"/>
      <point x="530" y="743"/>
      <point x="434" y="702"/>
      <point x="390" y="664" type="qcurve"/>
    </contour>
  </outline>
</glyph>
<glyph name="six" format="2">
  <advance width="1202"/>
  <unicode hex="0036"/>
  <outline>
    <contour>
      <point x="983" y="1469" type="line"/>
      <point x="959" y="1237" type="line"/>
      <point x="947" y="1238" type="line"/>
      <point x="883" y="1239"/>
      <point x="768" y="1217"/>
      <point x="719" y="1197" type="qcurve" smooth="yes"/>
      <point x="648.2965804474784" y="1167.3501788973294"/>
      <point x="533.5197292508971" y="1070.1084101212919"/>
      <point x="489" y="1006" type="qcurve" smooth="yes"/>
      <point x="464" y="968"/>
      <point x="421" y="881"/>
      <point x="404" y="833" type="qcurve"/>
      <point x="436" y="866"/>
      <point x="508" y="920"/>
      <point x="549" y="938" type="qcurve" smooth="yes"/>
      <point x="584" y="954"/>
      <point x="662" y="971"/>
      <point x="704" y="971" type="qcurve" smooth="yes"/>
      <point x="804" y="969"/>
      <point x="942" y="883"/>
      <point x="983" y="814" type="qcurve" smooth="yes" name="inserted"/>
      <point x="1024" y="745"/>
      <point x="1055" y="573"/>
      <point x="1047" y="486" type="qcurve" smooth="yes"/>
      <point x="1038" y="380"/>
      <point x="951" y="193"/>
      <point x="881" y="124" type="qcurve" smooth="yes" name="inserted"/>
      <point x="811" y="55"/>
      <point x="624" y="-23"/>
      <point x="514" y="-20" type="qcurve" smooth="yes"/>
      <point x="395" y="-17"/>
      <point x="227" y="84"/>
      <point x="176" y="165" type="qcurve" smooth="yes" name="inserted"/>
      <point x="124" y="246"/>
      <point x="85" y="450"/>
      <point x="97" y="557" type="qcurve" smooth="yes"/>
      <point x="111" y="664" type="line" smooth="yes"/>
      <point x="127" y="779"/>
      <point x="198" y="990"/>
      <point x="253" y="1080" type="qcurve" smooth="yes"/>
      <point x="321.95862068477265" y="1191.394694952325"/>
      <point x="516.3970139616321" y="1364.23775886767"/>
      <point x="640" y="1414" type="qcurve" smooth="yes"/>
      <point x="707" y="1440"/>
      <point x="858" y="1469"/>
      <point x="941" y="1469" type="qcurve" smooth="yes"/>
    </contour>
    <contour>
      <point x="610" y="749" type="qcurve" smooth="yes"/>
      <point x="572" y="750"/>
      <point x="504" y="728"/>
      <point x="474.5" y="708.5" type="qcurve" smooth="yes" name="inserted"/>
      <point x="445" y="689"/>
      <point x="395" y="636"/>
      <point x="376" y="606" type="qcurve"/>
      <point x="365" y="522" type="line" smooth="yes"/>
      <point x="362" y="491"/>
      <point x="361" y="421"/>
      <point x="365.0" y="385.5" type="qcurve" smooth="yes" name="inserted"/>
      <point x="369" y="350"/>
      <point x="391" y="285"/>
      <point x="410.0" y="260.0" type="qcurve" smooth="yes" name="inserted"/>
      <point x="429" y="235"/>
      <point x="487" y="204"/>
      <point x="528" y="203" type="qcurve" smooth="yes"/>
      <point x="585" y="201"/>
      <point x="673" y="251"/>
      <point x="704.5" y="291.5" type="qcurve" smooth="yes" name="inserted"/>
      <point x="736" y="332"/>
      <point x="772" y="433"/>
      <point x="777" y="483" type="qcurve" smooth="yes"/>
      <point x="781" y="527"/>
      <point x="770" y="620"/>
      <point x="751.0" y="658.5" type="qcurve" smooth="yes" name="inserted"/>
      <point x="732" y="697"/>
      <point x="663" y="747"/>
    </contour>
  </outline>
</glyph>
<glyph name="seven" format="2">
  <advance width="1202"/>
  <unicode hex="0037"/>
  <outline>
    <contour>
      <point x="1168" y="1289" type="line"/>
      <point x="421" y="0" type="line"/>
      <point x="125" y="0" type="line"/>
      <point x="868" y="1229" type="line"/>
      <point x="164" y="1229" type="line"/>
      <point x="200" y="1456" type="line"/>
      <point x="1194" y="1456" type="line"/>
    </contour>
  </outline>
</glyph>
<glyph name="nine" format="2">
  <advance width="1202"/>
  <unicode hex="0039"/>
  <outline>
    <contour>
      <point x="253" y="220" type="line"/>
      <point x="313" y="219"/>
      <point x="421" y="235"/>
      <point x="468" y="251" type="qcurve" smooth="yes"/>
      <point x="524" y="270"/>
      <point x="618" y="333"/>
      <point x="657" y="376" type="qcurve" smooth="yes"/>
      <point x="691" y="415"/>
      <point x="748" y="515"/>
      <point x="770" y="575" type="qcurve"/>
      <point x="744" y="551"/>
      <point x="686" y="513"/>
      <point x="656" y="501" type="qcurve" smooth="yes"/>
      <point x="621" y="486"/>
      <point x="544" y="472"/>
      <point x="502" y="473" type="qcurve" smooth="yes"/>
      <point x="402" y="474"/>
      <point x="261" y="558"/>
      <point x="218" y="626" type="qcurve" smooth="yes" name="inserted"/>
      <point x="175" y="694"/>
      <point x="142" y="866"/>
      <point x="150" y="955" type="qcurve" smooth="yes"/>
      <point x="156" y="1025"/>
      <point x="199" y="1158"/>
      <point x="234" y="1217" type="qcurve" smooth="yes" name="inserted"/>
      <point x="268" y="1275"/>
      <point x="362" y="1372"/>
      <point x="419" y="1407" type="qcurve" smooth="yes" name="inserted"/>
      <point x="476" y="1441"/>
      <point x="609" y="1478"/>
      <point x="683" y="1476" type="qcurve" smooth="yes"/>
      <point x="764" y="1474"/>
      <point x="890" y="1424"/>
      <point x="937" y="1381" type="qcurve" smooth="yes" name="inserted"/>
      <point x="983" y="1338"/>
      <point x="1046" y="1223"/>
      <point x="1064" y="1158" type="qcurve" smooth="yes" name="inserted"/>
      <point x="1081" y="1093"/>
      <point x="1089" y="951"/>
      <point x="1082" y="882" type="qcurve" smooth="yes"/>
      <point x="1070" y="786" type="line" smooth="yes"/>
      <point x="1047" y="613"/>
      <point x="918" y="321"/>
      <point x="814" y="215" type="qcurve" smooth="yes" name="inserted"/>
      <point x="709" y="108"/>
      <point x="421" y="-12"/>
      <point x="240" y="-13" type="qcurve" smooth="yes"/>
      <point x="214" y="-13" type="line"/>
      <point x="238" y="221" type="line"/>
    </contour>
    <contour>
      <point x="581" y="686" type="qcurve" smooth="yes"/>
      <point x="618" y="685"/>
      <point x="684" y="707"/>
      <point x="712" y="727" type="qcurve" smooth="yes" name="inserted"/>
      <point x="740" y="746"/>
      <point x="786" y="800"/>
      <point x="804" y="831" type="qcurve"/>
      <point x="817" y="932" type="line" smooth="yes"/>
      <point x="820" y="957"/>
      <point x="822" y="1017"/>
      <point x="820" y="1047" type="qcurve" smooth="yes"/>
      <point x="817.8027171434735" y="1095.3402228435816"/>
      <point x="788.1988168521183" y="1186.6364076685945"/>
      <point x="757" y="1216" type="qcurve" smooth="yes"/>
      <point x="740" y="1232"/>
      <point x="694" y="1251"/>
      <point x="664" y="1252" type="qcurve" smooth="yes"/>
      <point x="607" y="1253"/>
      <point x="521" y="1198"/>
      <point x="491" y="1155" type="qcurve" smooth="yes" name="inserted"/>
      <point x="461" y="1111"/>
      <point x="427" y="1007"/>
      <point x="422" y="959" type="qcurve" smooth="yes"/>
      <point x="417" y="915"/>
      <point x="426" y="820"/>
      <point x="444" y="781" type="qcurve" smooth="yes" name="inserted"/>
      <point x="461" y="741"/>
      <point x="527" y="687"/>
    </contour>
  </outline>
</glyph>
<glyph name="less" format="2">
  <advance width="1202"/>
  <unicode hex="003C"/>
  <outline>
    <contour>
      <point x="136" y="517" type="line"/>
      <point x="175" y="741" type="line"/>
      <point x="1099" y="1109" type="line"/>
      <point x="1057" y="833" type="line"/>
      <point x="500" y="647" type="line"/>
      <point x="417" y="618" type="line"/>
      <point x="466" y="598" type="line"/>
      <point x="978" y="410" type="line"/>
      <point x="933" y="149" type="line"/>
    </contour>
  </outline>
</glyph>
<glyph name="question" format="2">
  <advance width="1202"/>
  <unicode hex="003F"/>
  <outline>
    <contour>
      <point x="466" y="441" type="line"/>
      <point x="476" y="557"/>
      <point x="539" y="711"/>
      <point x="634" y="786" type="qcurve" smooth="yes"/>
      <point x="668" y="813"/>
      <point x="746" y="878"/>
      <point x="781" y="916" type="qcurve" smooth="yes" name="inserted"/>
      <point x="815" y="953"/>
      <point x="866" y="1037"/>
      <point x="873" y="1083" type="qcurve" smooth="yes"/>
      <point x="880" y="1128"/>
      <point x="861" y="1194"/>
      <point x="837" y="1215" type="qcurve" smooth="yes"/>
      <point x="818" y="1232"/>
      <point x="762" y="1250"/>
      <point x="726" y="1251" type="qcurve" smooth="yes"/>
      <point x="684" y="1252"/>
      <point x="613" y="1227"/>
      <point x="586" y="1204" type="qcurve" smooth="yes" name="inserted"/>
      <point x="559" y="1181"/>
      <point x="523" y="1116"/>
      <point x="515" y="1076" type="qcurve"/>
      <point x="243" y="1075" type="line"/>
      <point x="252" y="1176"/>
      <point x="339" y="1328"/>
      <point x="407" y="1379" type="qcurve" smooth="yes" name="inserted"/>
      <point x="474" y="1429"/>
      <point x="648" y="1479"/>
      <point x="745" y="1477" type="qcurve" smooth="yes"/>
      <point x="834" y="1475"/>
      <point x="989" y="1428"/>
      <point x="1046" y="1381" type="qcurve" smooth="yes" name="inserted"/>
      <point x="1102" y="1334"/>
      <point x="1161" y="1191"/>
      <point x="1153" y="1094" type="qcurve" smooth="yes"/>
      <point x="1147" y="1018"/>
      <point x="1084" y="897"/>
      <point x="1038" y="846" type="qcurve" smooth="yes" name="inserted"/>
      <point x="992" y="795"/>
      <point x="881" y="706"/>
      <point x="827" y="663" type="qcurve" smooth="yes"/>
      <point x="768" y="614"/>
      <point x="716" y="512"/>
      <point x="706" y="442" type="qcurve"/>
    </contour>
    <contour>
      <point x="365" y="133" type="qcurve" smooth="yes"/>
      <point x="365.0" y="200.23625671357377"/>
      <point x="454.21870648784926" y="295.0"/>
      <point x="523" y="295" type="qcurve" smooth="yes"/>
      <point x="589.0" y="296.99999999999994"/>
      <point x="680.0" y="211.0"/>
      <point x="680" y="145" type="qcurve" smooth="yes"/>
      <point x="680.0" y="74.15697805398904"/>
      <point x="588.2003256252347" y="-13.0"/>
      <point x="521" y="-13" type="qcurve" smooth="yes"/>
      <point x="455.7742431358132" y="-14.976538086793537"/>
      <point x="365.0" y="66.20715520850244"/>
    </contour>
  </outline>
</glyph>
<glyph name="at" format="2">
  <advance width="1202"/>
  <unicode hex="0040"/>
  <outline>
    <contour>
      <point x="1174" y="830" type="qcurve" smooth="yes"/>
      <point x="1167" y="783"/>
      <point x="1144" y="668"/>
      <point x="1125" y="610" type="qcurve" smooth="yes" name="inserted"/>
      <point x="1106" y="551"/>
      <point x="1052" y="439"/>
      <point x="1015" y="397" type="qcurve" smooth="yes" name="inserted"/>
      <point x="977" y="354"/>
      <point x="880" y="303"/>
      <point x="819" y="304" type="qcurve" smooth="yes"/>
      <point x="768" y="306"/>
      <point x="693" y="356"/>
      <point x="675" y="404" type="qcurve"/>
      <point x="659" y="386"/>
      <point x="623" y="354"/>
      <point x="603" y="339" type="qcurve" smooth="yes"/>
      <point x="583" y="324"/>
      <point x="534" y="308"/>
      <point x="506" y="307" type="qcurve" smooth="yes"/>
      <point x="461" y="307"/>
      <point x="397" y="339"/>
      <point x="376" y="367" type="qcurve" smooth="yes"/>
      <point x="356.5" y="391.0"/>
      <point x="335.0" y="456.00000000000006"/>
      <point x="329" y="492" type="qcurve" smooth="yes"/>
      <point x="322" y="541"/>
      <point x="327" y="643"/>
      <point x="334" y="684" type="qcurve" smooth="yes"/>
      <point x="343" y="736"/>
      <point x="376" y="845"/>
      <point x="401" y="896" type="qcurve" smooth="yes" name="inserted"/>
      <point x="425" y="947"/>
      <point x="490" y="1037"/>
      <point x="532" y="1070" type="qcurve" smooth="yes" name="inserted"/>
      <point x="574" y="1103"/>
      <point x="677" y="1140"/>
      <point x="738" y="1139" type="qcurve" smooth="yes"/>
      <point x="798" y="1138"/>
      <point x="898" y="1101"/>
      <point x="942" y="1061" type="qcurve"/>
      <point x="820" y="533" type="line"/>
      <point x="818" y="519"/>
      <point x="815" y="491"/>
      <point x="817" y="480" type="qcurve" smooth="yes" name="inserted"/>
      <point x="819" y="468"/>
      <point x="835" y="452"/>
      <point x="853" y="451" type="qcurve" smooth="yes"/>
      <point x="886" y="449"/>
      <point x="935" y="491"/>
      <point x="953" y="525" type="qcurve" smooth="yes" name="inserted"/>
      <point x="971" y="559"/>
      <point x="995" y="643"/>
      <point x="1003" y="684" type="qcurve" smooth="yes" name="inserted"/>
      <point x="1011" y="725"/>
      <point x="1020" y="796"/>
      <point x="1023" y="816" type="qcurve" smooth="yes"/>
      <point x="1037" y="923"/>
      <point x="1024" y="1142"/>
      <point x="961" y="1212" type="qcurve" smooth="yes" name="inserted"/>
      <point x="930" y="1246"/>
      <point x="835" y="1287"/>
      <point x="767" y="1289" type="qcurve" smooth="yes"/>
      <point x="685" y="1291"/>
      <point x="547" y="1241"/>
      <point x="490" y="1196" type="qcurve" smooth="yes" name="inserted"/>
      <point x="433" y="1150"/>
      <point x="343" y="1027"/>
      <point x="309" y="958" type="qcurve" smooth="yes" name="inserted"/>
      <point x="275" y="888"/>
      <point x="230" y="742"/>
      <point x="219" y="673" type="qcurve" smooth="yes"/>
      <point x="209" y="615"/>
      <point x="201" y="494"/>
      <point x="207" y="436" type="qcurve" smooth="yes" name="inserted"/>
      <point x="213" y="378"/>
      <point x="248" y="274"/>
      <point x="282" y="235" type="qcurve" smooth="yes" name="inserted"/>
      <point x="315" y="196"/>
      <point x="418" y="150"/>
      <point x="492" y="149" type="qcurve" smooth="yes"/>
      <point x="555" y="148"/>
      <point x="679" y="177"/>
      <point x="737" y="202" type="qcurve"/>
      <point x="759" y="64" type="line"/>
      <point x="701" y="25"/>
      <point x="559" y="-9"/>
      <point x="489" y="-7" type="qcurve" smooth="yes"/>
      <point x="391" y="-6"/>
      <point x="243" y="50"/>
      <point x="191" y="98" type="qcurve" smooth="yes" name="inserted"/>
      <point x="138" y="145"/>
      <point x="72" y="274"/>
      <point x="57" y="350" type="qcurve" smooth="yes" name="inserted"/>
      <point x="41" y="425"/>
      <point x="41" y="590"/>
      <point x="54" y="674" type="qcurve" smooth="yes"/>
      <point x="68" y="764"/>
      <point x="129" y="949"/>
      <point x="176" y="1035" type="qcurve" smooth="yes" name="inserted"/>
      <point x="222" y="1121"/>
      <point x="345" y="1272"/>
      <point x="421" y="1328" type="qcurve" smooth="yes" name="inserted"/>
      <point x="497" y="1383"/>
      <point x="676" y="1444"/>
      <point x="778" y="1442" type="qcurve" smooth="yes"/>
      <point x="862" y="1440"/>
      <point x="991" y="1388"/>
      <point x="1039" y="1344" type="qcurve" smooth="yes" name="inserted"/>
      <point x="1134" y="1256"/>
      <point x="1194" y="974"/>
    </contour>
    <contour>
      <point x="507" y="684" type="qcurve" smooth="yes"/>
      <point x="505" y="673"/>
      <point x="498" y="631"/>
      <point x="496" y="607" type="qcurve" smooth="yes" name="inserted"/>
      <point x="492.3231961690367" y="568.3935597748856"/>
      <point x="498.6507824341281" y="505.1201990320845"/>
      <point x="514" y="481" type="qcurve" smooth="yes"/>
      <point x="519" y="473"/>
      <point x="539" y="461"/>
      <point x="552" y="460" type="qcurve" smooth="yes"/>
      <point x="568" y="459"/>
      <point x="596" y="470"/>
      <point x="609" y="479" type="qcurve" smooth="yes" name="inserted"/>
      <point x="622" y="487"/>
      <point x="644" y="508"/>
      <point x="655" y="519" type="qcurve"/>
      <point x="777" y="985" type="line"/>
      <point x="770" y="987" name="inserted"/>
      <point x="757" y="988"/>
      <point x="751" y="988" type="qcurve" smooth="yes"/>
      <point x="712" y="989"/>
      <point x="649" y="963"/>
      <point x="624" y="941" type="qcurve" smooth="yes"/>
      <point x="597.3941189186442" y="916.4407251556713"/>
      <point x="556.6882842394306" y="851.1984451871073"/>
      <point x="543" y="816" type="qcurve" smooth="yes"/>
      <point x="530" y="783"/>
      <point x="512" y="715"/>
    </contour>
  </outline>
</glyph>
<glyph name="A" format="2">
  <advance width="1202"/>
  <unicode hex="0041"/>
  <outline>
    <contour>
      <point x="774" y="304" type="line"/>
      <point x="351" y="304" type="line"/>
      <point x="215" y="0" type="line"/>
      <point x="-82" y="0" type="line"/>
      <point x="633" y="1456" type="line"/>
      <point x="882" y="1456" type="line"/>
      <point x="1084" y="0" type="line"/>
      <point x="803" y="0" type="line"/>
    </contour>
    <contour>
      <point x="460" y="543" type="line"/>
      <point x="751" y="543" type="line"/>
      <point x="700" y="1076" type="line"/>
    </contour>
  </outline>
</glyph>
<glyph name="D" format="2">
  <advance width="1202"/>
  <unicode hex="0044"/>
  <outline>
    <contour>
      <point x="17" y="0" type="line"/>
      <point x="269" y="1456" type="line"/>
      <point x="621" y="1455" type="line" smooth="yes"/>
      <point x="718" y="1453"/>
      <point x="877" y="1398"/>
      <point x="939" y="1351" type="qcurve" smooth="yes"/>
      <point x="991" y="1309"/>
      <point x="1074" y="1199"/>
      <point x="1099" y="1134" type="qcurve" smooth="yes"/>
      <point x="1129" y="1058"/>
      <point x="1148" y="881"/>
      <point x="1137" y="787" type="qcurve" smooth="yes"/>
      <point x="1120" y="667" type="line" smooth="yes"/>
      <point x="1107" y="579"/>
      <point x="1049" y="414"/>
      <point x="1006" y="343" type="qcurve" smooth="yes"/>
      <point x="958.3720268136387" y="261.63554580663276"/>
      <point x="826.614062222666" y="131.3463940743244"/>
      <point x="748" y="87" type="qcurve" smooth="yes"/>
      <point x="676" y="45"/>
      <point x="506" y="-1"/>
      <point x="411" y="0" type="qcurve" smooth="yes"/>
    </contour>
    <contour>
      <point x="506" y="1228" type="line"/>
      <point x="332" y="226" type="line"/>
      <point x="423" y="224" type="line" smooth="yes"/>
      <point x="472" y="224"/>
      <point x="559" y="245"/>
      <point x="595" y="264" type="qcurve" smooth="yes"/>
      <point x="653.7485452462014" y="295.1021710126949"/>
      <point x="740" y="389"/>
      <point x="776" y="457" type="qcurve" smooth="yes"/>
      <point x="801" y="504"/>
      <point x="832" y="612"/>
      <point x="840" y="667" type="qcurve" smooth="yes"/>
      <point x="857" y="790" type="line" smooth="yes"/>
      <point x="863" y="838"/>
      <point x="864" y="939"/>
      <point x="857" y="987" type="qcurve" smooth="yes" name="inserted"/>
      <point x="849" y="1035"/>
      <point x="814" y="1120"/>
      <point x="785" y="1153" type="qcurve" smooth="yes" name="inserted"/>
      <point x="755" y="1185"/>
      <point x="669" y="1224"/>
      <point x="610" y="1227" type="qcurve" smooth="yes"/>
    </contour>
  </outline>
</glyph>
<glyph name="E" format="2">
  <advance width="1202"/>
  <unicode hex="0045"/>
  <outline>
    <contour>
      <point x="1004" y="638" type="line"/>
      <point x="424" y="638" type="line"/>
      <point x="352" y="227" type="line"/>
      <point x="1031" y="227" type="line"/>
      <point x="991" y="0" type="line"/>
      <point x="38" y="0" type="line"/>
      <point x="291" y="1456" type="line"/>
      <point x="1241" y="1456" type="line"/>
      <point x="1201" y="1227" type="line"/>
      <point x="526" y="1227" type="line"/>
      <point x="462" y="860" type="line"/>
      <point x="1043" y="860" type="line"/>
    </contour>
  </outline>
</glyph>
<glyph name="I" format="2">
  <advance width="1202"/>
  <unicode hex="0049"/>
  <outline>
    <contour>
      <point x="335" y="1456" type="line"/>
      <point x="1154" y="1456" type="line"/>
      <point x="1114" y="1229" type="line"/>
      <point x="839" y="1229" type="line"/>
      <point x="665" y="226" type="line"/>
      <point x="941" y="226" type="line"/>
      <point x="901" y="0" type="line"/>
      <point x="82" y="0" type="line"/>
      <point x="122" y="226" type="line"/>
      <point x="390" y="226" type="line"/>
      <point x="564" y="1229" type="line"/>
      <point x="295" y="1229" type="line"/>
    </contour>
  </outline>
</glyph>
<glyph name="J" format="2">
  <advance width="1202"/>
  <unicode hex="004A"/>
  <outline>
    <contour>
      <point x="941" y="1456" type="line"/>
      <point x="1216" y="1456" type="line"/>
      <point x="1045" y="447" type="line" smooth="yes"/>
      <point x="1030" y="344"/>
      <point x="932" y="171"/>
      <point x="858.5" y="108.5" type="qcurve" smooth="yes" name="inserted"/>
      <point x="785" y="46"/>
      <point x="599" y="-22"/>
      <point x="494" y="-20" type="qcurve" smooth="yes"/>
      <point x="390" y="-19"/>
      <point x="230" y="45"/>
      <point x="176.5" y="103.5" type="qcurve" smooth="yes" name="inserted"/>
      <point x="123" y="162"/>
      <point x="71" y="327"/>
      <point x="74" y="429" type="qcurve"/>
      <point x="349" y="428" type="line"/>
      <point x="347" y="381"/>
      <point x="359" y="300"/>
      <point x="378.0" y="270.5" type="qcurve" smooth="yes" name="inserted"/>
      <point x="397" y="241"/>
      <point x="464" y="206"/>
      <point x="517" y="205" type="qcurve" smooth="yes"/>
      <point x="569" y="204"/>
      <point x="655" y="243"/>
      <point x="687.0" y="276.5" type="qcurve" smooth="yes" name="inserted"/>
      <point x="719" y="310"/>
      <point x="761" y="398"/>
      <point x="769" y="446" type="qcurve" smooth="yes"/>
    </contour>
  </outline>
</glyph>
<glyph name="K" format="2">
  <advance width="1202"/>
  <unicode hex="004B"/>
  <outline>
    <contour>
      <point x="556" y="595" type="line"/>
      <point x="368" y="418" type="line"/>
      <point x="296" y="0" type="line"/>
      <point x="20" y="0" type="line"/>
      <point x="273" y="1456" type="line"/>
      <point x="548" y="1456" type="line"/>
      <point x="434" y="803" type="line"/>
      <point x="591" y="978" type="line"/>
      <point x="1010" y="1456" type="line"/>
      <point x="1362" y="1456" type="line"/>
      <point x="763" y="800" type="line"/>
      <point x="1111" y="0" type="line"/>
      <point x="800" y="0" type="line"/>
    </contour>
  </outline>
</glyph>
<glyph name="L" format="2">
  <advance width="1202"/>
  <unicode hex="004C"/>
  <outline>
    <contour>
      <point x="355" y="227" type="line"/>
      <point x="1017" y="227" type="line"/>
      <point x="977" y="0" type="line"/>
      <point x="41" y="0" type="line"/>
      <point x="293" y="1456" type="line"/>
      <point x="569" y="1456" type="line"/>
    </contour>
  </outline>
</glyph>
<glyph name="M" format="2">
  <advance width="1202"/>
  <unicode hex="004D"/>
  <outline>
    <contour>
      <point x="608" y="1456" type="line"/>
      <point x="646" y="913" type="line"/>
      <point x="892" y="1456" type="line"/>
      <point x="1236" y="1456" type="line"/>
      <point x="983" y="0" type="line"/>
      <point x="731" y="0" type="line"/>
      <point x="808" y="442" type="line"/>
      <point x="932" y="1090" type="line"/>
      <point x="647" y="480" type="line"/>
      <point x="510" y="480" type="line"/>
      <point x="449" y="1095" type="line"/>
      <point x="343" y="420" type="line"/>
      <point x="270" y="0" type="line"/>
      <point x="18" y="0" type="line"/>
      <point x="271" y="1456" type="line"/>
    </contour>
  </outline>
</glyph>
<glyph name="T" format="2">
  <advance width="1202"/>
  <unicode hex="0054"/>
  <outline>
    <contour>
      <point x="1274" y="1227" type="line"/>
      <point x="839" y="1227" type="line"/>
      <point x="626" y="0" type="line"/>
      <point x="351" y="0" type="line"/>
      <point x="564" y="1227" type="line"/>
      <point x="134" y="1227" type="line"/>
      <point x="174" y="1456" type="line"/>
      <point x="1315" y="1456" type="line"/>
    </contour>
  </outline>
</glyph>
<glyph name="U" format="2">
  <advance width="1202"/>
  <unicode hex="0055"/>
  <outline>
    <contour>
      <point x="1217" y="1456" type="line"/>
      <point x="1054" y="492" type="line" smooth="yes"/>
      <point x="1037" y="379"/>
      <point x="949" y="189"/>
      <point x="879.0" y="120.5" type="qcurve" smooth="yes" name="inserted"/>
      <point x="809" y="52"/>
      <point x="618" y="-23"/>
      <point x="499" y="-20" type="qcurve" smooth="yes"/>
      <point x="389" y="-18"/>
      <point x="230" y="65"/>
      <point x="181.0" y="134.5" type="qcurve" smooth="yes" name="inserted"/>
      <point x="132" y="204"/>
      <point x="94" y="388"/>
      <point x="106" y="490" type="qcurve"/>
      <point x="271" y="1456" type="line"/>
      <point x="545" y="1456" type="line"/>
      <point x="383" y="490" type="line"/>
      <point x="378" y="447"/>
      <point x="379" y="350"/>
      <point x="392.5" y="308.0" type="qcurve" smooth="yes" name="inserted"/>
      <point x="406" y="266"/>
      <point x="467" y="209"/>
      <point x="523" y="206" type="qcurve" smooth="yes"/>
      <point x="585" y="203"/>
      <point x="675" y="252"/>
      <point x="705.5" y="293.0" type="qcurve" smooth="yes" name="inserted"/>
      <point x="736" y="334"/>
      <point x="772" y="438"/>
      <point x="780" y="490" type="qcurve" smooth="yes"/>
      <point x="945" y="1456" type="line"/>
    </contour>
  </outline>
</glyph>
<glyph name="V" format="2">
  <advance width="1202"/>
  <unicode hex="0056"/>
  <outline>
    <contour>
      <point x="366" y="0" type="line"/>
      <point x="167" y="1456" type="line"/>
      <point x="462" y="1456" type="line"/>
      <point x="554" y="483" type="line"/>
      <point x="561" y="410" type="line"/>
      <point x="587" y="474" type="line"/>
      <point x="991" y="1456" type="line"/>
      <point x="1301" y="1456" type="line"/>
      <point x="645" y="0" type="line"/>
    </contour>
  </outline>
</glyph>
<glyph name="W" format="2">
  <advance width="1202"/>
  <unicode hex="0057"/>
  <outline>
    <contour>
      <point x="127" y="0" type="line"/>
      <point x="160" y="1456" type="line"/>
      <point x="408" y="1456" type="line"/>
      <point x="376" y="696" type="line"/>
      <point x="372" y="593" type="line"/>
      <point x="402" y="693" type="line"/>
      <point x="627" y="1456" type="line"/>
      <point x="824" y="1456" type="line"/>
      <point x="814" y="688" type="line"/>
      <point x="813" y="584" type="line"/>
      <point x="840" y="684" type="line"/>
      <point x="1052" y="1456" type="line"/>
      <point x="1307" y="1456" type="line"/>
      <point x="884" y="0" type="line"/>
      <point x="636" y="0" type="line"/>
      <point x="637" y="742" type="line"/>
      <point x="637" y="855" type="line"/>
      <point x="605" y="752" type="line"/>
      <point x="375" y="0" type="line"/>
    </contour>
  </outline>
</glyph>
<glyph name="asciicircum" format="2">
  <advance width="1202"/>
  <unicode hex="005E"/>
  <outline>
    <contour>
      <point x="215" y="687" type="line"/>
      <point x="659" y="1456" type="line"/>
      <point x="855" y="1456" type="line"/>
      <point x="1030" y="687" type="line"/>
      <point x="823" y="687" type="line"/>
      <point x="728" y="1153" type="line"/>
      <point x="724" y="1222" type="line"/>
      <point x="685" y="1130" type="line"/>
      <point x="445" y="687" type="line"/>
    </contour>
  </outline>
</glyph>
<glyph name="underscore" format="2">
  <advance width="1202"/>
  <unicode hex="005F"/>
  <outline>
    <contour>
      <point x="887" y="-217" type="line"/>
      <point x="1" y="-217" type="line"/>
      <point x="39" y="0" type="line"/>
      <point x="926" y="0" type="line"/>
    </contour>
  </outline>
</glyph>
<glyph name="a" format="2">
  <advance width="1202"/>
  <unicode hex="0061"/>
  <outline>
    <contour>
      <point x="700" y="0" type="line"/>
      <point x="692" y="26"/>
      <point x="689" y="75"/>
      <point x="690" y="101" type="qcurve"/>
      <point x="668" y="81"/>
      <point x="622" y="46"/>
      <point x="598" y="32" type="qcurve" smooth="yes"/>
      <point x="552" y="6"/>
      <point x="448" y="-21"/>
      <point x="390" y="-20" type="qcurve" smooth="yes"/>
      <point x="322" y="-19"/>
      <point x="199" y="26"/>
      <point x="154" y="67" type="qcurve" smooth="yes" name="inserted"/>
      <point x="108" y="107"/>
      <point x="58" y="223"/>
      <point x="61" y="295" type="qcurve" smooth="yes"/>
      <point x="64" y="367"/>
      <point x="113" y="477"/>
      <point x="153" y="518" type="qcurve" smooth="yes" name="inserted"/>
      <point x="193" y="559"/>
      <point x="297" y="614"/>
      <point x="356" y="631" type="qcurve" smooth="yes" name="inserted"/>
      <point x="415" y="648"/>
      <point x="540" y="662"/>
      <point x="601" y="662" type="qcurve" smooth="yes"/>
      <point x="757" y="660" type="line"/>
      <point x="770" y="727" type="line" smooth="yes"/>
      <point x="776" y="766"/>
      <point x="759" y="828"/>
      <point x="739" y="850" type="qcurve" smooth="yes" name="inserted"/>
      <point x="718" y="871"/>
      <point x="656" y="894"/>
      <point x="617" y="895" type="qcurve" smooth="yes"/>
      <point x="581" y="896"/>
      <point x="520" y="879"/>
      <point x="497" y="861" type="qcurve" smooth="yes"/>
      <point x="475" y="845"/>
      <point x="446" y="794"/>
      <point x="439" y="761" type="qcurve"/>
      <point x="168" y="759" type="line"/>
      <point x="174" y="849"/>
      <point x="264" y="980"/>
      <point x="332" y="1023" type="qcurve" smooth="yes" name="inserted"/>
      <point x="400" y="1065"/>
      <point x="565" y="1104"/>
      <point x="646" y="1103" type="qcurve" smooth="yes"/>
      <point x="731" y="1101"/>
      <point x="883" y="1051"/>
      <point x="939" y="1004" type="qcurve" smooth="yes" name="inserted"/>
      <point x="994" y="956"/>
      <point x="1051" y="816"/>
      <point x="1042" y="723" type="qcurve"/>
      <point x="967" y="258" type="line" smooth="yes"/>
      <point x="958" y="199"/>
      <point x="949" y="76"/>
      <point x="970" y="18" type="qcurve"/>
      <point x="969" y="0" type="line"/>
    </contour>
    <contour>
      <point x="461" y="194" type="qcurve" smooth="yes"/>
      <point x="502" y="193"/>
      <point x="580" y="213"/>
      <point x="614" y="233" type="qcurve" smooth="yes"/>
      <point x="638" y="247"/>
      <point x="683" y="285"/>
      <point x="702" y="308" type="qcurve"/>
      <point x="736" y="495" type="line"/>
      <point x="613" y="496" type="line" smooth="yes"/>
      <point x="573" y="496"/>
      <point x="491" y="482"/>
      <point x="455" y="467" type="qcurve" smooth="yes"/>
      <point x="432" y="455"/>
      <point x="388" y="426"/>
      <point x="372" y="405" type="qcurve" smooth="yes"/>
      <point x="359" y="388"/>
      <point x="341" y="344"/>
      <point x="337" y="317" type="qcurve" smooth="yes"/>
      <point x="333" y="286"/>
      <point x="349" y="240"/>
      <point x="366" y="225" type="qcurve" smooth="yes" name="inserted"/>
      <point x="383" y="210"/>
      <point x="432" y="194"/>
    </contour>
  </outline>
</glyph>
<glyph name="b" format="2">
  <advance width="1202"/>
  <unicode hex="0062"/>
  <outline>
    <contour>
      <point x="1071" y="536" type="line" smooth="yes"/>
      <point x="1063" y="469"/>
      <point x="1028" y="332"/>
      <point x="1000" y="270" type="qcurve" smooth="yes" name="inserted"/>
      <point x="972" y="207"/>
      <point x="894" y="99"/>
      <point x="843" y="60" type="qcurve" smooth="yes" name="inserted"/>
      <point x="792" y="21"/>
      <point x="663" y="-22"/>
      <point x="585" y="-20" type="qcurve" smooth="yes"/>
      <point x="531" y="-19"/>
      <point x="434" y="12"/>
      <point x="394" y="42" type="qcurve" smooth="yes"/>
      <point x="374" y="57"/>
      <point x="339" y="94"/>
      <point x="324" y="116" type="qcurve"/>
      <point x="284" y="0" type="line"/>
      <point x="38" y="0" type="line"/>
      <point x="304" y="1536" type="line"/>
      <point x="576" y="1536" type="line"/>
      <point x="470" y="983" type="line"/>
      <point x="491" y="1005"/>
      <point x="536" y="1042"/>
      <point x="559" y="1056" type="qcurve" smooth="yes"/>
      <point x="599" y="1079"/>
      <point x="689" y="1103"/>
      <point x="740" y="1102" type="qcurve" smooth="yes"/>
      <point x="814" y="1100"/>
      <point x="925" y="1052"/>
      <point x="965" y="1012" type="qcurve" smooth="yes" name="inserted"/>
      <point x="1004" y="972"/>
      <point x="1053" y="865"/>
      <point x="1065" y="805" type="qcurve" smooth="yes" name="inserted"/>
      <point x="1077" y="745"/>
      <point x="1080" y="618"/>
      <point x="1074" y="557" type="qcurve" smooth="yes"/>
    </contour>
    <contour>
      <point x="802" y="557" type="line" smooth="yes"/>
      <point x="805" y="588"/>
      <point x="809" y="659"/>
      <point x="807" y="694" type="qcurve" smooth="yes" name="inserted"/>
      <point x="804" y="729"/>
      <point x="787" y="794"/>
      <point x="770" y="819" type="qcurve" smooth="yes" name="inserted"/>
      <point x="752" y="844"/>
      <point x="696" y="875"/>
      <point x="654" y="876" type="qcurve" smooth="yes"/>
      <point x="617" y="877"/>
      <point x="554" y="860"/>
      <point x="527" y="843" type="qcurve" smooth="yes"/>
      <point x="502" y="828"/>
      <point x="459" y="784"/>
      <point x="441" y="757" type="qcurve"/>
      <point x="366" y="323" type="line"/>
      <point x="375" y="295"/>
      <point x="405" y="252"/>
      <point x="425" y="237" type="qcurve" smooth="yes"/>
      <point x="448" y="220"/>
      <point x="512" y="204"/>
      <point x="538" y="204" type="qcurve"/>
      <point x="589" y="204"/>
      <point x="646" y="225"/>
      <point x="671" y="244" type="qcurve" smooth="yes"/>
      <point x="706" y="269"/>
      <point x="754" y="346"/>
      <point x="768" y="389" type="qcurve" smooth="yes"/>
      <point x="780" y="424"/>
      <point x="796" y="500"/>
      <point x="800" y="536" type="qcurve" smooth="yes"/>
    </contour>
  </outline>
</glyph>
<glyph name="c" format="2">
  <advance width="1202"/>
  <unicode hex="0063"/>
  <outline>
    <contour>
      <point x="531" y="201" type="qcurve" smooth="yes"/>
      <point x="571" y="200"/>
      <point x="644" y="222"/>
      <point x="674" y="244" type="qcurve" smooth="yes" name="inserted"/>
      <point x="703" y="265"/>
      <point x="744" y="329"/>
      <point x="750" y="369" type="qcurve"/>
      <point x="1004" y="371" type="line"/>
      <point x="999" y="279"/>
      <point x="911" y="132"/>
      <point x="843" y="81" type="qcurve" smooth="yes" name="inserted"/>
      <point x="774" y="30"/>
      <point x="605" y="-23"/>
      <point x="518" y="-21" type="qcurve" smooth="yes"/>
      <point x="444" y="-20"/>
      <point x="323" y="18"/>
      <point x="277" y="50" type="qcurve" smooth="yes"/>
      <point x="215" y="95"/>
      <point x="132" y="226"/>
      <point x="114" y="304" type="qcurve" smooth="yes"/>
      <point x="102" y="354"/>
      <point x="96" y="465"/>
      <point x="102" y="522" type="qcurve" smooth="yes"/>
      <point x="105" y="553" type="line" smooth="yes"/>
      <point x="118.97590644971247" y="669.8893993975953"/>
      <point x="215" y="873"/>
      <point x="295" y="955" type="qcurve" smooth="yes"/>
      <point x="366" y="1027"/>
      <point x="556.5894986792742" y="1104.9217848435628"/>
      <point x="672" y="1102" type="qcurve" smooth="yes"/>
      <point x="765" y="1100"/>
      <point x="915" y="1038"/>
      <point x="968" y="983" type="qcurve" smooth="yes" name="inserted"/>
      <point x="1020" y="927"/>
      <point x="1073" y="774"/>
      <point x="1068" y="681" type="qcurve"/>
      <point x="813" y="682" type="line"/>
      <point x="816" y="722"/>
      <point x="798" y="793"/>
      <point x="777" y="819" type="qcurve" smooth="yes" name="inserted"/>
      <point x="756" y="845"/>
      <point x="692" y="876"/>
      <point x="649" y="878" type="qcurve" smooth="yes"/>
      <point x="604" y="879"/>
      <point x="532" y="855"/>
      <point x="504" y="833" type="qcurve" smooth="yes"/>
      <point x="482" y="815"/>
      <point x="444" y="767"/>
      <point x="432" y="743" type="qcurve" smooth="yes"/>
      <point x="409" y="700"/>
      <point x="382" y="601"/>
      <point x="376" y="553" type="qcurve" smooth="yes"/>
      <point x="372" y="523" type="line" smooth="yes"/>
      <point x="369" y="491"/>
      <point x="366" y="418"/>
      <point x="369" y="383" type="qcurve" smooth="yes"/>
      <point x="374" y="343"/>
      <point x="398" y="268"/>
      <point x="424" y="242" type="qcurve" smooth="yes"/>
      <point x="442" y="224"/>
      <point x="495" y="202"/>
    </contour>
  </outline>
</glyph>
<glyph name="d" format="2">
  <advance width="1202"/>
  <unicode hex="0064"/>
  <outline>
    <contour>
      <point x="100" y="543" type="line" smooth="yes"/>
      <point x="108" y="610"/>
      <point x="144" y="746"/>
      <point x="173" y="809" type="qcurve" smooth="yes" name="inserted"/>
      <point x="201" y="872"/>
      <point x="280" y="981"/>
      <point x="332" y="1021" type="qcurve" smooth="yes" name="inserted"/>
      <point x="384" y="1060"/>
      <point x="512" y="1104"/>
      <point x="590" y="1102" type="qcurve" smooth="yes"/>
      <point x="636" y="1101"/>
      <point x="719" y="1077"/>
      <point x="754" y="1055" type="qcurve" smooth="yes"/>
      <point x="777" y="1041"/>
      <point x="817" y="1005"/>
      <point x="835" y="983" type="qcurve"/>
      <point x="939" y="1536" type="line"/>
      <point x="1211" y="1536" type="line"/>
      <point x="945" y="0" type="line"/>
      <point x="702" y="0" type="line"/>
      <point x="716" y="113" type="line"/>
      <point x="692" y="86"/>
      <point x="639" y="42"/>
      <point x="610" y="25" type="qcurve" smooth="yes"/>
      <point x="571" y="3"/>
      <point x="481" y="-21"/>
      <point x="430" y="-20" type="qcurve" smooth="yes"/>
      <point x="358" y="-18"/>
      <point x="250" y="31"/>
      <point x="211" y="72" type="qcurve" smooth="yes" name="inserted"/>
      <point x="172" y="112"/>
      <point x="122" y="218"/>
      <point x="109" y="278" type="qcurve" smooth="yes" name="inserted"/>
      <point x="96" y="337"/>
      <point x="91" y="462"/>
      <point x="97" y="521" type="qcurve" smooth="yes"/>
    </contour>
    <contour>
      <point x="369" y="521" type="line" smooth="yes"/>
      <point x="365" y="484"/>
      <point x="362" y="395"/>
      <point x="369" y="354" type="qcurve" smooth="yes"/>
      <point x="375" y="326"/>
      <point x="392" y="278"/>
      <point x="407" y="259" type="qcurve" smooth="yes"/>
      <point x="424" y="236"/>
      <point x="478" y="207"/>
      <point x="517" y="206" type="qcurve" smooth="yes"/>
      <point x="553" y="205"/>
      <point x="615" y="222"/>
      <point x="641" y="239" type="qcurve" smooth="yes"/>
      <point x="665" y="254"/>
      <point x="708" y="296"/>
      <point x="727" y="321" type="qcurve"/>
      <point x="805" y="761" type="line"/>
      <point x="794" y="789"/>
      <point x="763" y="833"/>
      <point x="742" y="847" type="qcurve" smooth="yes"/>
      <point x="722" y="862"/>
      <point x="671" y="877"/>
      <point x="640" y="878" type="qcurve" smooth="yes"/>
      <point x="572" y="879"/>
      <point x="476" y="817"/>
      <point x="444" y="768" type="qcurve" smooth="yes" name="inserted"/>
      <point x="412" y="719"/>
      <point x="378" y="599"/>
      <point x="371" y="542" type="qcurve" smooth="yes"/>
    </contour>
  </outline>
</glyph>
<glyph name="e" format="2">
  <advance width="1202"/>
  <unicode hex="0065"/>
  <outline>
    <contour>
      <point x="556" y="-20" type="qcurve" smooth="yes"/>
      <point x="445" y="-19"/>
      <point x="266" y="63"/>
      <point x="205" y="133" type="qcurve" smooth="yes" name="inserted"/>
      <point x="143" y="202"/>
      <point x="85" y="390"/>
      <point x="95" y="500" type="qcurve" smooth="yes"/>
      <point x="99" y="541" type="line" smooth="yes"/>
      <point x="109" y="631"/>
      <point x="174" y="799"/>
      <point x="225" y="869" type="qcurve" smooth="yes"/>
      <point x="260.87499999999994" y="915.125"/>
      <point x="346.8" y="996.4799999999999"/>
      <point x="396" y="1026" type="qcurve" smooth="yes"/>
      <point x="458" y="1063"/>
      <point x="604" y="1104"/>
      <point x="685" y="1102" type="qcurve" smooth="yes"/>
      <point x="798" y="1099"/>
      <point x="962" y="1011"/>
      <point x="1013" y="938" type="qcurve" smooth="yes" name="inserted"/>
      <point x="1063" y="864"/>
      <point x="1100" y="674"/>
      <point x="1087" y="569" type="qcurve" smooth="yes"/>
      <point x="1069" y="451" type="line"/>
      <point x="362" y="451" type="line"/>
      <point x="360" y="399"/>
      <point x="390" y="310"/>
      <point x="419" y="277" type="qcurve" smooth="yes" name="inserted"/>
      <point x="447" y="244"/>
      <point x="531" y="205"/>
      <point x="585" y="204" type="qcurve" smooth="yes"/>
      <point x="670" y="201"/>
      <point x="821" y="266"/>
      <point x="879" y="326" type="qcurve"/>
      <point x="1002" y="175" type="line"/>
      <point x="930" y="75"/>
      <point x="685" y="-21"/>
    </contour>
    <contour>
      <point x="665" y="878" type="qcurve" smooth="yes"/>
      <point x="611" y="880"/>
      <point x="525" y="840"/>
      <point x="491.5" y="806.0" type="qcurve" smooth="yes" name="inserted"/>
      <point x="458" y="772"/>
      <point x="408" y="686"/>
      <point x="389" y="642" type="qcurve"/>
      <point x="830" y="642" type="line"/>
      <point x="835" y="667" type="line"/>
      <point x="842" y="711"/>
      <point x="824" y="787"/>
      <point x="801.5" y="815.0" type="qcurve" smooth="yes" name="inserted"/>
      <point x="779" y="843"/>
      <point x="710" y="876"/>
    </contour>
  </outline>
</glyph>
<glyph name="g" format="2">
  <advance width="1202"/>
  <unicode hex="0067"/>
  <outline>
    <contour>
      <point x="101" y="542" type="line" smooth="yes"/>
      <point x="109" y="610"/>
      <point x="147" y="748"/>
      <point x="177" y="811" type="qcurve" smooth="yes" name="inserted"/>
      <point x="207" y="874"/>
      <point x="289" y="982"/>
      <point x="343" y="1022" type="qcurve" smooth="yes" name="inserted"/>
      <point x="396" y="1061"/>
      <point x="527" y="1104"/>
      <point x="605" y="1102" type="qcurve" smooth="yes"/>
      <point x="653" y="1101"/>
      <point x="742" y="1078"/>
      <point x="780" y="1055" type="qcurve" smooth="yes"/>
      <point x="803" y="1041"/>
      <point x="845" y="1002"/>
      <point x="862" y="978" type="qcurve"/>
      <point x="898" y="1083" type="line"/>
      <point x="1147" y="1082" type="line"/>
      <point x="969" y="35" type="line" smooth="yes"/>
      <point x="953" y="-75"/>
      <point x="855" y="-249"/>
      <point x="781" y="-308" type="qcurve" smooth="yes" name="inserted"/>
      <point x="706" y="-368"/>
      <point x="514" y="-429"/>
      <point x="404" y="-426" type="qcurve" smooth="yes"/>
      <point x="296.0" y="-424.00000000000006"/>
      <point x="94" y="-335.0"/>
      <point x="26" y="-250" type="qcurve"/>
      <point x="165" y="-84" type="line"/>
      <point x="210" y="-142"/>
      <point x="330" y="-207"/>
      <point x="405" y="-209" type="qcurve" smooth="yes"/>
      <point x="463" y="-211"/>
      <point x="561" y="-178"/>
      <point x="599" y="-146" type="qcurve" smooth="yes" name="inserted"/>
      <point x="637" y="-115"/>
      <point x="689" y="-26"/>
      <point x="701" y="30" type="qcurve" smooth="yes"/>
      <point x="715" y="94" type="line"/>
      <point x="690" y="70"/>
      <point x="636" y="30"/>
      <point x="607" y="16" type="qcurve" smooth="yes"/>
      <point x="570" y="-3"/>
      <point x="489" y="-21"/>
      <point x="444" y="-20" type="qcurve" smooth="yes"/>
      <point x="372" y="-19"/>
      <point x="261" y="29"/>
      <point x="221" y="70" type="qcurve" smooth="yes" name="inserted"/>
      <point x="180" y="110"/>
      <point x="127" y="216"/>
      <point x="113" y="276" type="qcurve" smooth="yes" name="inserted"/>
      <point x="98" y="335"/>
      <point x="92" y="461"/>
      <point x="98" y="521" type="qcurve" smooth="yes"/>
    </contour>
    <contour>
      <point x="371" y="521" type="line" smooth="yes"/>
      <point x="368" y="490"/>
      <point x="366" y="419"/>
      <point x="370" y="385" type="qcurve" smooth="yes" name="inserted"/>
      <point x="374" y="350"/>
      <point x="394" y="287"/>
      <point x="413" y="263" type="qcurve" smooth="yes" name="inserted"/>
      <point x="432" y="238"/>
      <point x="489" y="207"/>
      <point x="530" y="206" type="qcurve" smooth="yes"/>
      <point x="566" y="205"/>
      <point x="630" y="221"/>
      <point x="657" y="237" type="qcurve" smooth="yes"/>
      <point x="680" y="250"/>
      <point x="721" y="288"/>
      <point x="740" y="311" type="qcurve"/>
      <point x="822" y="772" type="line"/>
      <point x="809" y="800"/>
      <point x="773" y="841"/>
      <point x="751" y="854" type="qcurve" smooth="yes"/>
      <point x="730" y="865"/>
      <point x="682" y="877"/>
      <point x="654" y="878" type="qcurve" smooth="yes"/>
      <point x="586" y="879"/>
      <point x="486" y="818"/>
      <point x="453" y="769" type="qcurve" smooth="yes" name="inserted"/>
      <point x="419" y="720"/>
      <point x="380" y="599"/>
      <point x="373" y="542" type="qcurve" smooth="yes"/>
    </contour>
  </outline>
</glyph>
<glyph name="h" format="2">
  <advance width="1202"/>
  <unicode hex="0068"/>
  <outline>
    <contour>
      <point x="455" y="931" type="line"/>
      <point x="476" y="958"/>
      <point x="524" y="1007"/>
      <point x="550" y="1027" type="qcurve" smooth="yes"/>
      <point x="596" y="1062"/>
      <point x="707" y="1103"/>
      <point x="771" y="1102" type="qcurve" smooth="yes"/>
      <point x="867" y="1101"/>
      <point x="996" y="1025"/>
      <point x="1033" y="963" type="qcurve" smooth="yes" name="inserted"/>
      <point x="1069" y="900"/>
      <point x="1092" y="740"/>
      <point x="1083" y="655" type="qcurve"/>
      <point x="974" y="0" type="line"/>
      <point x="702" y="0" type="line"/>
      <point x="813" y="658" type="line"/>
      <point x="818" y="703"/>
      <point x="809" y="780"/>
      <point x="791" y="810" type="qcurve" smooth="yes" name="inserted"/>
      <point x="773" y="839"/>
      <point x="709" y="873"/>
      <point x="660" y="875" type="qcurve" smooth="yes"/>
      <point x="626" y="876"/>
      <point x="565" y="863"/>
      <point x="537" y="851" type="qcurve" smooth="yes"/>
      <point x="511" y="839"/>
      <point x="463" y="804"/>
      <point x="441" y="782" type="qcurve"/>
      <point x="303" y="0" type="line"/>
      <point x="32" y="0" type="line"/>
      <point x="299" y="1536" type="line"/>
      <point x="570" y="1536" type="line"/>
    </contour>
  </outline>
</glyph>
<glyph name="i" format="2">
  <advance width="1202"/>
  <unicode hex="0069"/>
  <outline>
    <contour>
      <point x="292" y="1082" type="line"/>
      <point x="865" y="1082" type="line"/>
      <point x="716" y="226" type="line"/>
      <point x="1001" y="226" type="line"/>
      <point x="961" y="0" type="line"/>
      <point x="104" y="0" type="line"/>
      <point x="143" y="226" type="line"/>
      <point x="442" y="226" type="line"/>
      <point x="551" y="855" type="line"/>
      <point x="252" y="855" type="line"/>
    </contour>
    <contour>
      <point x="619" y="1354" type="qcurve" smooth="yes"/>
      <point x="619.0" y="1420.4194802966163"/>
      <point x="708.3911787069238" y="1508.0"/>
      <point x="776" y="1508" type="qcurve" smooth="yes"/>
      <point x="840.0" y="1509.9999999999998"/>
      <point x="931.0" y="1430.0"/>
      <point x="931" y="1364" type="qcurve" smooth="yes"/>
      <point x="931.0" y="1295.1810867746763"/>
      <point x="839.2238661712155" y="1210.0"/>
      <point x="774" y="1210" type="qcurve" smooth="yes"/>
      <point x="710.0" y="1208.0000000000002"/>
      <point x="619.0" y="1288.0"/>
    </contour>
  </outline>
</glyph>
<glyph name="j" format="2">
  <advance width="1202"/>
  <unicode hex="006A"/>
  <outline>
    <contour>
      <point x="381" y="1082" type="line"/>
      <point x="920" y="1082" type="line"/>
      <point x="731" y="-25" type="line" smooth="yes"/>
      <point x="717" y="-130"/>
      <point x="634" y="-286"/>
      <point x="569" y="-337" type="qcurve" smooth="yes" name="inserted"/>
      <point x="504" y="-389"/>
      <point x="331" y="-439"/>
      <point x="227" y="-439" type="qcurve" smooth="yes"/>
      <point x="182" y="-438"/>
      <point x="93" y="-430"/>
      <point x="48" y="-422" type="qcurve"/>
      <point x="84" y="-194" type="line"/>
      <point x="119" y="-202"/>
      <point x="194" y="-209"/>
      <point x="230" y="-210" type="qcurve" smooth="yes"/>
      <point x="281" y="-211"/>
      <point x="364" y="-183"/>
      <point x="393" y="-155" type="qcurve" smooth="yes"/>
      <point x="417" y="-132"/>
      <point x="450" y="-66"/>
      <point x="457" y="-25" type="qcurve" smooth="yes"/>
      <point x="606" y="855" type="line"/>
      <point x="341" y="855" type="line"/>
    </contour>
    <contour>
      <point x="676" y="1354" type="qcurve" smooth="yes"/>
      <point x="676.0" y="1420.0"/>
      <point x="765.0" y="1508.0"/>
      <point x="831" y="1508" type="qcurve" smooth="yes"/>
      <point x="894.1751683918524" y="1509.9742240122453"/>
      <point x="987.0" y="1430.8731129444673"/>
      <point x="987" y="1364" type="qcurve" smooth="yes"/>
      <point x="987.0" y="1294.3424265465276"/>
      <point x="894.4659661702453" y="1210.0"/>
      <point x="830" y="1210" type="qcurve" smooth="yes"/>
      <point x="765.1492844248769" y="1207.9734151382777"/>
      <point x="676.0" y="1288.8545815056864"/>
    </contour>
  </outline>
</glyph>
<glyph name="l" format="2">
  <advance width="1202"/>
  <unicode hex="006C"/>
  <outline>
    <contour>
      <point x="355" y="1536" type="line"/>
      <point x="943" y="1536" type="line"/>
      <point x="716" y="226" type="line"/>
      <point x="1017" y="226" type="line"/>
      <point x="977" y="0" type="line"/>
      <point x="88" y="0" type="line"/>
      <point x="128" y="226" type="line"/>
      <point x="442" y="226" type="line"/>
      <point x="630" y="1309" type="line"/>
      <point x="315" y="1309" type="line"/>
    </contour>
  </outline>
</glyph>
<glyph name="m" format="2">
  <advance width="1202"/>
  <unicode hex="006D"/>
  <outline>
    <contour>
      <point x="388" y="1083" type="line"/>
      <point x="363" y="950" type="line"/>
      <point x="399" y="1016"/>
      <point x="510" y="1103"/>
      <point x="589" y="1103" type="qcurve" smooth="yes"/>
      <point x="625" y="1103"/>
      <point x="683" y="1082"/>
      <point x="705" y="1062" type="qcurve" smooth="yes"/>
      <point x="719" y="1049"/>
      <point x="738" y="1011"/>
      <point x="743" y="987" type="qcurve"/>
      <point x="783" y="1038"/>
      <point x="882" y="1103"/>
      <point x="950" y="1102" type="qcurve" smooth="yes"/>
      <point x="1004.3193376039508" y="1100.7654695999104"/>
      <point x="1078" y="1055"/>
      <point x="1097" y="1019" type="qcurve" smooth="yes"/>
      <point x="1132" y="953"/>
      <point x="1141" y="810"/>
      <point x="1131" y="751" type="qcurve"/>
      <point x="1007" y="0" type="line"/>
      <point x="760" y="0" type="line"/>
      <point x="891" y="775" type="line"/>
      <point x="893" y="791"/>
      <point x="893" y="826"/>
      <point x="888" y="841" type="qcurve" smooth="yes" name="inserted"/>
      <point x="883" y="856"/>
      <point x="860" y="876"/>
      <point x="839" y="876" type="qcurve" smooth="yes"/>
      <point x="822" y="876"/>
      <point x="795" y="866"/>
      <point x="783" y="857" type="qcurve" smooth="yes"/>
      <point x="775" y="851"/>
      <point x="760" y="835"/>
      <point x="752" y="827" type="qcurve"/>
      <point x="607" y="0" type="line"/>
      <point x="368" y="0" type="line"/>
      <point x="499" y="776" type="line"/>
      <point x="500" y="792"/>
      <point x="501" y="828"/>
      <point x="497" y="843" type="qcurve" smooth="yes" name="inserted"/>
      <point x="492" y="857"/>
      <point x="469" y="876"/>
      <point x="447" y="876" type="qcurve" smooth="yes"/>
      <point x="429" y="876"/>
      <point x="400" y="863"/>
      <point x="389" y="853" type="qcurve" smooth="yes"/>
      <point x="379" y="844"/>
      <point x="363" y="823"/>
      <point x="356" y="811" type="qcurve"/>
      <point x="215" y="0" type="line"/>
      <point x="-32" y="0" type="line"/>
      <point x="156" y="1082" type="line"/>
    </contour>
  </outline>
</glyph>
<glyph name="n" format="2">
  <advance width="1202"/>
  <unicode hex="006E"/>
  <outline>
    <contour>
      <point x="32" y="0" type="line"/>
      <point x="220" y="1082" type="line"/>
      <point x="464" y="1083" type="line"/>
      <point x="446" y="931" type="line"/>
      <point x="472" y="962"/>
      <point x="529" y="1016"/>
      <point x="561" y="1037" type="qcurve" smooth="yes"/>
      <point x="608" y="1069"/>
      <point x="719" y="1103"/>
      <point x="782" y="1102" type="qcurve" smooth="yes"/>
      <point x="876" y="1100"/>
      <point x="999" y="1026"/>
      <point x="1034" y="965" type="qcurve" smooth="yes" name="inserted"/>
      <point x="1069" y="904"/>
      <point x="1091" y="749"/>
      <point x="1082" y="666" type="qcurve"/>
      <point x="971" y="0" type="line"/>
      <point x="700" y="0" type="line"/>
      <point x="810" y="663" type="line"/>
      <point x="815" y="710"/>
      <point x="806" y="787"/>
      <point x="789" y="815" type="qcurve" smooth="yes" name="inserted"/>
      <point x="771" y="843"/>
      <point x="706" y="875"/>
      <point x="655" y="876" type="qcurve" smooth="yes"/>
      <point x="621" y="877"/>
      <point x="559" y="862"/>
      <point x="532" y="847" type="qcurve" smooth="yes"/>
      <point x="506" y="834"/>
      <point x="460" y="794"/>
      <point x="439" y="770" type="qcurve"/>
      <point x="304" y="0" type="line"/>
    </contour>
  </outline>
</glyph>
<glyph name="o" format="2">
  <advance width="1202"/>
  <unicode hex="006F"/>
  <outline>
    <contour>
      <point x="91" y="544" type="line" smooth="yes"/>
      <point x="105" y="658"/>
      <point x="196" y="863"/>
      <point x="269" y="940" type="qcurve" smooth="yes" name="inserted"/>
      <point x="342" y="1017"/>
      <point x="541" y="1105"/>
      <point x="663" y="1102" type="qcurve" smooth="yes"/>
      <point x="748" y="1101"/>
      <point x="883" y="1051"/>
      <point x="933" y="1008" type="qcurve" smooth="yes"/>
      <point x="973" y="972"/>
      <point x="1033" y="885"/>
      <point x="1052" y="835" type="qcurve" smooth="yes"/>
      <point x="1075" y="772"/>
      <point x="1090" y="629"/>
      <point x="1082" y="554" type="qcurve" smooth="yes"/>
      <point x="1079" y="532" type="line" smooth="yes"/>
      <point x="1065" y="418"/>
      <point x="974" y="215"/>
      <point x="901" y="139" type="qcurve" smooth="yes" name="inserted"/>
      <point x="828" y="63"/>
      <point x="629" y="-24"/>
      <point x="508" y="-21" type="qcurve" smooth="yes"/>
      <point x="420" y="-19"/>
      <point x="275" y="37"/>
      <point x="231" y="80" type="qcurve" smooth="yes"/>
      <point x="192" y="119"/>
      <point x="137.8235294117647" y="198.58823529411765"/>
      <point x="119" y="248" type="qcurve" smooth="yes"/>
      <point x="96" y="309"/>
      <point x="81" y="449"/>
      <point x="89" y="523" type="qcurve" smooth="yes"/>
    </contour>
    <contour>
      <point x="360" y="523" type="line" smooth="yes"/>
      <point x="355" y="473"/>
      <point x="357" y="362"/>
      <point x="374" y="315" type="qcurve" smooth="yes" name="inserted"/>
      <point x="390" y="267"/>
      <point x="463" y="202"/>
      <point x="528" y="200" type="qcurve" smooth="yes"/>
      <point x="596" y="198"/>
      <point x="695" y="259"/>
      <point x="729" y="308" type="qcurve" smooth="yes" name="inserted"/>
      <point x="762" y="356"/>
      <point x="799" y="475"/>
      <point x="807" y="532" type="qcurve" smooth="yes"/>
      <point x="809" y="553" type="line" smooth="yes"/>
      <point x="813.933537450677" y="607.2689119574477"/>
      <point x="811" y="729"/>
      <point x="787" y="784" type="qcurve" smooth="yes"/>
      <point x="769" y="825"/>
      <point x="699.4309435224201" y="875.3753049524456"/>
      <point x="643" y="878" type="qcurve" smooth="yes"/>
      <point x="574" y="880"/>
      <point x="475" y="820"/>
      <point x="442" y="771" type="qcurve" smooth="yes" name="inserted"/>
      <point x="408" y="722"/>
      <point x="369" y="602"/>
      <point x="362" y="544" type="qcurve" smooth="yes"/>
    </contour>
  </outline>
</glyph>
<glyph name="p" format="2">
  <advance width="1202"/>
  <unicode hex="0070"/>
  <outline>
    <contour>
      <point x="1069" y="537" type="line" smooth="yes"/>
      <point x="1061" y="471"/>
      <point x="1025" y="336"/>
      <point x="997" y="273" type="qcurve" smooth="yes" name="inserted"/>
      <point x="968" y="210"/>
      <point x="889" y="102"/>
      <point x="838" y="62" type="qcurve" smooth="yes" name="inserted"/>
      <point x="786" y="22"/>
      <point x="659" y="-23"/>
      <point x="582" y="-21" type="qcurve" smooth="yes"/>
      <point x="536" y="-20"/>
      <point x="452" y="3"/>
      <point x="415" y="24" type="qcurve" smooth="yes"/>
      <point x="392" y="38"/>
      <point x="350" y="74"/>
      <point x="332" y="96" type="qcurve"/>
      <point x="235" y="-416" type="line"/>
      <point x="-36" y="-416" type="line"/>
      <point x="224" y="1082" type="line"/>
      <point x="472" y="1083" type="line"/>
      <point x="455" y="975" type="line"/>
      <point x="476" y="997"/>
      <point x="521" y="1035"/>
      <point x="544" y="1050" type="qcurve" smooth="yes"/>
      <point x="586" y="1077"/>
      <point x="683" y="1103"/>
      <point x="737" y="1102" type="qcurve" smooth="yes"/>
      <point x="811" y="1100"/>
      <point x="921" y="1053"/>
      <point x="961" y="1013" type="qcurve" smooth="yes" name="inserted"/>
      <point x="1000" y="972"/>
      <point x="1049" y="866"/>
      <point x="1062" y="807" type="qcurve" smooth="yes" name="inserted"/>
      <point x="1074" y="747"/>
      <point x="1077" y="620"/>
      <point x="1071" y="559" type="qcurve" smooth="yes"/>
    </contour>
    <contour>
      <point x="799" y="559" type="line" smooth="yes"/>
      <point x="802" y="589"/>
      <point x="805" y="658"/>
      <point x="802" y="692" type="qcurve" smooth="yes"/>
      <point x="800" y="730"/>
      <point x="777" y="803"/>
      <point x="756" y="827" type="qcurve" smooth="yes"/>
      <point x="738" y="849"/>
      <point x="685" y="875"/>
      <point x="647" y="876" type="qcurve" smooth="yes"/>
      <point x="610" y="877"/>
      <point x="546" y="859"/>
      <point x="518" y="842" type="qcurve" smooth="yes"/>
      <point x="497" y="828"/>
      <point x="458" y="791"/>
      <point x="441" y="768" type="qcurve"/>
      <point x="361" y="314" type="line"/>
      <point x="371" y="288"/>
      <point x="399" y="250"/>
      <point x="417" y="236" type="qcurve" smooth="yes"/>
      <point x="439" y="220"/>
      <point x="495" y="203"/>
      <point x="528" y="202" type="qcurve" smooth="yes"/>
      <point x="570" y="201"/>
      <point x="639" y="225"/>
      <point x="666" y="246" type="qcurve" smooth="yes"/>
      <point x="698" y="271"/>
      <point x="745" y="343"/>
      <point x="760" y="385" type="qcurve" smooth="yes"/>
      <point x="775" y="422"/>
      <point x="792" y="501"/>
      <point x="797" y="538" type="qcurve" smooth="yes"/>
    </contour>
  </outline>
</glyph>
<glyph name="q" format="2">
  <advance width="1202"/>
  <unicode hex="0071"/>
  <outline>
    <contour>
      <point x="101" y="543" type="line" smooth="yes"/>
      <point x="109" y="612"/>
      <point x="146" y="752"/>
      <point x="175" y="815" type="qcurve" smooth="yes"/>
      <point x="204" y="878"/>
      <point x="286" y="987"/>
      <point x="338" y="1025" type="qcurve" smooth="yes"/>
      <point x="389" y="1062"/>
      <point x="516" y="1104"/>
      <point x="593" y="1102" type="qcurve" smooth="yes"/>
      <point x="640" y="1101"/>
      <point x="727" y="1077"/>
      <point x="763" y="1054" type="qcurve" smooth="yes"/>
      <point x="788" y="1039"/>
      <point x="831" y="997"/>
      <point x="849" y="971" type="qcurve"/>
      <point x="891" y="1082" type="line"/>
      <point x="1133" y="1082" type="line"/>
      <point x="873" y="-416" type="line"/>
      <point x="601" y="-416" type="line"/>
      <point x="700" y="93" type="line"/>
      <point x="678" y="72"/>
      <point x="632" y="36"/>
      <point x="608" y="23" type="qcurve" smooth="yes"/>
      <point x="569" y="1"/>
      <point x="482" y="-21"/>
      <point x="433" y="-20" type="qcurve" smooth="yes"/>
      <point x="361" y="-19"/>
      <point x="251" y="30"/>
      <point x="212" y="71" type="qcurve" smooth="yes" name="inserted"/>
      <point x="172" y="111"/>
      <point x="123" y="218"/>
      <point x="110" y="278" type="qcurve" smooth="yes" name="inserted"/>
      <point x="97" y="337"/>
      <point x="92" y="463"/>
      <point x="99" y="522" type="qcurve" smooth="yes"/>
    </contour>
    <contour>
      <point x="370" y="522" type="line" smooth="yes"/>
      <point x="367" y="492"/>
      <point x="364" y="422"/>
      <point x="367" y="387" type="qcurve" smooth="yes" name="inserted"/>
      <point x="370" y="352"/>
      <point x="388" y="287"/>
      <point x="406" y="262" type="qcurve" smooth="yes" name="inserted"/>
      <point x="423" y="236"/>
      <point x="479" y="204"/>
      <point x="520" y="203" type="qcurve" smooth="yes"/>
      <point x="557" y="202"/>
      <point x="622" y="220"/>
      <point x="649" y="238" type="qcurve" smooth="yes"/>
      <point x="671" y="252"/>
      <point x="709" y="289"/>
      <point x="726" y="311" type="qcurve"/>
      <point x="808" y="774" type="line"/>
      <point x="796" y="802"/>
      <point x="761" y="842"/>
      <point x="740" y="854" type="qcurve" smooth="yes"/>
      <point x="719" y="866"/>
      <point x="671" y="878"/>
      <point x="643" y="879" type="qcurve" smooth="yes"/>
      <point x="597" y="880"/>
      <point x="523" y="851"/>
      <point x="494" y="826" type="qcurve" smooth="yes"/>
      <point x="467" y="801"/>
      <point x="424" y="735"/>
      <point x="410" y="698" type="qcurve" smooth="yes"/>
      <point x="395" y="660"/>
      <point x="377" y="581"/>
      <point x="372" y="543" type="qcurve" smooth="yes"/>
    </contour>
  </outline>
</glyph>
<glyph name="s" format="2">
  <advance width="1202"/>
  <unicode hex="0073"/>
  <outline>
    <contour>
      <point x="767" y="303" type="qcurve" smooth="yes"/>
      <point x="772" y="328"/>
      <point x="752" y="365"/>
      <point x="734" y="379" type="qcurve" smooth="yes" name="inserted"/>
      <point x="719" y="390"/>
      <point x="677" y="408"/>
      <point x="656" y="413" type="qcurve" smooth="yes"/>
      <point x="614" y="422"/>
      <point x="541" y="439"/>
      <point x="509" y="447" type="qcurve" smooth="yes"/>
      <point x="447" y="463"/>
      <point x="349" y="504"/>
      <point x="302" y="536" type="qcurve" smooth="yes" name="inserted"/>
      <point x="246" y="573"/>
      <point x="176" y="683"/>
      <point x="179" y="760" type="qcurve" smooth="yes"/>
      <point x="182" y="861"/>
      <point x="299" y="1003"/>
      <point x="385" y="1043" type="qcurve" smooth="yes"/>
      <point x="446" y="1072"/>
      <point x="595" y="1103"/>
      <point x="664" y="1102" type="qcurve" smooth="yes"/>
      <point x="746" y="1101"/>
      <point x="902" y="1060"/>
      <point x="964" y="1017" type="qcurve" smooth="yes" name="inserted"/>
      <point x="1025" y="974"/>
      <point x="1100" y="843"/>
      <point x="1100" y="752" type="qcurve"/>
      <point x="830" y="753" type="line"/>
      <point x="831" y="792"/>
      <point x="804" y="848"/>
      <point x="780" y="866" type="qcurve" smooth="yes" name="inserted"/>
      <point x="756" y="883"/>
      <point x="691" y="900"/>
      <point x="654" y="900" type="qcurve" smooth="yes"/>
      <point x="623" y="900"/>
      <point x="553" y="888"/>
      <point x="522" y="874" type="qcurve" smooth="yes" name="inserted"/>
      <point x="491" y="859"/>
      <point x="446" y="810"/>
      <point x="440" y="774" type="qcurve" smooth="yes"/>
      <point x="433" y="736"/>
      <point x="471" y="690"/>
      <point x="501" y="677" type="qcurve" smooth="yes" name="inserted"/>
      <point x="531" y="663"/>
      <point x="601" y="649"/>
      <point x="627" y="644" type="qcurve" smooth="yes"/>
      <point x="667" y="636"/>
      <point x="753" y="615"/>
      <point x="794" y="600" type="qcurve" smooth="yes"/>
      <point x="822" y="590"/>
      <point x="876" y="566"/>
      <point x="900" y="551" type="qcurve" smooth="yes" name="inserted"/>
      <point x="959" y="514"/>
      <point x="1034" y="400"/>
      <point x="1030" y="316" type="qcurve" smooth="yes"/>
      <point x="1025.144316956809" y="214.0306560929885"/>
      <point x="911.1163171917966" y="79.24983089925648"/>
      <point x="830" y="40" type="qcurve" smooth="yes"/>
      <point x="758.6714953986055" y="7.902172929372455"/>
      <point x="595.2616461959374" y="-22.389647042229562"/>
      <point x="523" y="-21" type="qcurve" smooth="yes"/>
      <point x="440" y="-20"/>
      <point x="280" y="26"/>
      <point x="217" y="72" type="qcurve" smooth="yes" name="inserted"/>
      <point x="153" y="117"/>
      <point x="74" y="252"/>
      <point x="74" y="344" type="qcurve"/>
      <point x="331" y="343" type="line"/>
      <point x="333" y="299"/>
      <point x="367" y="237"/>
      <point x="396" y="218" type="qcurve" smooth="yes" name="inserted"/>
      <point x="424" y="198"/>
      <point x="497" y="180"/>
      <point x="538" y="180" type="qcurve" smooth="yes"/>
      <point x="569" y="180"/>
      <point x="644" y="190"/>
      <point x="678" y="204" type="qcurve" smooth="yes" name="inserted"/>
      <point x="711" y="217"/>
      <point x="760" y="265"/>
    </contour>
  </outline>
</glyph>
<glyph name="t" format="2">
  <advance width="1202"/>
  <unicode hex="0074"/>
  <outline>
    <contour>
      <point x="762" y="1347" type="line"/>
      <point x="716" y="1082" type="line"/>
      <point x="1108" y="1082" type="line"/>
      <point x="1072" y="877" type="line"/>
      <point x="680" y="877" type="line"/>
      <point x="604" y="411" type="line"/>
      <point x="599" y="368"/>
      <point x="606" y="296"/>
      <point x="621.5" y="269.0" type="qcurve" smooth="yes" name="inserted"/>
      <point x="637" y="242"/>
      <point x="696" y="210"/>
      <point x="743" y="209" type="qcurve" smooth="yes"/>
      <point x="801" y="207"/>
      <point x="915" y="225"/>
      <point x="972" y="237" type="qcurve"/>
      <point x="981" y="44" type="line"/>
      <point x="908.1657609100907" y="3.5365338389392917"/>
      <point x="732.0940612750295" y="-21.977351531875737"/>
      <point x="653" y="-20" type="qcurve" smooth="yes"/>
      <point x="562" y="-19"/>
      <point x="431" y="44"/>
      <point x="390.5" y="98.0" type="qcurve" smooth="yes" name="inserted"/>
      <point x="350" y="152"/>
      <point x="319" y="299"/>
      <point x="328" y="385" type="qcurve"/>
      <point x="409" y="877" type="line"/>
      <point x="169" y="877" type="line"/>
      <point x="205" y="1082" type="line"/>
      <point x="445" y="1082" type="line"/>
      <point x="491" y="1347" type="line"/>
    </contour>
  </outline>
</glyph>
<glyph name="u" format="2">
  <advance width="1202"/>
  <unicode hex="0075"/>
  <outline>
    <contour>
      <point x="425" y="-21" type="qcurve" smooth="yes"/>
      <point x="327.45009942305535" y="-19.52197120337963"/>
      <point x="202" y="62"/>
      <point x="167" y="125" type="qcurve" smooth="yes"/>
      <point x="129" y="194"/>
      <point x="112.94423415196242" y="357.4795187516493"/>
      <point x="122" y="442" type="qcurve"/>
      <point x="229" y="1082" type="line"/>
      <point x="500" y="1082" type="line"/>
      <point x="393" y="439" type="line" smooth="yes"/>
      <point x="388" y="397"/>
      <point x="387" y="314"/>
      <point x="399" y="281" type="qcurve" smooth="yes" name="inserted"/>
      <point x="410" y="248"/>
      <point x="466" y="206"/>
      <point x="518" y="205" type="qcurve" smooth="yes"/>
      <point x="559" y="204"/>
      <point x="630" y="222"/>
      <point x="660" y="240" type="qcurve" smooth="yes"/>
      <point x="684" y="255"/>
      <point x="727" y="296"/>
      <point x="746" y="322" type="qcurve"/>
      <point x="879" y="1082" type="line"/>
      <point x="1151" y="1082" type="line"/>
      <point x="963" y="0" type="line"/>
      <point x="718" y="0" type="line"/>
      <point x="739" y="153" type="line"/>
      <point x="679" y="77"/>
      <point x="522" y="-23"/>
    </contour>
  </outline>
</glyph>
<glyph name="v" format="2">
  <advance width="1202"/>
  <unicode hex="0076"/>
  <outline>
    <contour>
      <point x="381" y="0" type="line"/>
      <point x="149" y="1082" type="line"/>
      <point x="418" y="1083" type="line"/>
      <point x="537" y="321" type="line"/>
      <point x="539" y="248" type="line"/>
      <point x="567" y="329" type="line"/>
      <point x="912" y="1082" type="line"/>
      <point x="1203" y="1082" type="line"/>
      <point x="635" y="0" type="line"/>
    </contour>
  </outline>
</glyph>
<glyph name="w" format="2">
  <advance width="1202"/>
  <unicode hex="0077"/>
  <outline>
    <contour>
      <point x="112" y="0" type="line"/>
      <point x="112" y="1082" type="line"/>
      <point x="356" y="1082" type="line"/>
      <point x="323" y="452" type="line"/>
      <point x="317" y="344" type="line"/>
      <point x="354" y="448" type="line"/>
      <point x="576" y="1082" type="line"/>
      <point x="758" y="1082" type="line"/>
      <point x="761" y="465" type="line"/>
      <point x="761" y="342" type="line"/>
      <point x="793" y="451" type="line"/>
      <point x="980" y="1082" type="line"/>
      <point x="1234" y="1082" type="line"/>
      <point x="858" y="0" type="line"/>
      <point x="620" y="0" type="line"/>
      <point x="605" y="564" type="line"/>
      <point x="602" y="684" type="line"/>
      <point x="558" y="565" type="line"/>
      <point x="351" y="0" type="line"/>
    </contour>
  </outline>
</glyph>
<glyph name="x" format="2">
  <advance width="1202"/>
  <unicode hex="0078"/>
  <outline>
    <contour>
      <point x="632" y="745" type="line"/>
      <point x="915" y="1082" type="line"/>
      <point x="1221" y="1082" type="line"/>
      <point x="777" y="540" type="line"/>
      <point x="1050" y="0" type="line"/>
      <point x="773" y="0" type="line"/>
      <point x="587" y="353" type="line"/>
      <point x="293" y="0" type="line"/>
      <point x="-15" y="0" type="line"/>
      <point x="445" y="562" type="line"/>
      <point x="182" y="1082" type="line"/>
      <point x="459" y="1082" type="line"/>
    </contour>
  </outline>
</glyph>
<glyph name="braceleft" format="2">
  <advance width="1202"/>
  <unicode hex="007B"/>
  <outline>
    <contour>
      <point x="774" y="-359" type="line"/>
      <point x="677.9739083132989" y="-354.198695415665"/>
      <point x="547.6509747097526" y="-254.9674090125634"/>
      <point x="513" y="-183" type="qcurve" smooth="yes"/>
      <point x="482.6034740961361" y="-122.20694819227228"/>
      <point x="458.4762258021407" y="30.70666125224274"/>
      <point x="467" y="106" type="qcurve" smooth="yes"/>
      <point x="488" y="270" type="line" smooth="yes"/>
      <point x="495" y="329"/>
      <point x="480" y="419"/>
      <point x="457" y="450" type="qcurve" smooth="yes" name="inserted"/>
      <point x="433" y="480"/>
      <point x="352" y="514"/>
      <point x="292" y="517" type="qcurve"/>
      <point x="312" y="717" type="line"/>
      <point x="439" y="719"/>
      <point x="585" y="842"/>
      <point x="603" y="969" type="qcurve" smooth="yes"/>
      <point x="624" y="1132" type="line" smooth="yes"/>
      <point x="636" y="1225"/>
      <point x="701" y="1391"/>
      <point x="755" y="1455" type="qcurve" smooth="yes" name="inserted"/>
      <point x="808" y="1518"/>
      <point x="960" y="1596"/>
      <point x="1061" y="1600" type="qcurve"/>
      <point x="1080" y="1441" type="line"/>
      <point x="1016" y="1440"/>
      <point x="940" y="1381"/>
      <point x="918" y="1336" type="qcurve" smooth="yes" name="inserted"/>
      <point x="896" y="1291"/>
      <point x="877" y="1183"/>
      <point x="870" y="1132" type="qcurve" smooth="yes"/>
      <point x="849" y="969" type="line" smooth="yes"/>
      <point x="832" y="834"/>
      <point x="682" y="663"/>
      <point x="558" y="613" type="qcurve"/>
      <point x="607" y="587"/>
      <point x="679" y="514"/>
      <point x="701" y="470" type="qcurve" smooth="yes" name="inserted"/>
      <point x="722" y="426"/>
      <point x="739" y="324"/>
      <point x="734" y="269" type="qcurve" smooth="yes"/>
      <point x="713" y="105" type="line" smooth="yes"/>
      <point x="708.21875" y="65.15625"/>
      <point x="700.9473684210527" y="-44.36842105263158"/>
      <point x="709" y="-90" type="qcurve" smooth="yes"/>
      <point x="719.1097078143534" y="-133.80873386219855"/>
      <point x="767.2314605970137" y="-195.73412519402973"/>
      <point x="817" y="-200" type="qcurve"/>
    </contour>
  </outline>
</glyph>
<glyph name="braceright" format="2">
  <advance width="1202"/>
  <unicode hex="007D"/>
  <outline>
    <contour>
      <point x="193" y="-203" type="line"/>
      <point x="251" y="-202"/>
      <point x="326" y="-140"/>
      <point x="350" y="-93" type="qcurve" smooth="yes" name="inserted"/>
      <point x="373" y="-47"/>
      <point x="397" y="60"/>
      <point x="403" y="106" type="qcurve" smooth="yes"/>
      <point x="424" y="269" type="line" smooth="yes"/>
      <point x="441" y="400"/>
      <point x="583" y="571"/>
      <point x="702" y="622" type="qcurve"/>
      <point x="662" y="646"/>
      <point x="602" y="708"/>
      <point x="581" y="744" type="qcurve" smooth="yes"/>
      <point x="554" y="792"/>
      <point x="533" y="907"/>
      <point x="539" y="969" type="qcurve" smooth="yes"/>
      <point x="560" y="1133" type="line" smooth="yes"/>
      <point x="567" y="1185"/>
      <point x="580" y="1316"/>
      <point x="564" y="1362" type="qcurve" smooth="yes"/>
      <point x="552" y="1397"/>
      <point x="498" y="1435"/>
      <point x="455" y="1439" type="qcurve"/>
      <point x="501" y="1596" type="line"/>
      <point x="593" y="1592"/>
      <point x="718" y="1506"/>
      <point x="755" y="1440" type="qcurve" smooth="yes" name="inserted"/>
      <point x="791" y="1374"/>
      <point x="815" y="1212"/>
      <point x="806" y="1132" type="qcurve" smooth="yes"/>
      <point x="785" y="968" type="line" smooth="yes"/>
      <point x="771.0" y="850.0000000000001"/>
      <point x="861.0" y="725.0"/>
      <point x="981" y="719" type="qcurve"/>
      <point x="961" y="519" type="line"/>
      <point x="835" y="517"/>
      <point x="689" y="395"/>
      <point x="671" y="269" type="qcurve" smooth="yes"/>
      <point x="649" y="106" type="line" smooth="yes"/>
      <point x="637" y="16"/>
      <point x="572" y="-150"/>
      <point x="518" y="-214" type="qcurve" smooth="yes" name="inserted"/>
      <point x="464" y="-278"/>
      <point x="313" y="-358"/>
      <point x="216" y="-364" type="qcurve"/>
    </contour>
  </outline>
</glyph>
<glyph name="asciitilde" format="2">
  <advance width="1202"/>
  <unicode hex="007E"/>
  <outline>
    <contour>
      <point x="1128" y="753" type="line"/>
      <point x="1122" y="683"/>
      <point x="1075" y="547"/>
      <point x="1034" y="494" type="qcurve" smooth="yes" name="inserted"/>
      <point x="993" y="441"/>
      <point x="874" y="376"/>
      <point x="795" y="377" type="qcurve" smooth="yes"/>
      <point x="751" y="377"/>
      <point x="674" y="398"/>
      <point x="640" y="416" type="qcurve" smooth="yes" name="inserted"/>
      <point x="605" y="434"/>
      <point x="541" y="483"/>
      <point x="510" y="512" type="qcurve" smooth="yes"/>
      <point x="493" y="528"/>
      <point x="454" y="559"/>
      <point x="432" y="571" type="qcurve" smooth="yes" name="inserted"/>
      <point x="410" y="583"/>
      <point x="363" y="598"/>
      <point x="339" y="598" type="qcurve" smooth="yes"/>
      <point x="306" y="598"/>
      <point x="253" y="568"/>
      <point x="233" y="545" type="qcurve" smooth="yes" name="inserted"/>
      <point x="213" y="522"/>
      <point x="186" y="464"/>
      <point x="180" y="436" type="qcurve"/>
      <point x="8" y="457" type="line"/>
      <point x="14" y="527"/>
      <point x="60" y="660"/>
      <point x="101" y="712" type="qcurve" smooth="yes" name="inserted"/>
      <point x="142" y="764"/>
      <point x="261" y="826"/>
      <point x="339" y="825" type="qcurve" smooth="yes"/>
      <point x="395" y="824"/>
      <point x="493" y="791"/>
      <point x="536" y="763" type="qcurve" smooth="yes"/>
      <point x="560" y="748"/>
      <point x="605" y="711"/>
      <point x="627" y="691" type="qcurve" smooth="yes"/>
      <point x="644" y="675"/>
      <point x="682" y="644"/>
      <point x="703" y="632" type="qcurve" smooth="yes" name="inserted"/>
      <point x="724" y="619"/>
      <point x="770" y="605"/>
      <point x="795" y="605" type="qcurve" smooth="yes"/>
      <point x="828" y="605"/>
      <point x="879" y="636"/>
      <point x="898" y="660" type="qcurve" smooth="yes" name="inserted"/>
      <point x="917" y="684"/>
      <point x="942" y="742"/>
      <point x="947" y="771" type="qcurve"/>
    </contour>
  </outline>
</glyph>
<glyph name="exclamdown" format="2">
  <advance width="1202"/>
  <unicode hex="00A1"/>
  <outline>
    <contour>
      <point x="492" y="565" type="line"/>
      <point x="739" y="565" type="line"/>
      <point x="590" y="-380" type="line"/>
      <point x="311" y="-380" type="line"/>
    </contour>
    <contour>
      <point x="844" y="953" type="qcurve" smooth="yes"/>
      <point x="844.0" y="884.1810643953037"/>
      <point x="750.2238454597867" y="795.0"/>
      <point x="685" y="795" type="qcurve" smooth="yes"/>
      <point x="619.7742431358132" y="793.0234619132065"/>
      <point x="528.0" y="874.2071552085025"/>
      <point x="528" y="941" type="qcurve" smooth="yes"/>
      <point x="528.0" y="1008.2362567135737"/>
      <point x="616.1957272669036" y="1101.9770207790546"/>
      <point x="687" y="1104" type="qcurve" smooth="yes"/>
      <point x="753.0" y="1105.9999999999998"/>
      <point x="844.0" y="1019.0"/>
    </contour>
  </outline>
</glyph>
<glyph name="cent" format="2">
  <advance width="1202"/>
  <unicode hex="00A2"/>
  <outline>
    <contour>
      <point x="555" y="201" type="qcurve" smooth="yes"/>
      <point x="595" y="200"/>
      <point x="668" y="222"/>
      <point x="698" y="244" type="qcurve" smooth="yes" name="inserted"/>
      <point x="727" y="265"/>
      <point x="768" y="329"/>
      <point x="774" y="369" type="qcurve"/>
      <point x="1028" y="371" type="line"/>
      <point x="1023" y="288"/>
      <point x="951" y="153"/>
      <point x="894" y="103" type="qcurve" smooth="yes" name="inserted"/>
      <point x="837" y="53"/>
      <point x="692" y="-8"/>
      <point x="614" y="-17" type="qcurve"/>
      <point x="574" y="-245" type="line"/>
      <point x="378" y="-245" type="line"/>
      <point x="421" y="-4" type="line"/>
      <point x="337" y="18"/>
      <point x="216" y="120"/>
      <point x="180" y="190" type="qcurve" smooth="yes" name="inserted"/>
      <point x="163" y="223"/>
      <point x="138" y="296"/>
      <point x="132" y="335" type="qcurve" smooth="yes"/>
      <point x="124" y="379"/>
      <point x="121" y="473"/>
      <point x="126" y="522" type="qcurve" smooth="yes"/>
      <point x="129" y="553" type="line" smooth="yes"/>
      <point x="141" y="656"/>
      <point x="218" y="842"/>
      <point x="280" y="915" type="qcurve" smooth="yes" name="inserted"/>
      <point x="342" y="988"/>
      <point x="509" y="1084"/>
      <point x="611" y="1097" type="qcurve"/>
      <point x="650" y="1318" type="line"/>
      <point x="846" y="1318" type="line"/>
      <point x="805" y="1088" type="line"/>
      <point x="874" y="1071"/>
      <point x="984" y="998"/>
      <point x="1022" y="946" type="qcurve" smooth="yes" name="inserted"/>
      <point x="1060" y="893"/>
      <point x="1096" y="759"/>
      <point x="1092" y="681" type="qcurve"/>
      <point x="837" y="682" type="line"/>
      <point x="840" y="722"/>
      <point x="822" y="793"/>
      <point x="801" y="819" type="qcurve" smooth="yes" name="inserted"/>
      <point x="780" y="845"/>
      <point x="716" y="876"/>
      <point x="673" y="878" type="qcurve" smooth="yes"/>
      <point x="633" y="879"/>
      <point x="567" y="860"/>
      <point x="540" y="842" type="qcurve" smooth="yes"/>
      <point x="505.53435123443256" y="818.4182403182961"/>
      <point x="455.8282330281813" y="745.1135243134078"/>
      <point x="438" y="705" type="qcurve" smooth="yes"/>
      <point x="423" y="668"/>
      <point x="405" y="591"/>
      <point x="400" y="553" type="qcurve" smooth="yes"/>
      <point x="396" y="523" type="line" smooth="yes"/>
      <point x="393" y="493"/>
      <point x="390" y="426"/>
      <point x="392" y="393" type="qcurve" smooth="yes"/>
      <point x="394" y="373"/>
      <point x="400" y="333"/>
      <point x="406" y="316" type="qcurve" smooth="yes" name="inserted"/>
      <point x="421" y="268"/>
      <point x="490" y="203"/>
    </contour>
  </outline>
</glyph>
<glyph name="currency" format="2">
  <advance width="1202"/>
  <unicode hex="00A4"/>
  <outline>
    <contour>
      <point x="800" y="76" type="line"/>
      <point x="733" y="31"/>
      <point x="586" y="-22"/>
      <point x="504" y="-20" type="qcurve" smooth="yes"/>
      <point x="431" y="-19"/>
      <point x="294" y="29"/>
      <point x="237" y="76" type="qcurve"/>
      <point x="119" y="-26" type="line"/>
      <point x="-1" y="129" type="line"/>
      <point x="121" y="230" type="line"/>
      <point x="103" y="297"/>
      <point x="90" y="433"/>
      <point x="98" y="502" type="qcurve" smooth="yes"/>
      <point x="109" y="587"/>
      <point x="175" y="738"/>
      <point x="229" y="806" type="qcurve"/>
      <point x="137" y="931" type="line"/>
      <point x="288" y="1064" type="line"/>
      <point x="375" y="949" type="line"/>
      <point x="440" y="988"/>
      <point x="579" y="1035"/>
      <point x="655" y="1034" type="qcurve" smooth="yes"/>
      <point x="725" y="1033"/>
      <point x="855" y="989"/>
      <point x="911" y="946" type="qcurve"/>
      <point x="1048" y="1065" type="line"/>
      <point x="1169" y="909" type="line"/>
      <point x="1032" y="795" type="line"/>
      <point x="1053" y="726"/>
      <point x="1068" y="587"/>
      <point x="1059" y="515" type="qcurve" smooth="yes"/>
      <point x="1049" y="434"/>
      <point x="988" y="292"/>
      <point x="940" y="228" type="qcurve"/>
      <point x="1031" y="107" type="line"/>
      <point x="879" y="-27" type="line"/>
    </contour>
    <contour>
      <point x="281" y="499" type="qcurve" smooth="yes"/>
      <point x="276" y="462"/>
      <point x="281" y="387"/>
      <point x="292" y="352" type="qcurve" smooth="yes"/>
      <point x="303.5909334270197" y="313.3635552432678"/>
      <point x="346.0488412144125" y="244.87799272515767"/>
      <point x="373" y="220" type="qcurve" smooth="yes"/>
      <point x="401" y="196"/>
      <point x="472" y="168"/>
      <point x="516" y="167" type="qcurve" smooth="yes"/>
      <point x="566" y="166"/>
      <point x="657" y="193"/>
      <point x="696" y="219" type="qcurve" smooth="yes"/>
      <point x="733.809088823063" y="242.10555428076074"/>
      <point x="794.1872406101" y="308.91785021631546"/>
      <point x="819" y="349" type="qcurve" smooth="yes"/>
      <point x="842" y="387"/>
      <point x="872" y="473"/>
      <point x="878" y="517" type="qcurve" smooth="yes"/>
      <point x="882" y="551"/>
      <point x="878" y="621"/>
      <point x="869" y="653" type="qcurve" smooth="yes"/>
      <point x="858.8777325565354" y="699.5624302399367"/>
      <point x="808.546474007563" y="777.3341770470589"/>
      <point x="771" y="805" type="qcurve" smooth="yes"/>
      <point x="745" y="823"/>
      <point x="681" y="845"/>
      <point x="643" y="846" type="qcurve" smooth="yes"/>
      <point x="595" y="847"/>
      <point x="506" y="822"/>
      <point x="468" y="798" type="qcurve" smooth="yes"/>
      <point x="428.2102695874863" y="774.9638402874921"/>
      <point x="360.96695317716876" y="704.1921680600453"/>
      <point x="338" y="664" type="qcurve" smooth="yes"/>
      <point x="315" y="626"/>
      <point x="286" y="542"/>
    </contour>
  </outline>
</glyph>
<glyph name="yen" format="2">
  <advance width="1202"/>
  <unicode hex="00A5"/>
  <outline>
    <contour>
      <point x="1030" y="1456" type="line"/>
      <point x="1344" y="1456" type="line"/>
      <point x="848" y="742" type="line"/>
      <point x="1084" y="742" type="line"/>
      <point x="1055" y="576" type="line"/>
      <point x="735" y="576" type="line"/>
      <point x="734" y="570" type="line"/>
      <point x="712" y="452" type="line"/>
      <point x="1034" y="452" type="line"/>
      <point x="1005" y="287" type="line"/>
      <point x="684" y="287" type="line"/>
      <point x="634" y="0" type="line"/>
      <point x="360" y="0" type="line"/>
      <point x="410" y="287" type="line"/>
      <point x="77" y="287" type="line"/>
      <point x="106" y="452" type="line"/>
      <point x="438" y="452" type="line"/>
      <point x="460" y="576" type="line"/>
      <point x="127" y="576" type="line"/>
      <point x="156" y="742" type="line"/>
      <point x="424" y="742" type="line"/>
      <point x="175" y="1456" type="line"/>
      <point x="464" y="1456" type="line"/>
      <point x="604" y="964" type="line"/>
      <point x="639" y="839" type="line"/>
      <point x="639" y="839" type="line"/>
      <point x="715" y="959" type="line"/>
    </contour>
  </outline>
</glyph>
<glyph name="section" format="2">
  <advance width="1202"/>
  <unicode hex="00A7"/>
  <outline>
    <contour>
      <point x="1112" y="483" type="qcurve" smooth="yes"/>
      <point x="1107" y="423"/>
      <point x="1062" y="325"/>
      <point x="1026" y="287" type="qcurve" smooth="yes"/>
      <point x="1002" y="261"/>
      <point x="942" y="217"/>
      <point x="907" y="198" type="qcurve"/>
      <point x="923" y="181"/>
      <point x="948" y="143"/>
      <point x="957" y="124" type="qcurve" smooth="yes"/>
      <point x="979" y="79"/>
      <point x="994" y="-22"/>
      <point x="990" y="-76" type="qcurve" smooth="yes"/>
      <point x="985" y="-146"/>
      <point x="934" y="-258"/>
      <point x="894" y="-301" type="qcurve" smooth="yes" name="inserted"/>
      <point x="814" y="-387"/>
      <point x="568" y="-460"/>
      <point x="444" y="-458" type="qcurve" smooth="yes"/>
      <point x="343" y="-457"/>
      <point x="166" y="-407"/>
      <point x="101" y="-355" type="qcurve" smooth="yes" name="inserted"/>
      <point x="36" y="-304"/>
      <point x="-38" y="-147"/>
      <point x="-35" y="-37" type="qcurve"/>
      <point x="240" y="-37" type="line"/>
      <point x="237" y="-90"/>
      <point x="269" y="-163"/>
      <point x="299" y="-186" type="qcurve" smooth="yes" name="inserted"/>
      <point x="328" y="-209"/>
      <point x="410" y="-231"/>
      <point x="459" y="-231" type="qcurve" smooth="yes"/>
      <point x="498" y="-232"/>
      <point x="584" y="-218"/>
      <point x="621" y="-200" type="qcurve" smooth="yes" name="inserted"/>
      <point x="658" y="-183"/>
      <point x="711" y="-123"/>
      <point x="719" y="-78" type="qcurve" smooth="yes"/>
      <point x="724" y="-47"/>
      <point x="705" y="2"/>
      <point x="686" y="21" type="qcurve" smooth="yes" name="inserted"/>
      <point x="666" y="40"/>
      <point x="613" y="68"/>
      <point x="584" y="79" type="qcurve" smooth="yes" name="inserted"/>
      <point x="555" y="90"/>
      <point x="500" y="106"/>
      <point x="478" y="113" type="qcurve" smooth="yes"/>
      <point x="434" y="127"/>
      <point x="347" y="159"/>
      <point x="307" y="179" type="qcurve" smooth="yes"/>
      <point x="275" y="194"/>
      <point x="218" y="229"/>
      <point x="193" y="250" type="qcurve" smooth="yes" name="inserted"/>
      <point x="135" y="298"/>
      <point x="69" y="432"/>
      <point x="76" y="527" type="qcurve" smooth="yes"/>
      <point x="80" y="583"/>
      <point x="121" y="676"/>
      <point x="153" y="713" type="qcurve" smooth="yes"/>
      <point x="178" y="742"/>
      <point x="244" y="792"/>
      <point x="282" y="813" type="qcurve"/>
      <point x="263" y="835"/>
      <point x="234" y="881"/>
      <point x="223" y="906" type="qcurve" smooth="yes"/>
      <point x="206" y="947"/>
      <point x="194" y="1039"/>
      <point x="198" y="1088" type="qcurve" smooth="yes"/>
      <point x="203" y="1158"/>
      <point x="255" y="1270"/>
      <point x="296" y="1314" type="qcurve" smooth="yes" name="inserted"/>
      <point x="336" y="1357"/>
      <point x="441" y="1419"/>
      <point x="501" y="1439" type="qcurve" smooth="yes" name="inserted"/>
      <point x="560" y="1459"/>
      <point x="686" y="1477"/>
      <point x="748" y="1476" type="qcurve" smooth="yes"/>
      <point x="849" y="1474"/>
      <point x="1018" y="1420"/>
      <point x="1078" y="1367" type="qcurve" smooth="yes" name="inserted"/>
      <point x="1138" y="1313"/>
      <point x="1202" y="1153"/>
      <point x="1198" y="1047" type="qcurve"/>
      <point x="927" y="1048" type="line"/>
      <point x="929" y="1096"/>
      <point x="904" y="1172"/>
      <point x="879" y="1197" type="qcurve" smooth="yes"/>
      <point x="854" y="1223"/>
      <point x="779" y="1250"/>
      <point x="732" y="1251" type="qcurve" smooth="yes"/>
      <point x="691" y="1252"/>
      <point x="605" y="1237"/>
      <point x="569" y="1218" type="qcurve" smooth="yes" name="inserted"/>
      <point x="532" y="1199"/>
      <point x="478" y="1137"/>
      <point x="471" y="1091" type="qcurve" smooth="yes"/>
      <point x="462" y="1040"/>
      <point x="507" y="976"/>
      <point x="545" y="955" type="qcurve" smooth="yes" name="inserted"/>
      <point x="582" y="934"/>
      <point x="672" y="908"/>
      <point x="709" y="897" type="qcurve" smooth="yes"/>
      <point x="746" y="886"/>
      <point x="821" y="859"/>
      <point x="856" y="844" type="qcurve" smooth="yes"/>
      <point x="894" y="827"/>
      <point x="966" y="786"/>
      <point x="996" y="761" type="qcurve" smooth="yes" name="inserted"/>
      <point x="1015" y="745"/>
      <point x="1048" y="710"/>
      <point x="1061" y="691" type="qcurve" smooth="yes"/>
      <point x="1089" y="650"/>
      <point x="1117" y="547"/>
    </contour>
    <contour>
      <point x="518" y="690" type="qcurve" smooth="yes"/>
      <point x="506" y="695"/>
      <point x="480" y="704"/>
      <point x="467" y="709" type="qcurve"/>
      <point x="444" y="697"/>
      <point x="407" y="667"/>
      <point x="394" y="649" type="qcurve" smooth="yes"/>
      <point x="378" y="629"/>
      <point x="358" y="581"/>
      <point x="353" y="553" type="qcurve" smooth="yes"/>
      <point x="344" y="501"/>
      <point x="385" y="433"/>
      <point x="421" y="410" type="qcurve" smooth="yes" name="inserted"/>
      <point x="456.78088399313174" y="388.9524211805107"/>
      <point x="546.8964858030997" y="359.3362299689151"/>
      <point x="585" y="346" type="qcurve" smooth="yes"/>
      <point x="607" y="339"/>
      <point x="652" y="325"/>
      <point x="673" y="318" type="qcurve" smooth="yes"/>
      <point x="685" y="314"/>
      <point x="708" y="306"/>
      <point x="720" y="301" type="qcurve"/>
      <point x="742" y="314"/>
      <point x="779" y="343"/>
      <point x="794" y="361" type="qcurve" smooth="yes"/>
      <point x="811" y="381"/>
      <point x="834" y="428"/>
      <point x="839" y="457" type="qcurve" smooth="yes"/>
      <point x="848" y="506"/>
      <point x="802" y="574"/>
      <point x="764" y="598" type="qcurve" smooth="yes" name="inserted"/>
      <point x="726.2641467560147" y="622.4173168049316"/>
      <point x="637.396720983672" y="650.2611476557148"/>
      <point x="601" y="663" type="qcurve" smooth="yes"/>
      <point x="580" y="670"/>
      <point x="539" y="683"/>
    </contour>
  </outline>
</glyph>
<glyph name="dieresis" format="2">
  <advance width="1202"/>
  <unicode hex="00A8"/>
  <outline>
    <contour>
      <point x="376" y="1361" type="qcurve" smooth="yes"/>
      <point x="376.0" y="1417.0"/>
      <point x="454.0" y="1489.0000000000002"/>
      <point x="508" y="1491" type="qcurve" smooth="yes"/>
      <point x="559.9155841927568" y="1491.0"/>
      <point x="641.0" y="1423.0879481156442"/>
      <point x="641" y="1369" type="qcurve" smooth="yes"/>
      <point x="641.0" y="1312.211747909932"/>
      <point x="563.2607121000174" y="1241.9726189666671"/>
      <point x="510" y="1240" type="qcurve" smooth="yes"/>
      <point x="455.1521064995251" y="1240.0"/>
      <point x="376.0" y="1307.8220774225679"/>
    </contour>
    <contour>
      <point x="842" y="1361" type="qcurve" smooth="yes"/>
      <point x="842" y="1416"/>
      <point x="918" y="1489"/>
      <point x="973" y="1490" type="qcurve" smooth="yes"/>
      <point x="1023" y="1491"/>
      <point x="1107.0" y="1423.8478935004753"/>
      <point x="1107" y="1369" type="qcurve" smooth="yes"/>
      <point x="1107.0" y="1312.211747909932"/>
      <point x="1028.2607121000174" y="1239.9726189666671"/>
      <point x="975" y="1238" type="qcurve" smooth="yes"/>
      <point x="921.7368070906364" y="1238.0"/>
      <point x="842.0" y="1307"/>
    </contour>
  </outline>
</glyph>
<glyph name="ordfeminine" format="2">
  <advance width="1202"/>
  <unicode hex="00AA"/>
  <outline>
    <contour>
      <point x="767" y="704" type="line"/>
      <point x="764" y="728" name="inserted"/>
      <point x="763" y="775"/>
      <point x="764" y="798" type="qcurve"/>
      <point x="719" y="747"/>
      <point x="607" y="690"/>
      <point x="538" y="691" type="qcurve" smooth="yes"/>
      <point x="488" y="691"/>
      <point x="405" y="722"/>
      <point x="376" y="751" type="qcurve" smooth="yes" name="inserted"/>
      <point x="347" y="779"/>
      <point x="317" y="861"/>
      <point x="319" y="912" type="qcurve" smooth="yes"/>
      <point x="322" y="982"/>
      <point x="389" y="1075"/>
      <point x="440" y="1102" type="qcurve" smooth="yes" name="inserted"/>
      <point x="491" y="1129"/>
      <point x="614" y="1151"/>
      <point x="673" y="1151" type="qcurve" smooth="yes"/>
      <point x="809" y="1150" type="line"/>
      <point x="817" y="1203" type="line" smooth="yes"/>
      <point x="820" y="1228"/>
      <point x="814" y="1273"/>
      <point x="805" y="1290" type="qcurve" smooth="yes" name="inserted"/>
      <point x="795" y="1307"/>
      <point x="758" y="1327"/>
      <point x="730" y="1328" type="qcurve" smooth="yes"/>
      <point x="700" y="1329"/>
      <point x="650" y="1315"/>
      <point x="631" y="1300" type="qcurve" smooth="yes"/>
      <point x="615" y="1288"/>
      <point x="593" y="1253"/>
      <point x="587" y="1230" type="qcurve"/>
      <point x="416" y="1243" type="line"/>
      <point x="424" y="1304"/>
      <point x="486" y="1393"/>
      <point x="531" y="1422" type="qcurve" smooth="yes" name="inserted"/>
      <point x="576" y="1451"/>
      <point x="686" y="1477"/>
      <point x="743" y="1476" type="qcurve" smooth="yes"/>
      <point x="805" y="1475"/>
      <point x="902" y="1434"/>
      <point x="934" y="1398" type="qcurve" smooth="yes" name="inserted"/>
      <point x="966" y="1362"/>
      <point x="998" y="1261"/>
      <point x="990" y="1200" type="qcurve" smooth="yes"/>
      <point x="975" y="1095"/>
      <point x="957" y="991"/>
      <point x="940" y="886" type="qcurve" smooth="yes"/>
      <point x="932" y="840"/>
      <point x="929" y="751"/>
      <point x="936" y="704" type="qcurve"/>
    </contour>
    <contour>
      <point x="591" y="833" type="qcurve" smooth="yes"/>
      <point x="617" y="833"/>
      <point x="669" y="847"/>
      <point x="693.0" y="860.0" type="qcurve" smooth="yes" name="inserted"/>
      <point x="717" y="873"/>
      <point x="759" y="908"/>
      <point x="775" y="929" type="qcurve"/>
      <point x="793" y="1033" type="line"/>
      <point x="670" y="1033" type="line" smooth="yes"/>
      <point x="643" y="1032"/>
      <point x="584" y="1019"/>
      <point x="559.0" y="1005.0" type="qcurve" smooth="yes" name="inserted"/>
      <point x="534" y="991"/>
      <point x="499" y="947"/>
      <point x="496" y="916" type="qcurve" smooth="yes"/>
      <point x="493" y="893"/>
      <point x="507" y="861"/>
      <point x="520.5" y="851.5" type="qcurve" smooth="yes" name="inserted"/>
      <point x="534" y="842"/>
      <point x="571" y="833"/>
    </contour>
  </outline>
</glyph>
<glyph name="logicalnot" format="2">
  <advance width="1202"/>
  <unicode hex="00AC"/>
  <outline>
    <contour>
      <point x="951" y="374" type="line"/>
      <point x="755" y="374" type="line"/>
      <point x="801" y="634" type="line"/>
      <point x="184" y="634" type="line"/>
      <point x="215" y="805" type="line"/>
      <point x="1026" y="805" type="line"/>
    </contour>
  </outline>
</glyph>
<glyph name="registered" format="2">
  <advance width="1202"/>
  <unicode hex="00AE"/>
  <outline>
    <contour>
      <point x="76" y="534" type="qcurve" smooth="yes"/>
      <point x="83" y="609"/>
      <point x="133" y="752"/>
      <point x="173.0" y="816.0" type="qcurve" smooth="yes" name="inserted"/>
      <point x="213" y="880"/>
      <point x="319" y="986"/>
      <point x="382.5" y="1024.5" type="qcurve" smooth="yes" name="inserted"/>
      <point x="446" y="1063"/>
      <point x="591" y="1104"/>
      <point x="670" y="1102" type="qcurve" smooth="yes"/>
      <point x="781" y="1099"/>
      <point x="954" y="1004"/>
      <point x="1011.0" y="926.5" type="qcurve" smooth="yes" name="inserted"/>
      <point x="1068" y="849"/>
      <point x="1119" y="652"/>
      <point x="1109" y="548" type="qcurve" smooth="yes"/>
      <point x="1101" y="473"/>
      <point x="1051" y="329"/>
      <point x="1011.5" y="265.5" type="qcurve" smooth="yes" name="inserted"/>
      <point x="972" y="202"/>
      <point x="866" y="95"/>
      <point x="802.5" y="57.0" type="qcurve" smooth="yes" name="inserted"/>
      <point x="739" y="19"/>
      <point x="594" y="-23"/>
      <point x="515" y="-21" type="qcurve" smooth="yes"/>
      <point x="441" y="-19"/>
      <point x="314" y="26"/>
      <point x="263.0" y="64.5" type="qcurve" smooth="yes" name="inserted"/>
      <point x="212" y="103"/>
      <point x="135" y="207"/>
      <point x="111.0" y="268.0" type="qcurve" smooth="yes" name="inserted"/>
      <point x="87" y="329"/>
      <point x="69" y="464"/>
    </contour>
    <contour>
      <point x="167" y="533" type="qcurve" smooth="yes"/>
      <point x="157" y="448"/>
      <point x="196" y="285"/>
      <point x="241.0" y="220.5" type="qcurve" smooth="yes" name="inserted"/>
      <point x="286" y="156"/>
      <point x="426" y="75"/>
      <point x="518" y="73" type="qcurve" smooth="yes"/>
      <point x="617" y="70"/>
      <point x="790" y="148"/>
      <point x="856.5" y="215.0" type="qcurve" smooth="yes" name="inserted"/>
      <point x="923" y="282"/>
      <point x="1007" y="456"/>
      <point x="1018" y="549" type="qcurve" smooth="yes"/>
      <point x="1028" y="634"/>
      <point x="989" y="797"/>
      <point x="944.0" y="861.5" type="qcurve" smooth="yes" name="inserted"/>
      <point x="899" y="926"/>
      <point x="759" y="1006"/>
      <point x="667" y="1008" type="qcurve" smooth="yes"/>
      <point x="568" y="1011"/>
      <point x="395" y="933"/>
      <point x="328.5" y="867.0" type="qcurve" smooth="yes" name="inserted"/>
      <point x="262" y="801"/>
      <point x="177" y="627"/>
    </contour>
    <contour>
      <point x="480" y="484" type="line"/>
      <point x="440" y="232" type="line"/>
      <point x="328" y="232" type="line"/>
      <point x="428" y="869" type="line"/>
      <point x="626" y="868" type="line" smooth="yes"/>
      <point x="669" y="867"/>
      <point x="749" y="846"/>
      <point x="779.0" y="823.5" type="qcurve" smooth="yes" name="inserted"/>
      <point x="809" y="801"/>
      <point x="843" y="731"/>
      <point x="840" y="682" type="qcurve" smooth="yes"/>
      <point x="838" y="648"/>
      <point x="810" y="596"/>
      <point x="788.5" y="576.5" type="qcurve" smooth="yes" name="inserted"/>
      <point x="767" y="557"/>
      <point x="713" y="528"/>
      <point x="684" y="516" type="qcurve"/>
      <point x="779" y="232" type="line"/>
      <point x="670" y="232" type="line"/>
      <point x="596" y="484" type="line"/>
    </contour>
    <contour>
      <point x="495" y="585" type="line"/>
      <point x="601" y="585" type="line" smooth="yes"/>
      <point x="622" y="586"/>
      <point x="665" y="597"/>
      <point x="683.0" y="608.5" type="qcurve" smooth="yes" name="inserted"/>
      <point x="701" y="620"/>
      <point x="726" y="653"/>
      <point x="730" y="677" type="qcurve" smooth="yes"/>
      <point x="735" y="705"/>
      <point x="721" y="740"/>
      <point x="706.0" y="750.0" type="qcurve" smooth="yes" name="inserted"/>
      <point x="691" y="760"/>
      <point x="649" y="767"/>
      <point x="625" y="768" type="qcurve" smooth="yes"/>
      <point x="525" y="769" type="line"/>
    </contour>
  </outline>
</glyph>
<glyph name="macron" format="2">
  <advance width="1202"/>
  <unicode hex="00AF"/>
  <unicode hex="02C9"/>
  <outline>
    <contour>
      <point x="1082" y="1292" type="line"/>
      <point x="372" y="1292" type="line"/>
      <point x="398" y="1456" type="line"/>
      <point x="1108" y="1456" type="line"/>
    </contour>
  </outline>
</glyph>
<glyph name="degree" format="2">
  <advance width="1202"/>
  <unicode hex="00B0"/>
  <outline>
    <contour>
      <point x="451" y="1193" type="qcurve" smooth="yes"/>
      <point x="454" y="1250"/>
      <point x="503" y="1353"/>
      <point x="542.5" y="1392.5" type="qcurve" smooth="yes" name="inserted"/>
      <point x="582" y="1432"/>
      <point x="685" y="1478"/>
      <point x="743" y="1477" type="qcurve" smooth="yes"/>
      <point x="796" y="1476"/>
      <point x="883" y="1430"/>
      <point x="913.0" y="1393.0" type="qcurve" smooth="yes" name="inserted"/>
      <point x="943" y="1356"/>
      <point x="974" y="1261"/>
      <point x="971" y="1211" type="qcurve" smooth="yes"/>
      <point x="968" y="1155"/>
      <point x="921" y="1052"/>
      <point x="882.5" y="1013.0" type="qcurve" smooth="yes" name="inserted"/>
      <point x="844" y="974"/>
      <point x="743" y="929"/>
      <point x="685" y="930" type="qcurve" smooth="yes"/>
      <point x="632" y="931"/>
      <point x="543" y="975"/>
      <point x="511.5" y="1011.0" type="qcurve" smooth="yes" name="inserted"/>
      <point x="480" y="1047"/>
      <point x="448" y="1141"/>
    </contour>
    <contour>
      <point x="593" y="1196" type="qcurve" smooth="yes"/>
      <point x="591" y="1172"/>
      <point x="605" y="1129"/>
      <point x="619.0" y="1113.0" type="qcurve" smooth="yes" name="inserted"/>
      <point x="633" y="1097"/>
      <point x="673" y="1078"/>
      <point x="697" y="1078" type="qcurve" smooth="yes"/>
      <point x="724" y="1078"/>
      <point x="770" y="1100"/>
      <point x="787.5" y="1118.0" type="qcurve" smooth="yes" name="inserted"/>
      <point x="805" y="1136"/>
      <point x="827" y="1182"/>
      <point x="830" y="1208" type="qcurve" smooth="yes"/>
      <point x="833" y="1231"/>
      <point x="821" y="1275"/>
      <point x="808.5" y="1292.5" type="qcurve" smooth="yes" name="inserted"/>
      <point x="796" y="1310"/>
      <point x="757" y="1331"/>
      <point x="732" y="1331" type="qcurve" smooth="yes"/>
      <point x="705" y="1331"/>
      <point x="657" y="1308"/>
      <point x="638.0" y="1289.0" type="qcurve" smooth="yes" name="inserted"/>
      <point x="619" y="1270"/>
      <point x="596" y="1222"/>
    </contour>
  </outline>
</glyph>
<glyph name="plusminus" format="2">
  <advance width="1202"/>
  <unicode hex="00B1"/>
  <outline>
    <contour>
      <point x="763" y="933" type="line"/>
      <point x="1084" y="933" type="line"/>
      <point x="1048" y="701" type="line"/>
      <point x="727" y="701" type="line"/>
      <point x="669" y="331" type="line"/>
      <point x="430" y="331" type="line"/>
      <point x="488" y="701" type="line"/>
      <point x="157" y="701" type="line"/>
      <point x="194" y="933" type="line"/>
      <point x="524" y="933" type="line"/>
      <point x="579" y="1284" type="line"/>
      <point x="818" y="1284" type="line"/>
    </contour>
    <contour>
      <point x="908" y="0" type="line"/>
      <point x="72" y="0" type="line"/>
      <point x="112" y="227" type="line"/>
      <point x="948" y="227" type="line"/>
    </contour>
  </outline>
</glyph>
<glyph name="twosuperior" format="2">
  <advance width="1202"/>
  <unicode hex="00B2"/>
  <outline>
    <contour>
      <point x="918" y="667" type="line"/>
      <point x="317" y="667" type="line"/>
      <point x="342" y="811" type="line"/>
      <point x="652" y="1062" type="line" smooth="yes"/>
      <point x="670" y="1077"/>
      <point x="713" y="1115"/>
      <point x="732.5" y="1136.0" type="qcurve" smooth="yes" name="inserted"/>
      <point x="752" y="1157"/>
      <point x="780" y="1204"/>
      <point x="785" y="1229" type="qcurve" smooth="yes"/>
      <point x="792" y="1267"/>
      <point x="754" y="1310"/>
      <point x="717" y="1310" type="qcurve" smooth="yes"/>
      <point x="690" y="1310"/>
      <point x="649" y="1292"/>
      <point x="633.5" y="1276.0" type="qcurve" smooth="yes" name="inserted"/>
      <point x="618" y="1260"/>
      <point x="598" y="1219"/>
      <point x="593" y="1195" type="qcurve"/>
      <point x="395" y="1194" type="line"/>
      <point x="400" y="1258"/>
      <point x="453" y="1360"/>
      <point x="495.5" y="1396.0" type="qcurve" smooth="yes" name="inserted"/>
      <point x="538" y="1432"/>
      <point x="649" y="1470"/>
      <point x="712" y="1469" type="qcurve" smooth="yes"/>
      <point x="768" y="1468"/>
      <point x="870" y="1439"/>
      <point x="909.0" y="1409.5" type="qcurve" smooth="yes" name="inserted"/>
      <point x="948" y="1380"/>
      <point x="992" y="1290"/>
      <point x="989" y="1228" type="qcurve" smooth="yes"/>
      <point x="987" y="1174"/>
      <point x="939" y="1085"/>
      <point x="903.0" y="1047.5" type="qcurve" smooth="yes" name="inserted"/>
      <point x="867" y="1010"/>
      <point x="782" y="947"/>
      <point x="742" y="919" type="qcurve" smooth="yes"/>
      <point x="610" y="828" type="line"/>
      <point x="946" y="826" type="line"/>
    </contour>
  </outline>
</glyph>
<glyph name="threesuperior" format="2">
  <advance width="1202"/>
  <unicode hex="00B3"/>
  <outline>
    <contour>
      <point x="923" y="1008" type="qcurve" smooth="yes"/>
      <point x="941" y="986"/>
      <point x="957" y="928"/>
      <point x="956" y="894" type="qcurve" smooth="yes"/>
      <point x="954" y="828"/>
      <point x="891" y="736"/>
      <point x="842" y="708" type="qcurve" smooth="yes" name="inserted"/>
      <point x="793" y="679"/>
      <point x="674" y="654"/>
      <point x="618" y="655" type="qcurve" smooth="yes"/>
      <point x="560" y="656"/>
      <point x="458" y="687"/>
      <point x="420" y="718" type="qcurve" smooth="yes" name="inserted"/>
      <point x="381" y="748"/>
      <point x="335" y="840"/>
      <point x="335" y="902" type="qcurve"/>
      <point x="527" y="901" type="line"/>
      <point x="528" y="881"/>
      <point x="542" y="851"/>
      <point x="553" y="841" type="qcurve" smooth="yes"/>
      <point x="567" y="829"/>
      <point x="607" y="817"/>
      <point x="632" y="817" type="qcurve" smooth="yes"/>
      <point x="654" y="817"/>
      <point x="699" y="829"/>
      <point x="718" y="841" type="qcurve" smooth="yes" name="inserted"/>
      <point x="736" y="852"/>
      <point x="761" y="888"/>
      <point x="765" y="912" type="qcurve" smooth="yes"/>
      <point x="769" y="938"/>
      <point x="756" y="971"/>
      <point x="742" y="981" type="qcurve" smooth="yes" name="inserted"/>
      <point x="727" y="990"/>
      <point x="687" y="998"/>
      <point x="666" y="999" type="qcurve" smooth="yes"/>
      <point x="574" y="999" type="line"/>
      <point x="585" y="1135" type="line"/>
      <point x="667" y="1135" type="line" smooth="yes"/>
      <point x="690" y="1136"/>
      <point x="735" y="1148"/>
      <point x="754" y="1160" type="qcurve" smooth="yes" name="inserted"/>
      <point x="773" y="1171"/>
      <point x="799" y="1206"/>
      <point x="803" y="1232" type="qcurve" smooth="yes"/>
      <point x="806" y="1251"/>
      <point x="795" y="1279"/>
      <point x="783" y="1288" type="qcurve" smooth="yes" name="inserted"/>
      <point x="771" y="1297"/>
      <point x="739" y="1306"/>
      <point x="722" y="1306" type="qcurve" smooth="yes"/>
      <point x="685" y="1306"/>
      <point x="627" y="1276"/>
      <point x="612" y="1242" type="qcurve"/>
      <point x="410" y="1241" type="line"/>
      <point x="415" y="1301"/>
      <point x="470" y="1387"/>
      <point x="512" y="1415" type="qcurve" smooth="yes" name="inserted"/>
      <point x="554" y="1442"/>
      <point x="659" y="1468"/>
      <point x="715" y="1468" type="qcurve" smooth="yes"/>
      <point x="765" y="1467"/>
      <point x="869" y="1443"/>
      <point x="911" y="1417" type="qcurve" smooth="yes" name="inserted"/>
      <point x="952" y="1391"/>
      <point x="1003" y="1308"/>
      <point x="1000" y="1248" type="qcurve" smooth="yes"/>
      <point x="998" y="1212"/>
      <point x="971" y="1155"/>
      <point x="950" y="1134" type="qcurve" smooth="yes" name="inserted"/>
      <point x="928" y="1112"/>
      <point x="872" y="1078"/>
      <point x="841" y="1064" type="qcurve"/>
      <point x="868" y="1055"/>
      <point x="909" y="1027"/>
    </contour>
  </outline>
</glyph>
<glyph name="acute" format="2">
  <advance width="1202"/>
  <unicode hex="00B4"/>
  <outline>
    <contour>
      <point x="682" y="1478" type="line"/>
      <point x="996" y="1478" type="line"/>
      <point x="683" y="1199" type="line"/>
      <point x="456" y="1199" type="line"/>
    </contour>
  </outline>
</glyph>
<glyph name="mu" format="2">
  <advance width="1202"/>
  <unicode hex="00B5"/>
  <outline>
    <contour>
      <point x="521" y="1082" type="line"/>
      <point x="419" y="460" type="line" smooth="yes"/>
      <point x="416" y="434"/>
      <point x="412" y="380"/>
      <point x="413" y="354" type="qcurve" smooth="yes"/>
      <point x="414.93415282980567" y="323.0535547231091"/>
      <point x="429.36560216611224" y="265.7048864820975"/>
      <point x="448" y="245" type="qcurve" smooth="yes"/>
      <point x="462" y="228"/>
      <point x="510" y="207"/>
      <point x="544" y="206" type="qcurve" smooth="yes"/>
      <point x="579" y="205"/>
      <point x="642" y="218"/>
      <point x="670" y="231" type="qcurve" smooth="yes"/>
      <point x="697" y="244"/>
      <point x="746" y="285"/>
      <point x="767" y="312" type="qcurve"/>
      <point x="902" y="1082" type="line"/>
      <point x="1174" y="1082" type="line"/>
      <point x="986" y="0" type="line"/>
      <point x="744" y="0" type="line"/>
      <point x="753" y="72" type="line"/>
      <point x="725" y="48"/>
      <point x="667" y="11"/>
      <point x="635" y="-1" type="qcurve" smooth="yes"/>
      <point x="609" y="-11"/>
      <point x="551" y="-21"/>
      <point x="519" y="-21" type="qcurve" smooth="yes"/>
      <point x="472" y="-21" name="inserted"/>
      <point x="385" y="4"/>
      <point x="346" y="29" type="qcurve"/>
      <point x="261" y="-416" type="line"/>
      <point x="-10" y="-416" type="line"/>
      <point x="250" y="1082" type="line"/>
    </contour>
  </outline>
</glyph>
<glyph name="periodcentered" format="2">
  <advance width="1202"/>
  <unicode hex="00B7"/>
  <outline>
    <contour>
      <point x="497" y="696" type="qcurve" smooth="yes"/>
      <point x="497.0" y="761.2238661712155"/>
      <point x="584.2051724577739" y="852.0"/>
      <point x="651" y="852" type="qcurve" smooth="yes"/>
      <point x="715.7688191917551" y="854.0240255997423"/>
      <point x="804.0" y="771.2257568641868"/>
      <point x="804" y="706" type="qcurve" smooth="yes"/>
      <point x="804.0" y="639.2051724577739"/>
      <point x="715.2238661712155" y="551.0"/>
      <point x="650" y="551" type="qcurve" smooth="yes"/>
      <point x="585.1492844248769" y="548.9734151382773"/>
      <point x="497.0" y="630.8545815056863"/>
    </contour>
  </outline>
</glyph>
<glyph name="cedilla" format="2">
  <advance width="1202"/>
  <unicode hex="00B8"/>
  <outline>
    <contour>
      <point x="547" y="5" type="line"/>
      <point x="526" y="-54" type="line"/>
      <point x="553" y="-60"/>
      <point x="596" y="-84"/>
      <point x="611" y="-101" type="qcurve" smooth="yes"/>
      <point x="630" y="-123"/>
      <point x="649" y="-182"/>
      <point x="648" y="-217" type="qcurve" smooth="yes"/>
      <point x="647" y="-265"/>
      <point x="615" y="-339"/>
      <point x="588" y="-365" type="qcurve" smooth="yes" name="inserted"/>
      <point x="560" y="-392"/>
      <point x="488" y="-428"/>
      <point x="448" y="-439" type="qcurve" smooth="yes" name="inserted"/>
      <point x="407" y="-450"/>
      <point x="323" y="-461"/>
      <point x="284" y="-462" type="qcurve"/>
      <point x="290" y="-298" type="line"/>
      <point x="312" y="-297"/>
      <point x="356" y="-287"/>
      <point x="375" y="-277" type="qcurve" smooth="yes" name="inserted"/>
      <point x="393" y="-267"/>
      <point x="419" y="-234"/>
      <point x="424" y="-208" type="qcurve" smooth="yes"/>
      <point x="428" y="-182"/>
      <point x="404" y="-154"/>
      <point x="384" y="-147" type="qcurve" smooth="yes" name="inserted"/>
      <point x="364" y="-141"/>
      <point x="317" y="-138"/>
      <point x="300" y="-136" type="qcurve"/>
      <point x="344" y="4" type="line"/>
    </contour>
  </outline>
</glyph>
<glyph name="onesuperior" format="2">
  <advance width="1202"/>
  <unicode hex="00B9"/>
  <outline>
    <contour>
      <point x="772" y="659" type="line"/>
      <point x="577" y="659" type="line"/>
      <point x="672" y="1208" type="line"/>
      <point x="479" y="1166" type="line"/>
      <point x="508" y="1329" type="line"/>
      <point x="877" y="1445" type="line"/>
      <point x="901" y="1445" type="line"/>
    </contour>
  </outline>
</glyph>
<glyph name="onequarter" format="2">
  <advance width="1202"/>
  <unicode hex="00BC"/>
  <outline>
    <contour>
      <point x="440.9" y="751.0" type="line"/>
      <point x="265.40000000000003" y="751.0" type="line"/>
      <point x="350.90000000000003" y="1245.1" type="line"/>
      <point x="177.2" y="1207.3" type="line"/>
      <point x="203.3" y="1354.0" type="line"/>
      <point x="535.4" y="1458.4" type="line"/>
      <point x="557.0" y="1458.4" type="line"/>
    </contour>
    <contour>
      <point x="1006.8000000000001" y="289.8" type="line"/>
      <point x="1094.1" y="290.7" type="line"/>
      <point x="1066.2" y="144.0" type="line"/>
      <point x="987.9" y="144.0" type="line"/>
      <point x="961.8000000000001" y="0.0" type="line"/>
      <point x="784.5" y="0.0" type="line"/>
      <point x="809.7" y="144.0" type="line"/>
      <point x="508.20000000000005" y="144.0" type="line"/>
      <point x="519.9" y="272.7" type="line"/>
      <point x="900.6" y="712.8000000000001" type="line"/>
      <point x="1080" y="710" type="line"/>
    </contour>
    <contour>
      <point x="699.9000000000001" y="290.7" type="line"/>
      <point x="834.0" y="290.7" type="line"/>
      <point x="876.3000000000001" y="486.90000000000003" type="line"/>
      <point x="861.9" y="467.1" type="line"/>
    </contour>
    <component base="fraction" xOffset="15" yOffset="8"/>
  </outline>
</glyph>
<glyph name="onehalf" format="2">
  <advance width="1202"/>
  <unicode hex="00BD"/>
  <outline>
    <contour>
      <point x="401.9" y="752.0" type="line"/>
      <point x="226.40000000000003" y="752.0" type="line"/>
      <point x="311.90000000000003" y="1246.1" type="line"/>
      <point x="138.2" y="1208.3" type="line"/>
      <point x="164.3" y="1355.0" type="line"/>
      <point x="496.4" y="1459.4" type="line"/>
      <point x="518.0" y="1459.4" type="line"/>
    </contour>
    <contour>
      <point x="1077.8000000000002" y="0.0" type="line"/>
      <point x="536.9" y="0.0" type="line"/>
      <point x="559.4" y="129.6" type="line"/>
      <point x="838.4000000000001" y="355.5" type="line" smooth="yes"/>
      <point x="854.6" y="369.0"/>
      <point x="893.3000000000001" y="403.2"/>
      <point x="910.85" y="422.1" type="qcurve" smooth="yes" name="inserted"/>
      <point x="928.4" y="441.0"/>
      <point x="953.6" y="483.3"/>
      <point x="958.1" y="505.8" type="qcurve" smooth="yes"/>
      <point x="964.4" y="540.0"/>
      <point x="930.2" y="578.7"/>
      <point x="896.9" y="578.7" type="qcurve" smooth="yes"/>
      <point x="872.6" y="578.7"/>
      <point x="835.7" y="562.5"/>
      <point x="821.75" y="548.1" type="qcurve" smooth="yes" name="inserted"/>
      <point x="807.8" y="533.7"/>
      <point x="789.8" y="496.8"/>
      <point x="785.3" y="475.2" type="qcurve"/>
      <point x="607.1" y="474.3" type="line"/>
      <point x="611.6" y="531.9"/>
      <point x="659.3" y="623.7"/>
      <point x="697.55" y="656.1" type="qcurve" smooth="yes" name="inserted"/>
      <point x="735.8" y="688.5"/>
      <point x="835.7" y="722.7"/>
      <point x="892.4" y="721.8000000000001" type="qcurve" smooth="yes"/>
      <point x="942.8000000000001" y="720.9"/>
      <point x="1034.6" y="694.8000000000001"/>
      <point x="1069.7" y="668.25" type="qcurve" smooth="yes" name="inserted"/>
      <point x="1104.8000000000002" y="641.7"/>
      <point x="1144.4" y="560.7"/>
      <point x="1141.7" y="504.90000000000003" type="qcurve" smooth="yes"/>
      <point x="1139.9" y="456.3"/>
      <point x="1096.7" y="376.2"/>
      <point x="1064.3000000000002" y="342.45" type="qcurve" smooth="yes" name="inserted"/>
      <point x="1031.9" y="308.7"/>
      <point x="955.4" y="252.0"/>
      <point x="919.4" y="226.8" type="qcurve" smooth="yes"/>
      <point x="800.6" y="144.9" type="line"/>
      <point x="1103.0" y="143.1" type="line"/>
    </contour>
    <component base="fraction" xOffset="-52" yOffset="8"/>
  </outline>
</glyph>
<glyph name="threequarters" format="2">
  <advance width="1202"/>
  <unicode hex="00BE"/>
  <outline>
    <contour>
      <point x="1053.8000000000002" y="289.8" type="line"/>
      <point x="1141.1" y="290.7" type="line"/>
      <point x="1113.2" y="144.0" type="line"/>
      <point x="1034.9" y="144.0" type="line"/>
      <point x="1008.8000000000001" y="0.0" type="line"/>
      <point x="831.5" y="0.0" type="line"/>
      <point x="856.7" y="144.0" type="line"/>
      <point x="555.2" y="144.0" type="line"/>
      <point x="566.9" y="272.7" type="line"/>
      <point x="947.6" y="708.3000000000001" type="line"/>
      <point x="947.6" y="712.8000000000001" type="line"/>
      <point x="1126.7" y="710.1" type="line"/>
    </contour>
    <contour>
      <point x="746.9000000000001" y="290.7" type="line"/>
      <point x="881.0" y="290.7" type="line"/>
      <point x="923.3000000000001" y="486.90000000000003" type="line"/>
      <point x="908.9" y="467.1" type="line"/>
    </contour>
    <contour>
      <point x="328.5" y="1166.1" type="line"/>
      <point x="402.3" y="1166.1" type="line" smooth="yes"/>
      <point x="423.0" y="1167.0"/>
      <point x="463.5" y="1177.8"/>
      <point x="480.6" y="1188.15" type="qcurve" smooth="yes" name="inserted"/>
      <point x="497.70000000000005" y="1198.5"/>
      <point x="521.1" y="1230.0"/>
      <point x="524.7" y="1253.4" type="qcurve" smooth="yes"/>
      <point x="527.4" y="1270.5"/>
      <point x="517.5" y="1295.7"/>
      <point x="506.70000000000005" y="1303.8000000000002" type="qcurve" smooth="yes" name="inserted"/>
      <point x="495.9" y="1311.9"/>
      <point x="467.1" y="1320.0"/>
      <point x="451.80000000000007" y="1320.0" type="qcurve" smooth="yes"/>
      <point x="418.5" y="1320.0"/>
      <point x="366.3" y="1293.0"/>
      <point x="352.8" y="1262.4" type="qcurve"/>
      <point x="171.0" y="1261.5" type="line"/>
      <point x="175.5" y="1315.5"/>
      <point x="225.0" y="1392.9"/>
      <point x="262.8" y="1417.65" type="qcurve" smooth="yes" name="inserted"/>
      <point x="300.6" y="1442.4"/>
      <point x="395.1" y="1465.8000000000002"/>
      <point x="445.5" y="1465.8000000000002" type="qcurve" smooth="yes"/>
      <point x="490.5" y="1464.9"/>
      <point x="584.1" y="1443.3000000000002"/>
      <point x="621.45" y="1419.9" type="qcurve" smooth="yes" name="inserted"/>
      <point x="658.8000000000001" y="1396.5"/>
      <point x="704.7" y="1321.8000000000002"/>
      <point x="702.0" y="1267.8000000000002" type="qcurve" smooth="yes"/>
      <point x="700.2" y="1235.4"/>
      <point x="675.9" y="1184.1"/>
      <point x="656.5500000000001" y="1164.75" type="qcurve" smooth="yes" name="inserted"/>
      <point x="637.2" y="1145.4"/>
      <point x="586.8000000000001" y="1114.8"/>
      <point x="558.9" y="1102.2" type="qcurve"/>
      <point x="612.0" y="1084.2"/>
      <point x="664.2" y="1005.0"/>
      <point x="662.4" y="949.2" type="qcurve" smooth="yes"/>
      <point x="660.6" y="889.8"/>
      <point x="603.9" y="807.0"/>
      <point x="559.8000000000001" y="781.35" type="qcurve" smooth="yes" name="inserted"/>
      <point x="515.7" y="755.7"/>
      <point x="408.6" y="733.2"/>
      <point x="358.2" y="734.1" type="qcurve" smooth="yes"/>
      <point x="306.0" y="735.0"/>
      <point x="214.2" y="762.9"/>
      <point x="179.55" y="790.35" type="qcurve" smooth="yes" name="inserted"/>
      <point x="144.9" y="817.8"/>
      <point x="103.5" y="900.6"/>
      <point x="103.5" y="956.4" type="qcurve"/>
      <point x="276.3" y="955.5" type="line"/>
      <point x="279.0" y="915.0"/>
      <point x="330.3" y="879.9"/>
      <point x="370.8" y="879.9" type="qcurve" smooth="yes"/>
      <point x="390.6" y="879.9"/>
      <point x="431.1" y="890.7"/>
      <point x="447.75" y="901.05" type="qcurve" smooth="yes" name="inserted"/>
      <point x="464.4" y="911.4"/>
      <point x="486.9" y="943.8"/>
      <point x="490.5" y="965.4" type="qcurve" smooth="yes"/>
      <point x="494.1" y="988.8"/>
      <point x="482.4" y="1018.5"/>
      <point x="469.35" y="1027.05" type="qcurve" smooth="yes" name="inserted"/>
      <point x="456.30000000000007" y="1035.6"/>
      <point x="420.30000000000007" y="1042.8"/>
      <point x="401.40000000000003" y="1043.7" type="qcurve" smooth="yes"/>
      <point x="318.6" y="1043.7" type="line"/>
    </contour>
    <component base="fraction" xOffset="96" yOffset="8"/>
  </outline>
</glyph>
<glyph name="questiondown" format="2">
  <advance width="1202"/>
  <unicode hex="00BF"/>
  <outline>
    <contour>
      <point x="765" y="640" type="line"/>
      <point x="760" y="580"/>
      <point x="743" y="487"/>
      <point x="726" y="448" type="qcurve" smooth="yes" name="inserted"/>
      <point x="708" y="408"/>
      <point x="649" y="337"/>
      <point x="601" y="299" type="qcurve" smooth="yes"/>
      <point x="566" y="271"/>
      <point x="490" y="202"/>
      <point x="457" y="163" type="qcurve" smooth="yes" name="inserted"/>
      <point x="424" y="123"/>
      <point x="377" y="36"/>
      <point x="370" y="-11" type="qcurve" smooth="yes"/>
      <point x="365" y="-46"/>
      <point x="376" y="-104"/>
      <point x="392" y="-125" type="qcurve" smooth="yes"/>
      <point x="407" y="-145"/>
      <point x="456" y="-167"/>
      <point x="490" y="-168" type="qcurve" smooth="yes"/>
      <point x="535" y="-169"/>
      <point x="605" y="-139"/>
      <point x="630" y="-112" type="qcurve" smooth="yes"/>
      <point x="650" y="-90"/>
      <point x="677" y="-32"/>
      <point x="684" y="2" type="qcurve"/>
      <point x="955" y="3" type="line"/>
      <point x="946" y="-95"/>
      <point x="865" y="-244"/>
      <point x="801" y="-294" type="qcurve" smooth="yes" name="inserted"/>
      <point x="737" y="-345"/>
      <point x="570" y="-395"/>
      <point x="475" y="-393" type="qcurve" smooth="yes"/>
      <point x="387" y="-391"/>
      <point x="240" y="-340"/>
      <point x="188" y="-292" type="qcurve" smooth="yes" name="inserted"/>
      <point x="136" y="-244"/>
      <point x="84" y="-103"/>
      <point x="92" y="-10" type="qcurve" smooth="yes"/>
      <point x="98" y="64"/>
      <point x="159" y="186"/>
      <point x="204" y="239" type="qcurve" smooth="yes" name="inserted"/>
      <point x="249" y="291"/>
      <point x="358" y="382"/>
      <point x="411" y="425" type="qcurve" smooth="yes"/>
      <point x="440" y="449"/>
      <point x="480" y="494"/>
      <point x="493" y="520" type="qcurve" smooth="yes" name="inserted"/>
      <point x="506" y="545"/>
      <point x="521" y="603"/>
      <point x="527" y="639" type="qcurve"/>
    </contour>
    <contour>
      <point x="581" y="938" type="qcurve" smooth="yes"/>
      <point x="581" y="999"/>
      <point x="646" y="1075"/>
      <point x="709" y="1077" type="qcurve" smooth="yes"/>
      <point x="771" y="1079"/>
      <point x="841" y="1007"/>
      <point x="841" y="946" type="qcurve" smooth="yes"/>
      <point x="842" y="886"/>
      <point x="771" y="818"/>
      <point x="711" y="816" type="qcurve" smooth="yes"/>
      <point x="652" y="814"/>
      <point x="582" y="878"/>
    </contour>
  </outline>
</glyph>
<glyph name="AE" format="2">
  <advance width="1202"/>
  <unicode hex="00C6"/>
  <outline>
    <contour>
      <point x="1039" y="0" type="line"/>
      <point x="517" y="0" type="line"/>
      <point x="575" y="334" type="line"/>
      <point x="371" y="334" type="line"/>
      <point x="221" y="0" type="line"/>
      <point x="-63" y="0" type="line"/>
      <point x="655" y="1456" type="line"/>
      <point x="1271" y="1456" type="line"/>
      <point x="1231" y="1228" type="line"/>
      <point x="991" y="1228" type="line"/>
      <point x="927" y="862" type="line"/>
      <point x="1138" y="862" type="line"/>
      <point x="1098" y="635" type="line"/>
      <point x="888" y="635" type="line"/>
      <point x="817" y="226" type="line"/>
      <point x="1078" y="226" type="line"/>
    </contour>
    <contour>
      <point x="476" y="574" type="line"/>
      <point x="616" y="574" type="line"/>
      <point x="706" y="1086" type="line"/>
    </contour>
  </outline>
</glyph>
<glyph name="Eth" format="2">
  <advance width="1202"/>
  <unicode hex="00D0"/>
  <outline>
    <contour>
      <point x="32" y="0" type="line"/>
      <point x="143" y="643" type="line"/>
      <point x="-34" y="643" type="line"/>
      <point x="-2" y="823" type="line"/>
      <point x="174" y="823" type="line"/>
      <point x="284" y="1456" type="line"/>
      <point x="636" y="1455" type="line" smooth="yes"/>
      <point x="742" y="1453"/>
      <point x="912" y="1388"/>
      <point x="975" y="1333" type="qcurve" smooth="yes"/>
      <point x="1035" y="1282"/>
      <point x="1119" y="1137"/>
      <point x="1139" y="1054" type="qcurve" smooth="yes"/>
      <point x="1154" y="993"/>
      <point x="1161" y="857"/>
      <point x="1152" y="787" type="qcurve" smooth="yes"/>
      <point x="1135" y="667" type="line" smooth="yes"/>
      <point x="1115" y="530"/>
      <point x="997" y="286"/>
      <point x="906" y="196" type="qcurve" smooth="yes" name="inserted"/>
      <point x="814" y="105"/>
      <point x="571" y="-1"/>
      <point x="426" y="0" type="qcurve" smooth="yes"/>
    </contour>
    <contour>
      <point x="639" y="643" type="line"/>
      <point x="419" y="643" type="line"/>
      <point x="347" y="226" type="line"/>
      <point x="438" y="224" type="line" smooth="yes"/>
      <point x="533" y="224"/>
      <point x="677" y="299"/>
      <point x="728.0" y="361" type="qcurve" smooth="yes" name="inserted"/>
      <point x="779" y="422"/>
      <point x="842" y="582"/>
      <point x="855" y="667" type="qcurve" smooth="yes"/>
      <point x="872" y="790" type="line" smooth="yes"/>
      <point x="878" y="838"/>
      <point x="879" y="939"/>
      <point x="872" y="987.0" type="qcurve" smooth="yes" name="inserted"/>
      <point x="864" y="1035"/>
      <point x="829" y="1120"/>
      <point x="800" y="1153" type="qcurve" smooth="yes" name="inserted"/>
      <point x="770" y="1185"/>
      <point x="684" y="1224"/>
      <point x="625" y="1227" type="qcurve" smooth="yes"/>
      <point x="521" y="1228" type="line"/>
      <point x="450" y="823" type="line"/>
      <point x="671" y="823" type="line"/>
    </contour>
  </outline>
</glyph>
<glyph name="Oslash" format="2">
  <advance width="1202"/>
  <unicode hex="00D8"/>
  <outline>
    <contour>
      <point x="1124" y="622" type="line" smooth="yes"/>
      <point x="1111" y="541"/>
      <point x="1061" y="381"/>
      <point x="1023" y="309" type="qcurve" smooth="yes" name="inserted"/>
      <point x="984" y="237"/>
      <point x="881" y="114"/>
      <point x="816" y="70" type="qcurve" smooth="yes" name="inserted"/>
      <point x="751" y="26"/>
      <point x="595" y="-22"/>
      <point x="503" y="-20" type="qcurve" smooth="yes"/>
      <point x="417" y="-18"/>
      <point x="286" y="33"/>
      <point x="236" y="78" type="qcurve"/>
      <point x="111" y="-95" type="line"/>
      <point x="-82" y="-95" type="line"/>
      <point x="139" y="212" type="line"/>
      <point x="109" y="277"/>
      <point x="80" y="426"/>
      <point x="80" y="502" type="qcurve" smooth="yes"/>
      <point x="80" y="532"/>
      <point x="84" y="592"/>
      <point x="88" y="621" type="qcurve" smooth="yes"/>
      <point x="121" y="833" type="line" smooth="yes"/>
      <point x="133" y="913"/>
      <point x="182" y="1072"/>
      <point x="219" y="1144" type="qcurve" smooth="yes" name="inserted"/>
      <point x="255" y="1216"/>
      <point x="355" y="1340"/>
      <point x="418" y="1385" type="qcurve" smooth="yes" name="inserted"/>
      <point x="481" y="1429"/>
      <point x="635" y="1478"/>
      <point x="726" y="1476" type="qcurve" smooth="yes"/>
      <point x="770" y="1475"/>
      <point x="848" y="1460"/>
      <point x="882" y="1447" type="qcurve" smooth="yes"/>
      <point x="911" y="1435"/>
      <point x="964" y="1405"/>
      <point x="987" y="1386" type="qcurve"/>
      <point x="1082" y="1518" type="line"/>
      <point x="1276" y="1518" type="line"/>
      <point x="1090" y="1261" type="line"/>
      <point x="1115" y="1216"/>
      <point x="1148" y="1113"/>
      <point x="1156" y="1058" type="qcurve" smooth="yes" name="inserted"/>
      <point x="1164" y="1003"/>
      <point x="1164" y="889"/>
      <point x="1157" y="833" type="qcurve" smooth="yes"/>
    </contour>
    <contour>
      <point x="366" y="620" type="line" smooth="yes"/>
      <point x="364" y="607"/>
      <point x="361" y="578"/>
      <point x="359" y="563" type="qcurve" smooth="yes"/>
      <point x="358" y="550"/>
      <point x="356" y="524"/>
      <point x="355" y="511" type="qcurve"/>
      <point x="836" y="1178" type="line"/>
      <point x="826" y="1192"/>
      <point x="801" y="1215"/>
      <point x="786" y="1223" type="qcurve" smooth="yes"/>
      <point x="769" y="1232"/>
      <point x="728" y="1243"/>
      <point x="704" y="1244" type="qcurve" smooth="yes"/>
      <point x="649" y="1246"/>
      <point x="565" y="1211"/>
      <point x="534" y="1180" type="qcurve" smooth="yes" name="inserted"/>
      <point x="502" y="1148"/>
      <point x="456" y="1065"/>
      <point x="441" y="1019" type="qcurve" smooth="yes" name="inserted"/>
      <point x="425" y="973"/>
      <point x="405" y="878"/>
      <point x="399" y="835" type="qcurve" smooth="yes"/>
    </contour>
    <contour>
      <point x="879" y="836" type="line" smooth="yes"/>
      <point x="883" y="868"/>
      <point x="889" y="942"/>
      <point x="888" y="981" type="qcurve"/>
      <point x="389" y="290" type="line"/>
      <point x="409" y="255"/>
      <point x="474" y="212"/>
      <point x="525" y="210" type="qcurve" smooth="yes"/>
      <point x="579" y="208"/>
      <point x="665" y="243"/>
      <point x="699" y="274" type="qcurve" smooth="yes" name="inserted"/>
      <point x="732" y="305"/>
      <point x="782" y="389"/>
      <point x="800" y="436" type="qcurve" smooth="yes" name="inserted"/>
      <point x="817" y="482"/>
      <point x="839" y="578"/>
      <point x="846" y="621" type="qcurve" smooth="yes"/>
    </contour>
  </outline>
</glyph>
<glyph name="Thorn" format="2">
  <advance width="1202"/>
  <unicode hex="00DE"/>
  <outline>
    <contour>
      <point x="552" y="1456" type="line"/>
      <point x="505" y="1185" type="line"/>
      <point x="710" y="1184" type="line" smooth="yes"/>
      <point x="809" y="1182"/>
      <point x="981" y="1124"/>
      <point x="1043.5" y="1068.5" type="qcurve" smooth="yes" name="inserted"/>
      <point x="1106" y="1013"/>
      <point x="1172" y="851"/>
      <point x="1163" y="745" type="qcurve" smooth="yes"/>
      <point x="1153" y="629"/>
      <point x="1050" y="458"/>
      <point x="971.0" y="401.0" type="qcurve" smooth="yes" name="inserted"/>
      <point x="892" y="344"/>
      <point x="691" y="288"/>
      <point x="584" y="288" type="qcurve" smooth="yes"/>
      <point x="350" y="289" type="line"/>
      <point x="299" y="0" type="line"/>
      <point x="27" y="0" type="line"/>
      <point x="280" y="1456" type="line"/>
    </contour>
    <contour>
      <point x="466" y="961" type="line"/>
      <point x="388" y="513" type="line"/>
      <point x="595" y="511" type="line" smooth="yes"/>
      <point x="650" y="512"/>
      <point x="750" y="541"/>
      <point x="790.0" y="570.5" type="qcurve" smooth="yes" name="inserted"/>
      <point x="830" y="600"/>
      <point x="883" y="686"/>
      <point x="891" y="744" type="qcurve" smooth="yes"/>
      <point x="898" y="793"/>
      <point x="876" y="872"/>
      <point x="850.5" y="899.5" type="qcurve" smooth="yes" name="inserted"/>
      <point x="825" y="927"/>
      <point x="748" y="958"/>
      <point x="699" y="960" type="qcurve" smooth="yes"/>
    </contour>
  </outline>
</glyph>
<glyph name="germandbls" format="2">
  <advance width="1202"/>
  <unicode hex="00DF"/>
  <outline>
    <contour>
      <point x="323" y="0" type="line"/>
      <point x="52" y="0" type="line"/>
      <point x="236" y="1076" type="line" smooth="yes"/>
      <point x="251" y="1180"/>
      <point x="333" y="1360"/>
      <point x="399" y="1426" type="qcurve" smooth="yes" name="inserted"/>
      <point x="465" y="1492"/>
      <point x="645" y="1565"/>
      <point x="756" y="1562" type="qcurve" smooth="yes"/>
      <point x="834" y="1560"/>
      <point x="963" y="1508"/>
      <point x="1009" y="1461" type="qcurve" smooth="yes" name="inserted"/>
      <point x="1054" y="1414"/>
      <point x="1099" y="1284"/>
      <point x="1093" y="1204" type="qcurve" smooth="yes"/>
      <point x="1088" y="1147"/>
      <point x="1044" y="1054"/>
      <point x="1017" y="1010" type="qcurve" smooth="yes" name="inserted"/>
      <point x="990" y="966"/>
      <point x="940" y="877"/>
      <point x="930" y="823" type="qcurve" smooth="yes"/>
      <point x="923" y="784"/>
      <point x="945" y="709"/>
      <point x="965" y="673" type="qcurve" smooth="yes" name="inserted"/>
      <point x="985" y="636"/>
      <point x="1035" y="562"/>
      <point x="1057" y="524" type="qcurve" smooth="yes" name="inserted"/>
      <point x="1078" y="485"/>
      <point x="1105" y="403"/>
      <point x="1102" y="359" type="qcurve" smooth="yes"/>
      <point x="1096" y="267"/>
      <point x="1027" y="124"/>
      <point x="970" y="75" type="qcurve" smooth="yes" name="inserted"/>
      <point x="912" y="26"/>
      <point x="759" y="-24"/>
      <point x="669" y="-23" type="qcurve" smooth="yes"/>
      <point x="599" y="-22"/>
      <point x="453" y="3"/>
      <point x="391" y="39" type="qcurve"/>
      <point x="468" y="258" type="line"/>
      <point x="514" y="230"/>
      <point x="623" y="199"/>
      <point x="677" y="201" type="qcurve" smooth="yes"/>
      <point x="713" y="202"/>
      <point x="772" y="231"/>
      <point x="792" y="254" type="qcurve" smooth="yes"/>
      <point x="809" y="274"/>
      <point x="831" y="324"/>
      <point x="835" y="352" type="qcurve" smooth="yes"/>
      <point x="842" y="393"/>
      <point x="818" y="468"/>
      <point x="797" y="504" type="qcurve" smooth="yes" name="inserted"/>
      <point x="776" y="539"/>
      <point x="724" y="610"/>
      <point x="703" y="647" type="qcurve" smooth="yes" name="inserted"/>
      <point x="681" y="684"/>
      <point x="654" y="765"/>
      <point x="658" y="812" type="qcurve" smooth="yes"/>
      <point x="662" y="867"/>
      <point x="709" y="959"/>
      <point x="737" y="1003" type="qcurve" smooth="yes" name="inserted"/>
      <point x="764" y="1046"/>
      <point x="812" y="1136"/>
      <point x="818" y="1190" type="qcurve" smooth="yes"/>
      <point x="821" y="1216"/>
      <point x="812" y="1269"/>
      <point x="800" y="1291" type="qcurve" smooth="yes" name="inserted"/>
      <point x="787" y="1312"/>
      <point x="745" y="1340"/>
      <point x="715" y="1342" type="qcurve" smooth="yes"/>
      <point x="662" y="1345"/>
      <point x="587" y="1293"/>
      <point x="563" y="1252" type="qcurve" smooth="yes" name="inserted"/>
      <point x="538" y="1211"/>
      <point x="510" y="1115"/>
      <point x="504" y="1073" type="qcurve" smooth="yes"/>
    </contour>
  </outline>
</glyph>
<glyph name="ae" format="2">
  <advance width="1202"/>
  <unicode hex="00E6"/>
  <outline>
    <contour>
      <point x="751" y="-19" type="qcurve" smooth="yes"/>
      <point x="715" y="-18"/>
      <point x="645" y="-5"/>
      <point x="614" y="10" type="qcurve" smooth="yes" name="inserted"/>
      <point x="582" y="24"/>
      <point x="528" y="67"/>
      <point x="508" y="98" type="qcurve"/>
      <point x="486" y="75"/>
      <point x="440" y="36"/>
      <point x="416" y="21" type="qcurve" smooth="yes"/>
      <point x="383" y="1"/>
      <point x="309" y="-21"/>
      <point x="267" y="-20" type="qcurve" smooth="yes"/>
      <point x="198" y="-19"/>
      <point x="93" y="28"/>
      <point x="58" y="69" type="qcurve" smooth="yes" name="inserted"/>
      <point x="22" y="110"/>
      <point x="-11" y="223"/>
      <point x="-8" y="289" type="qcurve" smooth="yes"/>
      <point x="-2" y="388"/>
      <point x="84" y="527"/>
      <point x="152" y="571" type="qcurve" smooth="yes" name="inserted"/>
      <point x="219" y="614"/>
      <point x="388" y="651"/>
      <point x="477" y="648" type="qcurve" smooth="yes"/>
      <point x="485" y="648" type="line"/>
      <point x="509" y="769" type="line" smooth="yes"/>
      <point x="512" y="785"/>
      <point x="513" y="822"/>
      <point x="509" y="839" type="qcurve" smooth="yes" name="inserted"/>
      <point x="505" y="855"/>
      <point x="483" y="877"/>
      <point x="461" y="878" type="qcurve" smooth="yes"/>
      <point x="436" y="879"/>
      <point x="402" y="863"/>
      <point x="391" y="849" type="qcurve" smooth="yes" name="inserted"/>
      <point x="379" y="834"/>
      <point x="365" y="796"/>
      <point x="361" y="775" type="qcurve"/>
      <point x="103" y="785" type="line"/>
      <point x="109" y="860"/>
      <point x="168" y="979"/>
      <point x="215" y="1021" type="qcurve" smooth="yes" name="inserted"/>
      <point x="262" y="1062"/>
      <point x="389" y="1105"/>
      <point x="464" y="1104" type="qcurve" smooth="yes"/>
      <point x="524" y="1103"/>
      <point x="636" y="1070"/>
      <point x="680" y="1028" type="qcurve"/>
      <point x="732" y="1065"/>
      <point x="845" y="1103"/>
      <point x="909" y="1101" type="qcurve" smooth="yes"/>
      <point x="990" y="1099"/>
      <point x="1099" y="1025"/>
      <point x="1130" y="968" type="qcurve" smooth="yes" name="inserted"/>
      <point x="1160" y="910"/>
      <point x="1182" y="760"/>
      <point x="1166" y="660" type="qcurve" smooth="yes"/>
      <point x="1134" y="454" type="line"/>
      <point x="698" y="454" type="line"/>
      <point x="683" y="362" type="line" smooth="yes"/>
      <point x="679" y="330"/>
      <point x="686" y="279"/>
      <point x="697" y="261" type="qcurve" smooth="yes"/>
      <point x="711" y="235"/>
      <point x="770" y="207"/>
      <point x="814" y="206" type="qcurve" smooth="yes"/>
      <point x="837" y="205"/>
      <point x="881" y="210"/>
      <point x="902" y="216" type="qcurve" smooth="yes"/>
      <point x="928" y="222"/>
      <point x="980" y="241"/>
      <point x="1006" y="252" type="qcurve"/>
      <point x="1044" y="58" type="line"/>
      <point x="1014" y="35"/>
      <point x="943" y="4"/>
      <point x="905" y="-4" type="qcurve" smooth="yes" name="inserted"/>
      <point x="866" y="-13"/>
      <point x="787" y="-20"/>
    </contour>
    <contour>
      <point x="864" y="879" type="qcurve" smooth="yes"/>
      <point x="827" y="880"/>
      <point x="781" y="848"/>
      <point x="766.5" y="822.0" type="qcurve" smooth="yes" name="inserted"/>
      <point x="752" y="796"/>
      <point x="737" y="734"/>
      <point x="732" y="705" type="qcurve" smooth="yes"/>
      <point x="720" y="642" type="line"/>
      <point x="916" y="643" type="line"/>
      <point x="931" y="757" type="line" smooth="yes"/>
      <point x="933" y="777"/>
      <point x="932" y="820"/>
      <point x="925.5" y="837.5" type="qcurve" smooth="yes" name="inserted"/>
      <point x="919" y="855"/>
      <point x="890" y="878"/>
    </contour>
    <contour>
      <point x="342" y="185" type="qcurve" smooth="yes"/>
      <point x="352" y="186"/>
      <point x="370" y="191"/>
      <point x="378" y="194" type="qcurve" smooth="yes"/>
      <point x="386" y="198"/>
      <point x="403" y="206"/>
      <point x="411" y="210" type="qcurve"/>
      <point x="473" y="466" type="line"/>
      <point x="469" y="467" type="line"/>
      <point x="430" y="469"/>
      <point x="360" y="440"/>
      <point x="332" y="415" type="qcurve" smooth="yes" name="inserted"/>
      <point x="304" y="389"/>
      <point x="268" y="320"/>
      <point x="264" y="283" type="qcurve" smooth="yes"/>
      <point x="261" y="263"/>
      <point x="268" y="226"/>
      <point x="278" y="213" type="qcurve" smooth="yes" name="inserted"/>
      <point x="287" y="199"/>
      <point x="319" y="184"/>
    </contour>
  </outline>
</glyph>
<glyph name="eth" format="2">
  <advance width="1202"/>
  <unicode hex="00F0"/>
  <outline>
    <contour>
      <point x="1084" y="887" type="qcurve" smooth="yes"/>
      <point x="1088" y="829"/>
      <point x="1084" y="709"/>
      <point x="1076" y="647" type="qcurve" smooth="yes"/>
      <point x="1067" y="579" type="line" smooth="yes"/>
      <point x="1056" y="500"/>
      <point x="1004" y="349"/>
      <point x="964" y="282" type="qcurve" smooth="yes" name="inserted"/>
      <point x="924" y="214"/>
      <point x="818" y="101"/>
      <point x="754" y="61" type="qcurve" smooth="yes" name="inserted"/>
      <point x="689" y="20"/>
      <point x="537" y="-23"/>
      <point x="451" y="-21" type="qcurve" smooth="yes"/>
      <point x="350" y="-18"/>
      <point x="182" y="56"/>
      <point x="124" y="121" type="qcurve" smooth="yes" name="inserted"/>
      <point x="65" y="185"/>
      <point x="7" y="358"/>
      <point x="16" y="460" type="qcurve" smooth="yes"/>
      <point x="25" y="571"/>
      <point x="113" y="759"/>
      <point x="185" y="827" type="qcurve" smooth="yes" name="inserted"/>
      <point x="257" y="895"/>
      <point x="448" y="970"/>
      <point x="561" y="967" type="qcurve" smooth="yes"/>
      <point x="595" y="966"/>
      <point x="661" y="954"/>
      <point x="692" y="943" type="qcurve" smooth="yes"/>
      <point x="724" y="932"/>
      <point x="783" y="899"/>
      <point x="811" y="878" type="qcurve"/>
      <point x="809" y="947"/>
      <point x="776" y="1072"/>
      <point x="742" y="1131" type="qcurve"/>
      <point x="485" y="998" type="line"/>
      <point x="423" y="1121" type="line"/>
      <point x="644" y="1233" type="line"/>
      <point x="617" y="1256"/>
      <point x="556" y="1286"/>
      <point x="524" y="1300" type="qcurve"/>
      <point x="633" y="1514" type="line"/>
      <point x="707" y="1492"/>
      <point x="838" y="1419"/>
      <point x="894" y="1365" type="qcurve"/>
      <point x="1112" y="1477" type="line"/>
      <point x="1172" y="1353" type="line"/>
      <point x="987" y="1262" type="line"/>
      <point x="1029" y="1169"/>
      <point x="1077" y="983"/>
    </contour>
    <contour>
      <point x="696" y="315" type="qcurve" smooth="yes" name="inserted"/>
      <point x="712" y="337"/>
      <point x="740" y="387"/>
      <point x="751" y="413" type="qcurve" smooth="yes"/>
      <point x="765" y="448"/>
      <point x="785" y="519"/>
      <point x="791" y="554" type="qcurve" smooth="yes"/>
      <point x="806" y="650" type="line"/>
      <point x="809" y="664" type="line"/>
      <point x="789" y="692"/>
      <point x="730" y="728"/>
      <point x="697" y="739" type="qcurve" smooth="yes" name="inserted"/>
      <point x="663" y="749"/>
      <point x="592" y="758"/>
      <point x="560" y="758" type="qcurve" smooth="yes"/>
      <point x="500" y="758"/>
      <point x="404" y="705"/>
      <point x="370" y="663" type="qcurve" smooth="yes" name="inserted"/>
      <point x="335" y="620"/>
      <point x="292" y="514"/>
      <point x="286" y="460" type="qcurve" smooth="yes"/>
      <point x="280" y="411"/>
      <point x="298" y="320"/>
      <point x="322" y="284" type="qcurve" smooth="yes" name="inserted"/>
      <point x="345" y="248"/>
      <point x="421" y="203"/>
      <point x="475" y="201" type="qcurve" smooth="yes"/>
      <point x="547" y="199"/>
      <point x="657" y="263"/>
    </contour>
  </outline>
</glyph>
<glyph name="divide" format="2">
  <advance width="1202"/>
  <unicode hex="00F7"/>
  <outline>
    <contour>
      <point x="1094" y="573" type="line"/>
      <point x="99" y="573" type="line"/>
      <point x="139" y="800" type="line"/>
      <point x="1134" y="800" type="line"/>
    </contour>
    <contour>
      <point x="536" y="1084" type="qcurve" smooth="yes"/>
      <point x="536.0" y="1147.21025472501"/>
      <point x="619.190270985535" y="1231.0"/>
      <point x="684" y="1231" type="qcurve" smooth="yes"/>
      <point x="744.0000000000001" y="1232.9999999999998"/>
      <point x="832.0" y="1156.0"/>
      <point x="832" y="1094" type="qcurve" smooth="yes"/>
      <point x="832.0" y="1028.3600262812192"/>
      <point x="743.4887269619411" y="947.0"/>
      <point x="683" y="947" type="qcurve" smooth="yes"/>
      <point x="622.1578068887375" y="947.0"/>
      <point x="536.0" y="1022.8465022689844"/>
    </contour>
    <contour>
      <point x="393" y="273" type="qcurve" smooth="yes"/>
      <point x="393.0" y="336.2102547250098"/>
      <point x="476.190270985535" y="421.0"/>
      <point x="541" y="421" type="qcurve" smooth="yes"/>
      <point x="603.0" y="422.99999999999994"/>
      <point x="690.0" y="345.0"/>
      <point x="690" y="283" type="qcurve" smooth="yes"/>
      <point x="690.0" y="217.3600262812192"/>
      <point x="601.488726961941" y="136.0"/>
      <point x="541" y="136" type="qcurve" smooth="yes"/>
      <point x="481.0" y="136.0"/>
      <point x="393.0" y="211.0"/>
    </contour>
  </outline>
</glyph>
<glyph name="oslash" format="2">
  <advance width="1202"/>
  <unicode hex="00F8"/>
  <outline>
    <contour>
      <point x="91" y="544" type="line" smooth="yes"/>
      <point x="105" y="658"/>
      <point x="196" y="863"/>
      <point x="269" y="940" type="qcurve" smooth="yes" name="inserted"/>
      <point x="342" y="1017"/>
      <point x="541" y="1105"/>
      <point x="663" y="1102" type="qcurve" smooth="yes"/>
      <point x="716" y="1101" name="inserted"/>
      <point x="809" y="1080"/>
      <point x="849" y="1061" type="qcurve"/>
      <point x="949" y="1215" type="line"/>
      <point x="1115" y="1215" type="line"/>
      <point x="962" y="979" type="line"/>
      <point x="998" y="941"/>
      <point x="1049" y="848"/>
      <point x="1064" y="796" type="qcurve" smooth="yes"/>
      <point x="1080" y="741"/>
      <point x="1089" y="618"/>
      <point x="1082" y="554" type="qcurve" smooth="yes"/>
      <point x="1079" y="532" type="line" smooth="yes"/>
      <point x="1065" y="418"/>
      <point x="974" y="215"/>
      <point x="901" y="139" type="qcurve" smooth="yes" name="inserted"/>
      <point x="828" y="63"/>
      <point x="629" y="-24"/>
      <point x="508" y="-21" type="qcurve" smooth="yes"/>
      <point x="459" y="-20"/>
      <point x="374" y="-2"/>
      <point x="337" y="13" type="qcurve"/>
      <point x="237" y="-141" type="line"/>
      <point x="70" y="-141" type="line"/>
      <point x="219" y="90" type="line"/>
      <point x="180" y="128"/>
      <point x="124" y="224"/>
      <point x="108" y="280" type="qcurve" smooth="yes" name="inserted"/>
      <point x="92" y="335"/>
      <point x="82" y="458"/>
      <point x="89" y="523" type="qcurve" smooth="yes"/>
    </contour>
    <contour>
      <point x="360" y="523" type="line" smooth="yes"/>
      <point x="358" y="504"/>
      <point x="356" y="464"/>
      <point x="356" y="444" type="qcurve" smooth="yes"/>
      <point x="356" y="413"/>
      <point x="363" y="351"/>
      <point x="371" y="323" type="qcurve"/>
      <point x="718" y="859" type="line"/>
      <point x="702" y="868" name="inserted"/>
      <point x="665" y="878"/>
      <point x="643" y="878" type="qcurve" smooth="yes"/>
      <point x="574" y="880"/>
      <point x="475" y="820"/>
      <point x="442" y="771" type="qcurve" smooth="yes" name="inserted"/>
      <point x="408" y="722"/>
      <point x="369" y="602"/>
      <point x="362" y="544" type="qcurve" smooth="yes"/>
    </contour>
    <contour>
      <point x="809" y="553" type="line" smooth="yes"/>
      <point x="811" y="572"/>
      <point x="814" y="613"/>
      <point x="814" y="633" type="qcurve" smooth="yes"/>
      <point x="814" y="658"/>
      <point x="809" y="709"/>
      <point x="803" y="734" type="qcurve"/>
      <point x="465" y="212" type="line"/>
      <point x="479" y="207" name="inserted"/>
      <point x="510" y="201"/>
      <point x="528" y="200" type="qcurve" smooth="yes"/>
      <point x="596" y="198"/>
      <point x="695" y="259"/>
      <point x="729" y="308" type="qcurve" smooth="yes" name="inserted"/>
      <point x="762" y="356"/>
      <point x="799" y="475"/>
      <point x="807" y="532" type="qcurve" smooth="yes"/>
    </contour>
  </outline>
</glyph>
<glyph name="thorn" format="2">
  <advance width="1202"/>
  <unicode hex="00FE"/>
  <outline>
    <contour>
      <point x="746" y="8" type="qcurve" smooth="yes"/>
      <point x="710" y="-7"/>
      <point x="628" y="-22"/>
      <point x="582" y="-21" type="qcurve" smooth="yes"/>
      <point x="540" y="-20"/>
      <point x="464" y="-2"/>
      <point x="430" y="16" type="qcurve" smooth="yes"/>
      <point x="403" y="30"/>
      <point x="353" y="71"/>
      <point x="332" y="97" type="qcurve"/>
      <point x="235" y="-416" type="line"/>
      <point x="-36" y="-416" type="line"/>
      <point x="304" y="1543" type="line"/>
      <point x="575" y="1543" type="line"/>
      <point x="468" y="986" type="line"/>
      <point x="491" y="1010"/>
      <point x="542" y="1049"/>
      <point x="569" y="1063" type="qcurve" smooth="yes"/>
      <point x="606" y="1083"/>
      <point x="691" y="1103"/>
      <point x="738" y="1102" type="qcurve" smooth="yes"/>
      <point x="812" y="1100"/>
      <point x="922" y="1052"/>
      <point x="962" y="1012" type="qcurve" smooth="yes" name="inserted"/>
      <point x="1001" y="972"/>
      <point x="1050" y="866"/>
      <point x="1062" y="806" type="qcurve" smooth="yes" name="inserted"/>
      <point x="1074" y="746"/>
      <point x="1077" y="619"/>
      <point x="1071" y="558" type="qcurve" smooth="yes"/>
      <point x="1069" y="537" type="line" smooth="yes"/>
      <point x="1061" y="471"/>
      <point x="1025" y="336"/>
      <point x="997" y="273" type="qcurve" smooth="yes" name="inserted"/>
      <point x="979" y="235"/>
      <point x="936" y="164"/>
      <point x="911" y="133" type="qcurve" smooth="yes"/>
      <point x="876.476801091125" y="92.3844718719117"/>
      <point x="795.2535625036332" y="27.701425001453313"/>
    </contour>
    <contour>
      <point x="529" y="201" type="qcurve" smooth="yes"/>
      <point x="563" y="200"/>
      <point x="622" y="216"/>
      <point x="646" y="231" type="qcurve" smooth="yes"/>
      <point x="670" y="246"/>
      <point x="709" y="287"/>
      <point x="725" y="312" type="qcurve" smooth="yes" name="inserted"/>
      <point x="756" y="361"/>
      <point x="790" y="482"/>
      <point x="797" y="538" type="qcurve" smooth="yes"/>
      <point x="799" y="559" type="line" smooth="yes"/>
      <point x="802" y="589"/>
      <point x="805" y="659"/>
      <point x="802" y="694" type="qcurve" smooth="yes" name="inserted"/>
      <point x="799" y="729"/>
      <point x="781" y="793"/>
      <point x="763" y="819" type="qcurve" smooth="yes" name="inserted"/>
      <point x="745" y="844"/>
      <point x="689" y="875"/>
      <point x="648" y="876" type="qcurve" smooth="yes"/>
      <point x="616" y="877"/>
      <point x="560" y="865"/>
      <point x="536" y="852" type="qcurve" smooth="yes"/>
      <point x="508" y="838"/>
      <point x="461" y="795"/>
      <point x="441" y="767" type="qcurve"/>
      <point x="362" y="314" type="line"/>
      <point x="373" y="284"/>
      <point x="408" y="241"/>
      <point x="431" y="227" type="qcurve" smooth="yes"/>
      <point x="451" y="215"/>
      <point x="501" y="202"/>
    </contour>
  </outline>
</glyph>
<glyph name="Aogonek" format="2">
  <advance width="1202"/>
  <unicode hex="0104"/>
  <outline>
    <contour>
      <point x="844" y="-184" type="qcurve" smooth="yes"/>
      <point x="842" y="-211"/>
      <point x="863" y="-243"/>
      <point x="891" y="-245" type="qcurve" smooth="yes"/>
      <point x="911" y="-246"/>
      <point x="952" y="-233"/>
      <point x="971" y="-225" type="qcurve"/>
      <point x="1007" y="-382" type="line"/>
      <point x="967" y="-404"/>
      <point x="878" y="-424"/>
      <point x="832" y="-423" type="qcurve" smooth="yes"/>
      <point x="788" y="-423"/>
      <point x="714" y="-394"/>
      <point x="687.5" y="-368.0" type="qcurve" smooth="yes" name="inserted"/>
      <point x="661" y="-342"/>
      <point x="632" y="-269"/>
      <point x="633" y="-224" type="qcurve" smooth="yes"/>
      <point x="634" y="-183"/>
      <point x="662" y="-111"/>
      <point x="685.0" y="-80.5" type="qcurve" smooth="yes" name="inserted"/>
      <point x="708" y="-50"/>
      <point x="768" y="2"/>
      <point x="801" y="23" type="qcurve"/>
      <point x="774" y="304" type="line"/>
      <point x="351" y="304" type="line"/>
      <point x="215" y="0" type="line"/>
      <point x="-82" y="0" type="line"/>
      <point x="633" y="1456" type="line"/>
      <point x="882" y="1456" type="line"/>
      <point x="1084" y="0" type="line"/>
      <point x="1032" y="0" type="line"/>
      <point x="1022" y="-3" type="line"/>
      <point x="993" y="-16"/>
      <point x="932" y="-49"/>
      <point x="906.5" y="-71.0" type="qcurve" smooth="yes" name="inserted"/>
      <point x="881" y="-93"/>
      <point x="847" y="-149"/>
    </contour>
    <contour>
      <point x="460" y="543" type="line"/>
      <point x="751" y="543" type="line"/>
      <point x="700" y="1076" type="line"/>
    </contour>
  </outline>
</glyph>
<glyph name="aogonek" format="2">
  <advance width="1202"/>
  <unicode hex="0105"/>
  <outline>
    <contour>
      <point x="694" y="24" type="qcurve"/>
      <point x="690" y="43"/>
      <point x="689" y="81"/>
      <point x="690" y="101" type="qcurve"/>
      <point x="662" y="75"/>
      <point x="603" y="34"/>
      <point x="571" y="19" type="qcurve" smooth="yes"/>
      <point x="530" y="-1"/>
      <point x="440" y="-21"/>
      <point x="390" y="-20" type="qcurve" smooth="yes"/>
      <point x="322" y="-19"/>
      <point x="199" y="26"/>
      <point x="154" y="67" type="qcurve" smooth="yes" name="inserted"/>
      <point x="108" y="107"/>
      <point x="58" y="223"/>
      <point x="61" y="295" type="qcurve" smooth="yes"/>
      <point x="64" y="367"/>
      <point x="113" y="477"/>
      <point x="153" y="518" type="qcurve" smooth="yes" name="inserted"/>
      <point x="193" y="559"/>
      <point x="297" y="614"/>
      <point x="356" y="631" type="qcurve" smooth="yes" name="inserted"/>
      <point x="415" y="648"/>
      <point x="540" y="662"/>
      <point x="601" y="662" type="qcurve" smooth="yes"/>
      <point x="757" y="660" type="line"/>
      <point x="770" y="727" type="line" smooth="yes"/>
      <point x="776" y="766"/>
      <point x="759" y="828"/>
      <point x="739" y="850" type="qcurve" smooth="yes" name="inserted"/>
      <point x="718" y="871"/>
      <point x="656" y="894"/>
      <point x="617" y="895" type="qcurve" smooth="yes"/>
      <point x="581" y="896"/>
      <point x="520" y="879"/>
      <point x="497" y="861" type="qcurve" smooth="yes"/>
      <point x="475" y="845"/>
      <point x="446" y="794"/>
      <point x="439" y="761" type="qcurve"/>
      <point x="168" y="759" type="line"/>
      <point x="174" y="849"/>
      <point x="264" y="980"/>
      <point x="332" y="1023" type="qcurve" smooth="yes" name="inserted"/>
      <point x="400" y="1065"/>
      <point x="565" y="1104"/>
      <point x="646" y="1103" type="qcurve" smooth="yes"/>
      <point x="731" y="1101"/>
      <point x="883" y="1051"/>
      <point x="939" y="1004" type="qcurve" smooth="yes" name="inserted"/>
      <point x="994" y="956"/>
      <point x="1051" y="816"/>
      <point x="1042" y="723" type="qcurve"/>
      <point x="967" y="258" type="line" smooth="yes"/>
      <point x="958" y="199"/>
      <point x="949" y="76"/>
      <point x="970" y="18" type="qcurve"/>
      <point x="969" y="0" type="line"/>
      <point x="923" y="0" type="line"/>
      <point x="914" y="-3" type="line"/>
      <point x="885" y="-16"/>
      <point x="824" y="-49"/>
      <point x="799" y="-71" type="qcurve" smooth="yes" name="inserted"/>
      <point x="773" y="-93"/>
      <point x="739" y="-149"/>
      <point x="736" y="-184" type="qcurve" smooth="yes"/>
      <point x="734" y="-211"/>
      <point x="755" y="-243"/>
      <point x="783" y="-245" type="qcurve" smooth="yes"/>
      <point x="803" y="-246"/>
      <point x="844" y="-233"/>
      <point x="863" y="-225" type="qcurve"/>
      <point x="899" y="-382" type="line"/>
      <point x="859" y="-404"/>
      <point x="770" y="-424"/>
      <point x="724" y="-423" type="qcurve" smooth="yes"/>
      <point x="680" y="-423"/>
      <point x="606" y="-394"/>
      <point x="580" y="-368" type="qcurve" smooth="yes" name="inserted"/>
      <point x="553" y="-342"/>
      <point x="524" y="-269"/>
      <point x="525" y="-224" type="qcurve" smooth="yes"/>
      <point x="526" y="-183"/>
      <point x="554" y="-111"/>
      <point x="577" y="-80" type="qcurve" smooth="yes" name="inserted"/>
      <point x="600" y="-49"/>
      <point x="661" y="3"/>
    </contour>
    <contour>
      <point x="461" y="194" type="qcurve" smooth="yes"/>
      <point x="495" y="193"/>
      <point x="561" y="207"/>
      <point x="590" y="221" type="qcurve" smooth="yes"/>
      <point x="622" y="236"/>
      <point x="679" y="280"/>
      <point x="702" y="308" type="qcurve"/>
      <point x="736" y="495" type="line"/>
      <point x="613" y="496" type="line" smooth="yes"/>
      <point x="568" y="496"/>
      <point x="476" y="478"/>
      <point x="437" y="458" type="qcurve" smooth="yes" name="inserted"/>
      <point x="415" y="446"/>
      <point x="377" y="414"/>
      <point x="364" y="393" type="qcurve" smooth="yes"/>
      <point x="354" y="377"/>
      <point x="340" y="339"/>
      <point x="337" y="317" type="qcurve" smooth="yes"/>
      <point x="333" y="286"/>
      <point x="349" y="240"/>
      <point x="366" y="225" type="qcurve" smooth="yes" name="inserted"/>
      <point x="383" y="210"/>
      <point x="432" y="194"/>
    </contour>
  </outline>
</glyph>
<glyph name="Dcroat" format="2">
  <advance width="1232"/>
  <unicode hex="0110"/>
  <outline>
    <contour>
      <point x="47" y="0" type="line"/>
      <point x="158" y="643" type="line"/>
      <point x="-19" y="643" type="line"/>
      <point x="13" y="823" type="line"/>
      <point x="189" y="823" type="line"/>
      <point x="299" y="1456" type="line"/>
      <point x="651" y="1455" type="line" smooth="yes"/>
      <point x="757" y="1453"/>
      <point x="927" y="1388"/>
      <point x="990" y="1333" type="qcurve" smooth="yes"/>
      <point x="1049.9220586604401" y="1281.6382354339087"/>
      <point x="1133.9859825149106" y="1137.135149553448"/>
      <point x="1154" y="1054" type="qcurve" smooth="yes"/>
      <point x="1169" y="993"/>
      <point x="1176" y="857"/>
      <point x="1167" y="787" type="qcurve" smooth="yes"/>
      <point x="1150" y="667" type="line" smooth="yes"/>
      <point x="1130" y="530"/>
      <point x="1012" y="286"/>
      <point x="921" y="196" type="qcurve" smooth="yes" name="inserted"/>
      <point x="829" y="105"/>
      <point x="586" y="-1"/>
      <point x="441" y="0" type="qcurve" smooth="yes"/>
    </contour>
    <contour>
      <point x="654" y="643" type="line"/>
      <point x="434" y="643" type="line"/>
      <point x="362" y="226" type="line"/>
      <point x="453" y="224" type="line" smooth="yes"/>
      <point x="548" y="224"/>
      <point x="692" y="299"/>
      <point x="743.0" y="360.5" type="qcurve" smooth="yes" name="inserted"/>
      <point x="794" y="422"/>
      <point x="857" y="582"/>
      <point x="870" y="667" type="qcurve" smooth="yes"/>
      <point x="887" y="790" type="line" smooth="yes"/>
      <point x="893" y="838"/>
      <point x="894" y="939"/>
      <point x="886.5" y="987.0" type="qcurve" smooth="yes" name="inserted"/>
      <point x="879" y="1035"/>
      <point x="844" y="1120"/>
      <point x="814.5" y="1152.5" type="qcurve" smooth="yes" name="inserted"/>
      <point x="785" y="1185"/>
      <point x="699" y="1224"/>
      <point x="640" y="1227" type="qcurve" smooth="yes"/>
      <point x="536" y="1228" type="line"/>
      <point x="465" y="823" type="line"/>
      <point x="686" y="823" type="line"/>
    </contour>
  </outline>
</glyph>
<glyph name="dcroat" format="2">
  <advance width="1232"/>
  <unicode hex="0111"/>
  <outline>
    <contour>
      <point x="1319" y="1220" type="line"/>
      <point x="1156" y="1220" type="line"/>
      <point x="945" y="0" type="line"/>
      <point x="702" y="0" type="line"/>
      <point x="716" y="113" type="line"/>
      <point x="692" y="86"/>
      <point x="638" y="41"/>
      <point x="608" y="24" type="qcurve" smooth="yes"/>
      <point x="569" y="2"/>
      <point x="480" y="-21"/>
      <point x="430" y="-20" type="qcurve" smooth="yes"/>
      <point x="358" y="-18"/>
      <point x="250" y="31"/>
      <point x="211" y="72" type="qcurve" smooth="yes" name="inserted"/>
      <point x="172" y="112"/>
      <point x="122" y="218"/>
      <point x="109" y="278" type="qcurve" smooth="yes" name="inserted"/>
      <point x="96" y="337"/>
      <point x="91" y="462"/>
      <point x="97" y="521" type="qcurve" smooth="yes"/>
      <point x="100" y="543" type="line" smooth="yes"/>
      <point x="108" y="610"/>
      <point x="144" y="746"/>
      <point x="173" y="809" type="qcurve" smooth="yes" name="inserted"/>
      <point x="201" y="872"/>
      <point x="280" y="981"/>
      <point x="332" y="1021" type="qcurve" smooth="yes" name="inserted"/>
      <point x="384" y="1060"/>
      <point x="512" y="1104"/>
      <point x="590" y="1102" type="qcurve" smooth="yes"/>
      <point x="631" y="1101"/>
      <point x="704" y="1083"/>
      <point x="737" y="1066" type="qcurve" smooth="yes"/>
      <point x="764" y="1051"/>
      <point x="813" y="1010"/>
      <point x="835" y="983" type="qcurve"/>
      <point x="879" y="1220" type="line"/>
      <point x="646" y="1220" type="line"/>
      <point x="678" y="1400" type="line"/>
      <point x="913" y="1400" type="line"/>
      <point x="939" y="1536" type="line"/>
      <point x="1211" y="1536" type="line"/>
      <point x="1187" y="1400" type="line"/>
      <point x="1351" y="1400" type="line"/>
    </contour>
    <contour>
      <point x="369" y="521" type="line" smooth="yes"/>
      <point x="365" y="485"/>
      <point x="363" y="401"/>
      <point x="368" y="361" type="qcurve" smooth="yes"/>
      <point x="373" y="323"/>
      <point x="395" y="273"/>
      <point x="419" y="245" type="qcurve" smooth="yes"/>
      <point x="435" y="227"/>
      <point x="485" y="207"/>
      <point x="517" y="206" type="qcurve" smooth="yes"/>
      <point x="546" y="205"/>
      <point x="599" y="217"/>
      <point x="621" y="228" type="qcurve" smooth="yes"/>
      <point x="652" y="243"/>
      <point x="705" y="291"/>
      <point x="727" y="321" type="qcurve"/>
      <point x="805" y="761" type="line"/>
      <point x="795" y="789"/>
      <point x="764" y="831"/>
      <point x="744" y="846" type="qcurve" smooth="yes"/>
      <point x="724" y="861"/>
      <point x="671" y="877"/>
      <point x="640" y="878" type="qcurve" smooth="yes"/>
      <point x="572" y="879"/>
      <point x="476" y="817"/>
      <point x="444" y="768" type="qcurve" smooth="yes" name="inserted"/>
      <point x="412" y="719"/>
      <point x="378" y="599"/>
      <point x="371" y="542" type="qcurve" smooth="yes"/>
    </contour>
  </outline>
</glyph>
<glyph name="Eogonek" format="2">
  <advance width="1202"/>
  <unicode hex="0118"/>
  <outline>
    <contour>
      <point x="1004" y="638" type="line"/>
      <point x="424" y="638" type="line"/>
      <point x="352" y="227" type="line"/>
      <point x="1031" y="227" type="line"/>
      <point x="991" y="0" type="line"/>
      <point x="880" y="0" type="line"/>
      <point x="870" y="-3" type="line"/>
      <point x="841" y="-16"/>
      <point x="780" y="-49"/>
      <point x="754.5" y="-71.0" type="qcurve" smooth="yes" name="inserted"/>
      <point x="729" y="-93"/>
      <point x="695" y="-149"/>
      <point x="692" y="-184" type="qcurve" smooth="yes"/>
      <point x="690" y="-211"/>
      <point x="711" y="-243"/>
      <point x="739" y="-245" type="qcurve" smooth="yes"/>
      <point x="759" y="-246"/>
      <point x="800" y="-233"/>
      <point x="819" y="-225" type="qcurve"/>
      <point x="855" y="-382" type="line"/>
      <point x="815" y="-404"/>
      <point x="726" y="-424"/>
      <point x="680" y="-423" type="qcurve" smooth="yes"/>
      <point x="636" y="-423"/>
      <point x="562" y="-394"/>
      <point x="535.5" y="-368.0" type="qcurve" smooth="yes" name="inserted"/>
      <point x="509" y="-342"/>
      <point x="480" y="-269"/>
      <point x="481" y="-224" type="qcurve" smooth="yes"/>
      <point x="482" y="-188"/>
      <point x="504" y="-124"/>
      <point x="522.0" y="-96.0" type="qcurve" smooth="yes" name="inserted"/>
      <point x="540" y="-68"/>
      <point x="588" y="-20"/>
      <point x="615" y="0" type="qcurve"/>
      <point x="38" y="0" type="line"/>
      <point x="291" y="1456" type="line"/>
      <point x="1241" y="1456" type="line"/>
      <point x="1201" y="1227" type="line"/>
      <point x="526" y="1227" type="line"/>
      <point x="462" y="860" type="line"/>
      <point x="1043" y="860" type="line"/>
    </contour>
  </outline>
</glyph>
<glyph name="Hbar" format="2">
  <advance width="1202"/>
  <unicode hex="0126"/>
  <outline>
    <contour>
      <point x="1118" y="1218" type="line"/>
      <point x="1311" y="1218" type="line"/>
      <point x="1281" y="1047" type="line"/>
      <point x="1089" y="1047" type="line"/>
      <point x="907" y="0" type="line"/>
      <point x="636" y="0" type="line"/>
      <point x="746" y="631" type="line"/>
      <point x="348" y="631" type="line"/>
      <point x="238" y="0" type="line"/>
      <point x="-34" y="0" type="line"/>
      <point x="147" y="1047" type="line"/>
      <point x="99" y="1047" type="line"/>
      <point x="129" y="1218" type="line"/>
      <point x="176" y="1218" type="line"/>
      <point x="218" y="1456" type="line"/>
      <point x="491" y="1456" type="line"/>
      <point x="449" y="1218" type="line"/>
      <point x="847" y="1218" type="line"/>
      <point x="889" y="1456" type="line"/>
      <point x="1160" y="1456" type="line"/>
    </contour>
    <contour>
      <point x="785" y="859" type="line"/>
      <point x="818" y="1047" type="line"/>
      <point x="420" y="1047" type="line"/>
      <point x="387" y="859" type="line"/>
    </contour>
  </outline>
</glyph>
<glyph name="hbar" format="2">
  <advance width="1232"/>
  <unicode hex="0127"/>
  <outline>
    <contour>
      <point x="790" y="1216" type="line"/>
      <point x="539" y="1216" type="line"/>
      <point x="485" y="931" type="line"/>
      <point x="517" y="973"/>
      <point x="594" y="1041"/>
      <point x="638" y="1063" type="qcurve" smooth="yes"/>
      <point x="674" y="1082"/>
      <point x="756" y="1102"/>
      <point x="801" y="1102" type="qcurve" smooth="yes"/>
      <point x="897" y="1101"/>
      <point x="1026" y="1025"/>
      <point x="1063" y="963" type="qcurve" smooth="yes" name="inserted"/>
      <point x="1099" y="900"/>
      <point x="1122" y="740"/>
      <point x="1113" y="655" type="qcurve"/>
      <point x="1004" y="0" type="line"/>
      <point x="732" y="0" type="line"/>
      <point x="843" y="658" type="line"/>
      <point x="848" y="703"/>
      <point x="839" y="780"/>
      <point x="821" y="810" type="qcurve" smooth="yes" name="inserted"/>
      <point x="803" y="839"/>
      <point x="739" y="873"/>
      <point x="690" y="875" type="qcurve" smooth="yes"/>
      <point x="658" y="876"/>
      <point x="601" y="865"/>
      <point x="575" y="854" type="qcurve" smooth="yes"/>
      <point x="547" y="842"/>
      <point x="495" y="805"/>
      <point x="471" y="782" type="qcurve"/>
      <point x="333" y="0" type="line"/>
      <point x="62" y="0" type="line"/>
      <point x="273" y="1216" type="line"/>
      <point x="117" y="1216" type="line"/>
      <point x="149" y="1396" type="line"/>
      <point x="304" y="1396" type="line"/>
      <point x="329" y="1536" type="line"/>
      <point x="600" y="1536" type="line"/>
      <point x="573" y="1396" type="line"/>
      <point x="822" y="1396" type="line"/>
    </contour>
  </outline>
</glyph>
